<svg width="18" height="15" viewBox="0 0 18 15" fill="none" xmlns="http://www.w3.org/2000/svg">
<path d="M9 15C8.74374 15 8.49669 14.913 8.30415 14.7551C7.577 14.1595 6.87593 13.5998 6.2574 13.1062L6.25424 13.1036C4.44081 11.6561 2.87485 10.406 1.78528 9.17466C0.567307 7.79804 0 6.49281 0 5.06693C0 3.68157 0.507156 2.40348 1.42795 1.46794C2.35973 0.521344 3.63826 0 5.02844 0C6.06747 0 7.01903 0.307687 7.8566 0.914443C8.2793 1.22071 8.66245 1.59555 9 2.03277C9.33769 1.59555 9.7207 1.22071 10.1435 0.914443C10.9811 0.307687 11.9327 0 12.9717 0C14.3617 0 15.6404 0.521344 16.5722 1.46794C17.493 2.40348 18 3.68157 18 5.06693C18 6.49281 17.4328 7.79804 16.2149 9.17453C15.1253 10.406 13.5595 11.656 11.7463 13.1033C11.1267 13.5978 10.4245 14.1584 9.69571 14.7553C9.50331 14.913 9.25612 15 9 15Z" fill="#FF0000"/>
</svg>
