<svg width="48" height="48" viewBox="0 0 48 48" fill="none" xmlns="http://www.w3.org/2000/svg">
<circle cx="24" cy="24" r="23" fill="white" stroke="#2154FF" stroke-width="2"/>
<path fill-rule="evenodd" clip-rule="evenodd" d="M18.875 22.875C18.875 22.3227 19.3227 21.875 19.875 21.875H25.875C26.4273 21.875 26.875 22.3227 26.875 22.875C26.875 23.4273 26.4273 23.875 25.875 23.875H19.875C19.3227 23.875 18.875 23.4273 18.875 22.875Z" fill="#2154FF"/>
<path fill-rule="evenodd" clip-rule="evenodd" d="M22.875 18.875C23.4273 18.875 23.875 19.3227 23.875 19.875V25.875C23.875 26.4273 23.4273 26.875 22.875 26.875C22.3227 26.875 21.875 26.4273 21.875 25.875V19.875C21.875 19.3227 22.3227 18.875 22.875 18.875Z" fill="#2154FF"/>
<path fill-rule="evenodd" clip-rule="evenodd" d="M22.875 15.9995C19.078 15.9995 16 19.0776 16 22.8745C16 26.6715 19.078 29.7495 22.875 29.7495C26.672 29.7495 29.75 26.6715 29.75 22.8745C29.75 19.0776 26.672 15.9995 22.875 15.9995ZM14 22.8745C14 17.973 17.9735 13.9995 22.875 13.9995C27.7765 13.9995 31.75 17.973 31.75 22.8745C31.75 27.776 27.7765 31.7495 22.875 31.7495C17.9735 31.7495 14 27.776 14 22.8745Z" fill="#2154FF"/>
<path fill-rule="evenodd" clip-rule="evenodd" d="M27.736 27.7363C28.1265 27.3457 28.7597 27.3457 29.1502 27.7363L33.7065 32.2926C34.0971 32.6831 34.0971 33.3162 33.7065 33.7068C33.316 34.0973 32.6828 34.0973 32.2923 33.7068L27.736 29.1505C27.3455 28.7599 27.3455 28.1268 27.736 27.7363Z" fill="#2154FF"/>
</svg>
