<svg width="24" height="24" viewBox="0 0 24 24" fill="none" xmlns="http://www.w3.org/2000/svg">
<circle cx="12" cy="12" r="12" fill="url(#paint0_linear)"/>
<path d="M12.0095 5.85164C14.5319 5.85164 16.9272 5.62726 17.8422 7.97534C18.2201 8.94514 18.1652 10.2046 18.1652 12.0081C18.1652 13.5906 18.2159 15.0779 17.8422 16.0401C16.9293 18.3896 14.5145 18.1645 12.0108 18.1645C9.59538 18.1645 7.10488 18.416 6.17885 16.0401C5.80024 15.0606 5.85581 13.8198 5.85581 12.0081C5.85581 9.60302 5.72313 8.05037 6.88953 6.88466C8.07051 5.70367 9.66763 5.85164 12.0122 5.85164H12.0095ZM12.5611 6.96108C7.2994 6.95274 6.62971 6.36781 6.99929 14.4937C7.13059 17.3677 9.31889 17.0523 12.0088 17.0523C16.9133 17.0523 17.0544 16.912 17.0544 12.0053C17.0544 7.04166 16.6653 6.96386 12.5611 6.95969V6.96108ZM8.72353 7.98298C9.13132 7.98298 9.462 8.31366 9.462 8.72145C9.462 9.12924 9.13132 9.45991 8.72353 9.45991C8.31574 9.45991 7.98507 9.12924 7.98507 8.72145C7.98507 8.31366 8.31574 7.98298 8.72353 7.98298ZM12.0095 8.84649C13.7552 8.84649 15.1703 10.2623 15.1703 12.0081C15.1703 13.7538 13.7552 15.169 12.0095 15.169C10.2637 15.169 8.84927 13.7538 8.84927 12.0081C8.84927 10.2623 10.2637 8.84649 12.0095 8.84649ZM12.0095 9.95593C9.29666 9.95593 9.29319 14.0602 12.0095 14.0602C14.7216 14.0602 14.7257 9.95593 12.0095 9.95593Z" fill="white"/>
<defs>
<linearGradient id="paint0_linear" x1="1.6114" y1="22.4364" x2="23.849" y2="3.18621" gradientUnits="userSpaceOnUse">
<stop stop-color="#FFDD55"/>
<stop offset="0.5" stop-color="#FF543E"/>
<stop offset="1" stop-color="#C837AB"/>
</linearGradient>
</defs>
</svg>
