<svg width="24" height="24" viewBox="0 0 24 24" fill="none" xmlns="http://www.w3.org/2000/svg">
<circle cx="12" cy="12" r="12" fill="#0971BD"/>
<path fill-rule="evenodd" clip-rule="evenodd" d="M6.26086 8.66171C6.26086 8.66171 11.0669 11.341 11.9998 11.341C12.9775 11.341 17.7315 8.71289 17.7315 8.71289L17.7391 8.24333C17.7391 7.72493 17.3112 7.3042 16.7824 7.3042H7.21711C6.68883 7.3042 6.26086 7.72493 6.26086 8.24333V8.66171ZM17.7315 10.1216C17.7315 10.1216 13.0224 12.6323 11.9998 12.6323C11.0669 12.6323 6.26803 10.1216 6.26851 10.1216L6.26086 15.7564C6.26086 16.2748 6.68931 16.6955 7.21711 16.6955H16.7824C17.3112 16.6955 17.7391 16.2748 17.7391 15.7564L17.7315 10.1216Z" fill="white"/>
</svg>
