<svg width="20" height="20" viewBox="0 0 20 20" fill="none" xmlns="http://www.w3.org/2000/svg">
<path fill-rule="evenodd" clip-rule="evenodd" d="M10 2C5.58172 2 2 5.58172 2 10C2 14.4183 5.58172 18 10 18C14.4183 18 18 14.4183 18 10C18 5.58172 14.4183 2 10 2ZM0 10C0 4.47715 4.47715 0 10 0C15.5228 0 20 4.47715 20 10C20 15.5228 15.5228 20 10 20C4.47715 20 0 15.5228 0 10Z" fill="#2154FF"/>
<path fill-rule="evenodd" clip-rule="evenodd" d="M5.25 10C5.25 9.44772 5.69772 9 6.25 9H13.75C14.3023 9 14.75 9.44772 14.75 10C14.75 10.5523 14.3023 11 13.75 11H6.25C5.69772 11 5.25 10.5523 5.25 10Z" fill="#2154FF"/>
<path fill-rule="evenodd" clip-rule="evenodd" d="M10 5.25C10.5523 5.25 11 5.69772 11 6.25V13.75C11 14.3023 10.5523 14.75 10 14.75C9.44772 14.75 9 14.3023 9 13.75V6.25C9 5.69772 9.44772 5.25 10 5.25Z" fill="#2154FF"/>
</svg>
