<svg width="24" height="24" viewBox="0 0 24 24" fill="none" xmlns="http://www.w3.org/2000/svg">
<path d="M0 12C0 5.37258 5.37258 0 12 0C18.6274 0 24 5.37258 24 12C24 18.6274 18.6274 24 12 24C5.37258 24 0 18.6274 0 12Z" fill="#55ACEE"/>
<path d="M11.8342 9.80243L11.8591 10.2086L11.4444 10.1589C9.93496 9.96823 8.61627 9.32162 7.49662 8.23566L6.94924 7.69682L6.80825 8.09473C6.50967 8.98174 6.70043 9.91849 7.32245 10.5485C7.6542 10.8967 7.57956 10.9464 7.0073 10.7392C6.80825 10.6729 6.63408 10.6231 6.61749 10.648C6.55944 10.706 6.75848 11.4604 6.91606 11.7588C7.1317 12.1733 7.57127 12.5795 8.0523 12.8199L8.45869 13.0106L7.97766 13.0189C7.51321 13.0189 7.49662 13.0272 7.54638 13.2013C7.71226 13.7401 8.36746 14.3121 9.0973 14.5608L9.61151 14.7349L9.16365 15.0001C8.50016 15.3815 7.72055 15.597 6.94095 15.6136C6.56773 15.6219 6.26086 15.655 6.26086 15.6799C6.26086 15.7628 7.27269 16.227 7.86154 16.4094C9.6281 16.9482 11.7264 16.7161 13.3022 15.796C14.4218 15.1411 15.5415 13.8396 16.064 12.5795C16.346 11.908 16.628 10.6812 16.628 10.0926C16.628 9.71125 16.6528 9.66151 17.1173 9.20557C17.391 8.94029 17.6481 8.65015 17.6978 8.56725C17.7808 8.40975 17.7725 8.40975 17.3495 8.55067C16.6445 8.79937 16.545 8.76621 16.8934 8.39317C17.1505 8.12789 17.4573 7.64708 17.4573 7.50616C17.4573 7.48129 17.3329 7.52274 17.1919 7.59735C17.0426 7.68024 16.7109 7.80459 16.4621 7.8792L16.0142 8.02013L15.6078 7.74656C15.3839 7.59735 15.0687 7.43155 14.9029 7.38181C14.4799 7.26575 13.833 7.28233 13.4515 7.41497C12.4148 7.78801 11.7596 8.74963 11.8342 9.80243Z" fill="white"/>
</svg>
