<svg width="18" height="20" viewBox="0 0 18 20" fill="none" xmlns="http://www.w3.org/2000/svg">
<path fill-rule="evenodd" clip-rule="evenodd" d="M1.5 0.25C1.30109 0.25 1.11032 0.329018 0.96967 0.46967C0.829018 0.610322 0.75 0.801088 0.75 1C0.75 1.19891 0.829018 1.38968 0.96967 1.53033C1.11032 1.67098 1.30109 1.75 1.5 1.75V18.25H0.75C0.551088 18.25 0.360322 18.329 0.21967 18.4697C0.0790175 18.6103 0 18.8011 0 19C0 19.1989 0.0790175 19.3897 0.21967 19.5303C0.360322 19.671 0.551088 19.75 0.75 19.75H17.25C17.4489 19.75 17.6397 19.671 17.7803 19.5303C17.921 19.3897 18 19.1989 18 19C18 18.8011 17.921 18.6103 17.7803 18.4697C17.6397 18.329 17.4489 18.25 17.25 18.25H16.5V1.75C16.6989 1.75 16.8897 1.67098 17.0303 1.53033C17.171 1.38968 17.25 1.19891 17.25 1C17.25 0.801088 17.171 0.610322 17.0303 0.46967C16.8897 0.329018 16.6989 0.25 16.5 0.25H1.5ZM6 4C5.80109 4 5.61032 4.07902 5.46967 4.21967C5.32902 4.36032 5.25 4.55109 5.25 4.75C5.25 4.94891 5.32902 5.13968 5.46967 5.28033C5.61032 5.42098 5.80109 5.5 6 5.5H7.5C7.69891 5.5 7.88968 5.42098 8.03033 5.28033C8.17098 5.13968 8.25 4.94891 8.25 4.75C8.25 4.55109 8.17098 4.36032 8.03033 4.21967C7.88968 4.07902 7.69891 4 7.5 4H6ZM5.25 7.75C5.25 7.55109 5.32902 7.36032 5.46967 7.21967C5.61032 7.07902 5.80109 7 6 7H7.5C7.69891 7 7.88968 7.07902 8.03033 7.21967C8.17098 7.36032 8.25 7.55109 8.25 7.75C8.25 7.94891 8.17098 8.13968 8.03033 8.28033C7.88968 8.42098 7.69891 8.5 7.5 8.5H6C5.80109 8.5 5.61032 8.42098 5.46967 8.28033C5.32902 8.13968 5.25 7.94891 5.25 7.75ZM6 10C5.80109 10 5.61032 10.079 5.46967 10.2197C5.32902 10.3603 5.25 10.5511 5.25 10.75C5.25 10.9489 5.32902 11.1397 5.46967 11.2803C5.61032 11.421 5.80109 11.5 6 11.5H7.5C7.69891 11.5 7.88968 11.421 8.03033 11.2803C8.17098 11.1397 8.25 10.9489 8.25 10.75C8.25 10.5511 8.17098 10.3603 8.03033 10.2197C7.88968 10.079 7.69891 10 7.5 10H6ZM9.75 4.75C9.75 4.55109 9.82902 4.36032 9.96967 4.21967C10.1103 4.07902 10.3011 4 10.5 4H12C12.1989 4 12.3897 4.07902 12.5303 4.21967C12.671 4.36032 12.75 4.55109 12.75 4.75C12.75 4.94891 12.671 5.13968 12.5303 5.28033C12.3897 5.42098 12.1989 5.5 12 5.5H10.5C10.3011 5.5 10.1103 5.42098 9.96967 5.28033C9.82902 5.13968 9.75 4.94891 9.75 4.75ZM10.5 7C10.3011 7 10.1103 7.07902 9.96967 7.21967C9.82902 7.36032 9.75 7.55109 9.75 7.75C9.75 7.94891 9.82902 8.13968 9.96967 8.28033C10.1103 8.42098 10.3011 8.5 10.5 8.5H12C12.1989 8.5 12.3897 8.42098 12.5303 8.28033C12.671 8.13968 12.75 7.94891 12.75 7.75C12.75 7.55109 12.671 7.36032 12.5303 7.21967C12.3897 7.07902 12.1989 7 12 7H10.5ZM9.75 10.75C9.75 10.5511 9.82902 10.3603 9.96967 10.2197C10.1103 10.079 10.3011 10 10.5 10H12C12.1989 10 12.3897 10.079 12.5303 10.2197C12.671 10.3603 12.75 10.5511 12.75 10.75C12.75 10.9489 12.671 11.1397 12.5303 11.2803C12.3897 11.421 12.1989 11.5 12 11.5H10.5C10.3011 11.5 10.1103 11.421 9.96967 11.2803C9.82902 11.1397 9.75 10.9489 9.75 10.75ZM6 17.5V15.25C6 15.0511 6.07902 14.8603 6.21967 14.7197C6.36032 14.579 6.55109 14.5 6.75 14.5H11.25C11.4489 14.5 11.6397 14.579 11.7803 14.7197C11.921 14.8603 12 15.0511 12 15.25V17.5C12 17.6989 11.921 17.8897 11.7803 18.0303C11.6397 18.171 11.4489 18.25 11.25 18.25H6.75C6.55109 18.25 6.36032 18.171 6.21967 18.0303C6.07902 17.8897 6 17.6989 6 17.5Z" fill="#2154FF"/>
</svg>
