<svg width="20" height="20" viewBox="0 0 20 20" fill="none" xmlns="http://www.w3.org/2000/svg">
<path fill-rule="evenodd" clip-rule="evenodd" d="M4.10354 0.312695L7.64698 3.86368C8.08609 4.30404 8.0864 4.99404 7.64767 5.43474L5.93477 7.15536C7.0103 10.2609 9.41559 12.7453 12.464 13.9201L12.8053 14.0453L14.429 12.4143C14.885 11.9562 15.6453 11.9364 16.127 12.37L19.6705 15.921C20.1096 16.3614 20.1099 17.0514 19.6712 17.4921L18.79 18.3772C17.1806 19.9938 14.7297 20.4494 12.5772 19.5321C9.53436 18.2355 7.07908 16.6507 5.21134 14.7777C3.3436 12.9048 1.76252 10.4418 0.468079 7.38899C-0.411032 5.31569 -0.0297308 2.96539 1.42603 1.35042L1.61358 1.15245L2.4055 0.356973C2.86154 -0.101124 3.62178 -0.120947 4.10354 0.312695Z" fill="#2154FF"/>
</svg>
