<svg width="20" height="15" viewBox="0 0 20 15" fill="none" xmlns="http://www.w3.org/2000/svg">
<path fill-rule="evenodd" clip-rule="evenodd" d="M17.2871 0.515625C16.6415 0.515625 16.0555 0.775607 15.6333 1.19764L7.93026 8.87585L4.90565 5.86099C4.48225 5.43896 3.89744 5.17781 3.25182 5.17781C1.9594 5.17781 0.912598 6.2224 0.912598 7.51065C0.912598 8.15419 1.17459 8.73711 1.59799 9.15915L6.27643 13.8225C6.69866 14.2445 7.28464 14.5045 7.93026 14.5045C8.57589 14.5045 9.16069 14.2445 9.58409 13.8225L18.941 4.4958C19.3644 4.07376 19.6264 3.49084 19.6264 2.84613C19.6264 1.55905 18.5784 0.515625 17.2871 0.515625Z" fill="white"/>
</svg>
