<svg width="26" height="26" viewBox="0 0 26 26" fill="none" xmlns="http://www.w3.org/2000/svg">
<path fill-rule="evenodd" clip-rule="evenodd" d="M17.9346 8.33378C17.5041 8.33378 17.1127 8.50787 16.8305 8.78923L11.6966 13.908L9.68023 11.8981C9.39797 11.6183 9.00809 11.4442 8.57768 11.4442C7.71528 11.4442 7.0182 12.1391 7.0182 12.9987C7.0182 13.4277 7.1913 13.8163 7.47357 14.0961L10.5925 17.2066C10.8748 17.4879 11.2647 17.6605 11.6966 17.6605C12.1271 17.6605 12.5169 17.4879 12.7992 17.2066L19.0371 10.9888C19.3194 10.7074 19.494 10.3188 19.494 9.88823C19.494 9.03017 18.7954 8.33378 17.9346 8.33378ZM22.0765 4.2036C17.2047 -0.652502 9.30596 -0.652502 4.43414 4.2036C-0.437681 9.06126 -0.437681 16.9345 4.43414 21.7907C9.30596 26.6468 17.2047 26.6468 22.0765 21.7907C26.9484 16.9345 26.9484 9.06126 22.0765 4.2036ZM19.8714 19.5927C16.2176 23.2347 10.2931 23.2347 6.63924 19.5927C2.98538 15.9506 2.98538 10.0452 6.63924 6.40315C10.2931 2.76107 16.2176 2.76107 19.8714 6.40315C23.5253 10.0452 23.5253 15.9506 19.8714 19.5927Z" fill="white"/>
</svg>
