<svg width="26" height="26" viewBox="0 0 26 26" fill="none" xmlns="http://www.w3.org/2000/svg">
<path fill-rule="evenodd" clip-rule="evenodd" d="M11.534 12.7779V17.6605C11.534 18.0911 11.7079 18.4797 11.989 18.761C12.27 19.0424 12.6582 19.2165 13.0868 19.2165C13.5154 19.2165 13.9036 19.0424 14.1847 18.761C14.4657 18.4797 14.6397 18.0911 14.6397 17.6605V12.7779C17.3137 12.0847 19.2982 9.67371 19.2982 6.77933C19.2982 3.34554 16.5171 0.561523 13.0868 0.561523C9.65659 0.561523 6.87544 3.34554 6.87544 6.77933C6.87544 9.67371 8.85998 12.0847 11.534 12.7779ZM13.0868 3.67198C14.8012 3.67198 16.1925 5.06321 16.1925 6.77932C16.1925 8.49699 14.8012 9.88823 13.0868 9.88823C11.3709 9.88823 9.98113 8.49699 9.98113 6.77932C9.98113 5.06321 11.3709 3.67198 13.0868 3.67198ZM25.5096 19.2165C25.5096 18.5745 25.1214 18.0258 24.5686 17.7879V17.7864L24.5623 17.7848C24.5623 17.7848 24.5608 17.7833 24.5592 17.7833L16.1925 14.1941V17.5765L20.0141 19.2165L13.0868 22.1886L6.15958 19.2165L9.98113 17.5765V14.1941L1.6144 17.7833C1.61285 17.7833 1.6113 17.7848 1.6113 17.7848L1.60509 17.7864V17.7879C1.05227 18.0258 0.664062 18.5745 0.664062 19.2165C0.664062 19.8569 1.05227 20.4056 1.60509 20.6435V20.645L1.6113 20.6466C1.6113 20.6481 1.61285 20.6481 1.6144 20.6481L12.475 25.3084V25.3068C12.6629 25.3876 12.8694 25.4327 13.0868 25.4327C13.3042 25.4327 13.5107 25.3876 13.6986 25.3068V25.3084L24.5592 20.6481C24.5608 20.6481 24.5623 20.6481 24.5623 20.6466L24.5686 20.645V20.6435C25.1214 20.4056 25.5096 19.8569 25.5096 19.2165Z" fill="#BCCCFF"/>
</svg>
