<svg width="26" height="20" viewBox="0 0 26 20" fill="none" xmlns="http://www.w3.org/2000/svg">
<path fill-rule="evenodd" clip-rule="evenodd" d="M22.4421 0.864258H3.72834C2.00511 0.864258 0.609375 2.25549 0.609375 3.97316V16.4088C0.609375 18.1249 2.00511 19.5177 3.72834 19.5177H22.4421C24.1638 19.5177 25.5611 18.1249 25.5611 16.4088V3.97316C25.5611 2.25549 24.1638 0.864258 22.4421 0.864258ZM22.4421 14.8543C22.4421 15.7124 21.7435 16.4088 20.8826 16.4088H5.28782C4.42698 16.4088 3.72834 15.7124 3.72834 14.8543V10.191H22.4421V14.8543ZM22.4421 7.08206H3.72834V5.52761C3.72834 4.668 4.42698 3.97316 5.28782 3.97316H20.8826C21.7435 3.97316 22.4421 4.668 22.4421 5.52761V7.08206ZM6.8473 14.8543H9.96626C10.8271 14.8543 11.5257 14.1579 11.5257 13.2999C11.5257 12.4402 10.8271 11.7454 9.96626 11.7454H6.8473C5.98647 11.7454 5.28782 12.4402 5.28782 13.2999C5.28782 14.1579 5.98647 14.8543 6.8473 14.8543Z" fill="white"/>
</svg>
