<svg width="13" height="12" viewBox="0 0 13 12" fill="none" xmlns="http://www.w3.org/2000/svg">
<path fill-rule="evenodd" clip-rule="evenodd" d="M1.02861 0.528514C1.28896 0.268165 1.71107 0.268165 1.97141 0.528514L6.97142 5.52851C7.23177 5.78886 7.23177 6.21097 6.97142 6.47132L1.97141 11.4713C1.71107 11.7317 1.28896 11.7317 1.02861 11.4713C0.768256 11.211 0.768256 10.7889 1.02861 10.5285L5.5572 5.99992L1.02861 1.47132C0.768256 1.21097 0.768256 0.788864 1.02861 0.528514Z" fill="#2154FF"/>
<path fill-rule="evenodd" clip-rule="evenodd" d="M6.02861 0.528514C6.28896 0.268165 6.71107 0.268165 6.97141 0.528514L11.9714 5.52851C12.2318 5.78886 12.2318 6.21097 11.9714 6.47132L6.97141 11.4713C6.71107 11.7317 6.28896 11.7317 6.02861 11.4713C5.76826 11.211 5.76826 10.7889 6.02861 10.5285L10.5572 5.99992L6.02861 1.47132C5.76826 1.21097 5.76826 0.788864 6.02861 0.528514Z" fill="#2154FF"/>
</svg>
