<svg width="68" height="68" viewBox="0 0 68 68" fill="none" xmlns="http://www.w3.org/2000/svg">
<path d="M33.9677 67.5836H33.9679C52.5226 67.5904 67.5746 52.5552 67.5846 34.0005V34.0003C67.5846 15.4556 52.5561 0.423711 34.0114 0.416994C15.47 0.410278 0.431411 15.4355 0.417978 33.9768C0.404544 52.5215 15.423 67.5635 33.9677 67.5836ZM37.3346 50.917H37.5846V50.667V44.0003V43.7503H37.3346H30.668H30.418V44.0003V50.667V50.917H30.668H37.3346ZM37.3346 37.5837H37.5846V37.3337V17.3337V17.0837H37.3346H30.668H30.418V17.3337V37.3337V37.5837H30.668H37.3346ZM15.4716 53.1164C10.4956 48.22 7.66004 41.5529 7.58464 34.5723V34.0017C7.66004 27.021 10.4956 20.354 15.4716 15.4576C20.4479 10.5609 27.1603 7.83318 34.1418 7.87071C41.1232 7.90823 47.8059 10.7079 52.7293 15.6579C57.6527 20.6078 60.4164 27.3055 60.4164 34.287C60.4164 41.2685 57.6527 47.9662 52.7293 52.9161C47.8059 57.8661 41.1232 60.6657 34.1418 60.7033C27.1603 60.7408 20.4479 58.0131 15.4716 53.1164Z" fill="#EA403F" stroke="#EA403F" stroke-width="0.5"/>
</svg>
