<svg width="20" height="21" viewBox="0 0 20 21" fill="none" xmlns="http://www.w3.org/2000/svg">
<path d="M10 4.84473C10.5523 4.84473 11 5.29244 11 5.84473V11.8447C11 12.397 10.5523 12.8447 10 12.8447C9.44771 12.8447 9 12.397 9 11.8447V5.84473C9 5.29244 9.44771 4.84473 10 4.84473Z" fill="black"/>
<path d="M10 14.8447C9.44771 14.8447 9 15.2924 9 15.8447C9 16.397 9.44771 16.8447 10 16.8447C10.5523 16.8447 11 16.397 11 15.8447C11 15.2924 10.5523 14.8447 10 14.8447Z" fill="black"/>
<path fill-rule="evenodd" clip-rule="evenodd" d="M10 0.844727C4.47715 0.844727 0 5.32188 0 10.8447C0 16.3676 4.47715 20.8447 10 20.8447C15.5228 20.8447 20 16.3676 20 10.8447C20 5.32188 15.5228 0.844727 10 0.844727ZM2 10.8447C2 15.263 5.58172 18.8447 10 18.8447C14.4183 18.8447 18 15.263 18 10.8447C18 6.42645 14.4183 2.84473 10 2.84473C5.58172 2.84473 2 6.42645 2 10.8447Z" fill="black"/>
</svg>
