<svg width="20" height="19" viewBox="0 0 20 19" fill="none" xmlns="http://www.w3.org/2000/svg">
<path fill-rule="evenodd" clip-rule="evenodd" d="M9.99927 0.500244C10.5516 0.500244 10.9993 0.947959 10.9993 1.50024V8.62524C10.9993 9.17753 10.5516 9.62525 9.99927 9.62525C9.44698 9.62525 8.99927 9.17753 8.99927 8.62524V1.50024C8.99927 0.947959 9.44698 0.500244 9.99927 0.500244Z" fill="#FF8080"/>
<path fill-rule="evenodd" clip-rule="evenodd" d="M6.33798 1.53887C6.63924 2.00176 6.50821 2.62122 6.04533 2.92247C4.73543 3.77498 3.73609 5.02795 3.19625 6.49463C2.6564 7.96131 2.60496 9.56317 3.04958 11.0615C3.4942 12.5598 4.41109 13.8743 5.66358 14.8091C6.91607 15.7439 8.43711 16.2489 9.99998 16.2489C11.5629 16.2489 13.0839 15.7439 14.3364 14.8091C15.5889 13.8743 16.5058 12.5598 16.9504 11.0615C17.395 9.5632 17.3436 7.96134 16.8038 6.49466C16.2639 5.02797 15.2646 3.775 13.9547 2.92249C13.4918 2.62123 13.3608 2.00177 13.6621 1.53889C13.9633 1.076 14.5828 0.94498 15.0457 1.24624C16.7169 2.33393 17.9919 3.93254 18.6807 5.80383C19.3694 7.67511 19.4351 9.71887 18.8678 11.6305C18.3005 13.5421 17.1307 15.2192 15.5326 16.4119C13.9346 17.6046 11.994 18.2489 9.99998 18.2489C8.00597 18.2489 6.06533 17.6045 4.46733 16.4119C2.86932 15.2192 1.6995 13.5421 1.13222 11.6304C0.564943 9.71883 0.63058 7.67507 1.31935 5.80379C2.00812 3.93251 3.28314 2.3339 4.95438 1.24622C5.41727 0.94496 6.03673 1.07599 6.33798 1.53887Z" fill="#FF8080"/>
</svg>
