<svg width="20" height="18" viewBox="0 0 20 18" fill="none" xmlns="http://www.w3.org/2000/svg">
<path fill-rule="evenodd" clip-rule="evenodd" d="M2 2.5V15.5H18V2.5H2ZM0 2.25C0 1.2835 0.783502 0.5 1.75 0.5H18.25C19.2165 0.5 20 1.2835 20 2.25V15.75C20 16.7165 19.2165 17.5 18.25 17.5H1.75C0.783502 17.5 0 16.7165 0 15.75V2.25Z" fill="#90AAFF"/>
<path fill-rule="evenodd" clip-rule="evenodd" d="M6.25 4.25C6.80228 4.25 7.25 4.69772 7.25 5.25C7.25 5.97935 7.53973 6.67882 8.05546 7.19454C8.57118 7.71027 9.27065 8 10 8C10.7293 8 11.4288 7.71027 11.9445 7.19454C12.4603 6.67882 12.75 5.97935 12.75 5.25C12.75 4.69772 13.1977 4.25 13.75 4.25C14.3023 4.25 14.75 4.69772 14.75 5.25C14.75 6.50978 14.2496 7.71796 13.3588 8.60876C12.468 9.49955 11.2598 10 10 10C8.74022 10 7.53204 9.49955 6.64124 8.60876C5.75044 7.71796 5.25 6.50978 5.25 5.25C5.25 4.69772 5.69772 4.25 6.25 4.25Z" fill="#90AAFF"/>
</svg>
