<svg width="50" height="48" viewBox="0 0 50 48" fill="none" xmlns="http://www.w3.org/2000/svg">
<path d="M49.3155 18.3088C49.097 17.6229 48.6769 17.0187 48.1098 16.5751C47.5428 16.1316 46.8552 15.8692 46.1368 15.8223L33.1451 14.9131L28.3258 2.77759C28.065 2.10668 27.6076 1.53021 27.0136 1.1237C26.4195 0.717202 25.7165 0.499634 24.9967 0.499512H24.9933C24.2746 0.500794 23.573 0.718916 22.9803 1.12536C22.3875 1.5318 21.9312 2.10764 21.671 2.77759L16.7799 14.9831L3.85998 15.8223C3.14159 15.8692 2.45402 16.1316 1.88698 16.5751C1.31995 17.0187 0.899767 17.6229 0.681272 18.3088C0.450774 19.0045 0.435093 19.7535 0.636273 20.4583C0.837453 21.163 1.24617 21.7908 1.8092 22.26L11.7487 30.6614L8.79211 42.291C8.58833 43.0744 8.6258 43.901 8.89963 44.6627C9.17345 45.4244 9.67087 46.0857 10.3268 46.5601C10.96 47.0208 11.7173 47.2802 12.5 47.3046C13.2828 47.329 14.0547 47.1172 14.7154 46.6968L24.9694 40.2009C24.983 40.1907 24.9967 40.1838 25.0275 40.2009L36.0607 47.1907C36.6596 47.5734 37.3602 47.7664 38.0706 47.7444C38.7811 47.7225 39.4684 47.4866 40.0426 47.0676C40.6369 46.638 41.0877 46.039 41.3359 45.3489C41.5841 44.6589 41.6182 43.91 41.4337 43.2002L38.2926 30.4956L48.1876 22.26C48.7506 21.7908 49.1594 21.163 49.3605 20.4583C49.5617 19.7535 49.546 19.0045 49.3155 18.3088Z" fill="#FEBD17"/>
</svg>
