<svg width="30" height="27" viewBox="0 0 30 27" fill="none" xmlns="http://www.w3.org/2000/svg">
<path d="M28.8956 10.1765C28.7708 9.78454 28.5307 9.43929 28.2066 9.18582C27.8826 8.93235 27.4897 8.78243 27.0792 8.75562L19.6554 8.23609L16.9015 1.30151C16.7524 0.918138 16.4911 0.588724 16.1516 0.356437C15.8122 0.12415 15.4105 -0.000174066 14.9991 -0.000244141H14.9972C14.5865 0.000488374 14.1856 0.12513 13.8469 0.357381C13.5082 0.589634 13.2474 0.918687 13.0987 1.30151L10.3038 8.27612L2.921 8.75562C2.51049 8.78243 2.1176 8.93235 1.79357 9.18582C1.46955 9.43929 1.22945 9.78454 1.1046 10.1765C0.972882 10.5741 0.963922 11.0021 1.07888 11.4048C1.19384 11.8075 1.42739 12.1662 1.74913 12.4343L7.42881 17.2351L5.73936 23.8806C5.62291 24.3283 5.64433 24.8006 5.8008 25.2359C5.95727 25.6712 6.24151 26.049 6.61631 26.3201C6.97817 26.5833 7.4109 26.7316 7.85818 26.7455C8.30546 26.7595 8.74658 26.6384 9.12412 26.3982L14.9835 22.6863C14.9913 22.6804 14.9991 22.6765 15.0167 22.6863L21.3214 26.6804C21.6637 26.8991 22.064 27.0094 22.4699 26.9968C22.8759 26.9843 23.2687 26.8495 23.5968 26.6101C23.9364 26.3646 24.194 26.0223 24.3358 25.628C24.4776 25.2337 24.4971 24.8057 24.3917 24.4002L22.5968 17.1404L28.2511 12.4343C28.5728 12.1662 28.8064 11.8075 28.9213 11.4048C29.0363 11.0021 29.0273 10.5741 28.8956 10.1765Z" fill="#CBD5E0"/>
</svg>
