
<svg width="60" height="61" viewBox="0 0 60 61" fill="none" xmlns="http://www.w3.org/2000/svg">
<path fill-rule="evenodd" clip-rule="evenodd" d="M0 30.2348C0 13.6553 13.4315 0 30.2609 0C37.9565 0 45.5871 3.21338 51.1304 9.01739C56.8393 14.6531 60 22.4109 60 30.7652C60 47.3447 46.5685 61 29.7391 61C13.4315 61 0 47.3447 0 30.2348ZM28.2131 42.4792L45.4918 21.125C46.2044 20.5402 46.1035 19.4612 45.4918 19.0417L44.9836 18.5208C44.2123 17.8436 43.268 17.873 42.4426 18.5208L27.7049 32.5833C27.156 33.4032 26.266 33.4609 25.6721 33.1042L18.0492 27.375C17.4463 26.8966 16.4625 27.0239 16.0164 27.8958L15.5082 28.4167C14.8597 29.0169 14.8808 29.9475 15.5082 30.5L26.1803 42.4792C26.2681 42.807 26.7287 43.0095 27.1967 43C27.688 42.9898 28.1403 42.7685 28.2131 42.4792Z" fill="#5EAC17"/>
</svg>
