<svg width="22" height="21" viewBox="0 0 22 21" fill="none" xmlns="http://www.w3.org/2000/svg">
<path fill-rule="evenodd" clip-rule="evenodd" d="M11 2.82861C8.23858 2.82861 6 5.06719 6 7.82861C6 10.59 8.23858 12.8286 11 12.8286C13.7614 12.8286 16 10.59 16 7.82861C16 5.06719 13.7614 2.82861 11 2.82861ZM4 7.82861C4 3.96262 7.13401 0.828613 11 0.828613C14.866 0.828613 18 3.96262 18 7.82861C18 11.6946 14.866 14.8286 11 14.8286C7.13401 14.8286 4 11.6946 4 7.82861Z" fill="#90AAFF"/>
<path fill-rule="evenodd" clip-rule="evenodd" d="M11.0001 14.8286C9.33234 14.8286 7.69394 15.2675 6.24949 16.1011C4.80504 16.9348 3.60541 18.1339 2.77111 19.578C2.49483 20.0562 1.88319 20.2199 1.40498 19.9436C0.926764 19.6673 0.763065 19.0557 1.03935 18.5775C2.04922 16.8295 3.50131 15.378 5.24975 14.3689C6.99818 13.3598 8.98138 12.8286 11.0001 12.8286C13.0189 12.8286 15.0021 13.3599 16.7505 14.369C18.4989 15.3782 19.9509 16.8297 20.9608 18.5777C21.2371 19.0559 21.0733 19.6675 20.5951 19.9438C20.1169 20.2201 19.5053 20.0564 19.229 19.5782C18.3947 18.1341 17.1951 16.9349 15.7507 16.1012C14.3063 15.2675 12.6679 14.8286 11.0001 14.8286Z" fill="#90AAFF"/>
</svg>
