<svg width="17" height="19" viewBox="0 0 17 19" fill="none" xmlns="http://www.w3.org/2000/svg">
<path d="M13.3333 18.3542H3.33333C1.5 18.3542 0 16.8542 0 15.0208V5.27083C0 4.6875 0.333333 4.10417 0.916667 3.77083L7.58333 0.1875C8.08333 -0.0625 8.66667 -0.0625 9.16667 0.1875L15.8333 3.77083C16.4167 4.02083 16.75 4.60417 16.75 5.27083V15.0208C16.6667 16.8542 15.1667 18.3542 13.3333 18.3542ZM8.33333 1.6875L1.66667 5.27083V15.0208C1.66667 15.9375 2.41667 16.6875 3.33333 16.6875H13.3333C14.25 16.6875 15 15.9375 15 15.0208V5.27083L8.33333 1.6875Z" fill="white"/>
</svg>
