<svg width="22" height="22" viewBox="0 0 22 22" fill="none" xmlns="http://www.w3.org/2000/svg">
<path d="M11.166 13.666C12.5467 13.666 13.666 12.5467 13.666 11.166C13.666 9.7853 12.5467 8.66602 11.166 8.66602C9.7853 8.66602 8.66602 9.7853 8.66602 11.166C8.66602 12.5467 9.7853 13.666 11.166 13.666Z" stroke="white" stroke-width="2.08333" stroke-linecap="round" stroke-linejoin="round"/>
<path d="M17.3333 13.6667C17.2224 13.918 17.1893 14.1968 17.2383 14.4672C17.2873 14.7375 17.4162 14.9869 17.6083 15.1833L17.6583 15.2333C17.8133 15.3881 17.9362 15.5719 18.0201 15.7743C18.104 15.9766 18.1471 16.1935 18.1471 16.4125C18.1471 16.6315 18.104 16.8484 18.0201 17.0507C17.9362 17.2531 17.8133 17.4369 17.6583 17.5917C17.5035 17.7466 17.3197 17.8696 17.1174 17.9534C16.9151 18.0373 16.6982 18.0805 16.4792 18.0805C16.2601 18.0805 16.0433 18.0373 15.8409 17.9534C15.6386 17.8696 15.4548 17.7466 15.3 17.5917L15.25 17.5417C15.0536 17.3496 14.8042 17.2207 14.5338 17.1717C14.2635 17.1226 13.9847 17.1557 13.7333 17.2667C13.4869 17.3723 13.2767 17.5477 13.1286 17.7713C12.9805 17.9949 12.9011 18.2568 12.9 18.525V18.6667C12.9 19.1087 12.7244 19.5326 12.4118 19.8452C12.0993 20.1577 11.6754 20.3333 11.2333 20.3333C10.7913 20.3333 10.3674 20.1577 10.0548 19.8452C9.74226 19.5326 9.56667 19.1087 9.56667 18.6667V18.5917C9.56021 18.3158 9.47093 18.0483 9.31042 17.8239C9.14992 17.5995 8.92561 17.4286 8.66667 17.3333C8.41532 17.2224 8.1365 17.1893 7.86618 17.2383C7.59585 17.2873 7.3464 17.4162 7.15 17.6083L7.1 17.6583C6.94521 17.8133 6.7614 17.9362 6.55907 18.0201C6.35674 18.104 6.13986 18.1471 5.92083 18.1471C5.70181 18.1471 5.48493 18.104 5.2826 18.0201C5.08027 17.9362 4.89645 17.8133 4.74167 17.6583C4.58671 17.5035 4.46377 17.3197 4.3799 17.1174C4.29603 16.9151 4.25286 16.6982 4.25286 16.4792C4.25286 16.2601 4.29603 16.0433 4.3799 15.8409C4.46377 15.6386 4.58671 15.4548 4.74167 15.3L4.79167 15.25C4.98378 15.0536 5.11265 14.8042 5.16167 14.5338C5.21069 14.2635 5.1776 13.9847 5.06667 13.7333C4.96103 13.4869 4.78563 13.2767 4.56205 13.1286C4.33848 12.9805 4.07649 12.9011 3.80833 12.9H3.66667C3.22464 12.9 2.80072 12.7244 2.48816 12.4118C2.17559 12.0993 2 11.6754 2 11.2333C2 10.7913 2.17559 10.3674 2.48816 10.0548C2.80072 9.74226 3.22464 9.56667 3.66667 9.56667H3.74167C4.0175 9.56021 4.285 9.47093 4.50942 9.31042C4.73383 9.14992 4.90476 8.92561 5 8.66667C5.11093 8.41532 5.14402 8.1365 5.095 7.86618C5.04599 7.59585 4.91711 7.3464 4.725 7.15L4.675 7.1C4.52004 6.94521 4.39711 6.7614 4.31323 6.55907C4.22936 6.35674 4.18619 6.13986 4.18619 5.92083C4.18619 5.70181 4.22936 5.48493 4.31323 5.2826C4.39711 5.08027 4.52004 4.89645 4.675 4.74167C4.82979 4.58671 5.0136 4.46377 5.21593 4.3799C5.41826 4.29603 5.63514 4.25286 5.85417 4.25286C6.07319 4.25286 6.29007 4.29603 6.4924 4.3799C6.69473 4.46377 6.87854 4.58671 7.03333 4.74167L7.08333 4.79167C7.27973 4.98378 7.52918 5.11265 7.79951 5.16167C8.06984 5.21069 8.34865 5.1776 8.6 5.06667H8.66667C8.91314 4.96103 9.12335 4.78563 9.27141 4.56205C9.41947 4.33848 9.49893 4.07649 9.5 3.80833V3.66667C9.5 3.22464 9.67559 2.80072 9.98815 2.48816C10.3007 2.17559 10.7246 2 11.1667 2C11.6087 2 12.0326 2.17559 12.3452 2.48816C12.6577 2.80072 12.8333 3.22464 12.8333 3.66667V3.74167C12.8344 4.00982 12.9139 4.27181 13.0619 4.49539C13.21 4.71896 13.4202 4.89436 13.6667 5C13.918 5.11093 14.1968 5.14402 14.4672 5.095C14.7375 5.04599 14.9869 4.91711 15.1833 4.725L15.2333 4.675C15.3881 4.52004 15.5719 4.39711 15.7743 4.31323C15.9766 4.22936 16.1935 4.18619 16.4125 4.18619C16.6315 4.18619 16.8484 4.22936 17.0507 4.31323C17.2531 4.39711 17.4369 4.52004 17.5917 4.675C17.7466 4.82979 17.8696 5.0136 17.9534 5.21593C18.0373 5.41826 18.0805 5.63514 18.0805 5.85417C18.0805 6.07319 18.0373 6.29007 17.9534 6.4924C17.8696 6.69473 17.7466 6.87854 17.5917 7.03333L17.5417 7.08333C17.3496 7.27973 17.2207 7.52918 17.1717 7.79951C17.1226 8.06984 17.1557 8.34865 17.2667 8.6V8.66667C17.3723 8.91314 17.5477 9.12335 17.7713 9.27141C17.9949 9.41947 18.2568 9.49893 18.525 9.5H18.6667C19.1087 9.5 19.5326 9.67559 19.8452 9.98815C20.1577 10.3007 20.3333 10.7246 20.3333 11.1667C20.3333 11.6087 20.1577 12.0326 19.8452 12.3452C19.5326 12.6577 19.1087 12.8333 18.6667 12.8333H18.5917C18.3235 12.8344 18.0615 12.9139 17.8379 13.0619C17.6144 13.21 17.439 13.4202 17.3333 13.6667Z" stroke="white" stroke-width="2.08333" stroke-linecap="round" stroke-linejoin="round"/>
</svg>
