<svg width="19" height="20" viewBox="0 0 19 20" fill="none" xmlns="http://www.w3.org/2000/svg">
<path d="M17.7227 3.74324H14.7227V1.84324C14.7227 1.00487 14.05 0.323242 13.2227 0.323242H5.72266C4.89531 0.323242 4.22266 1.00487 4.22266 1.84324V3.74324H1.22266C0.807812 3.74324 0.472656 4.08287 0.472656 4.50324V5.26324C0.472656 5.36774 0.557031 5.45324 0.660156 5.45324H2.07578L2.65469 17.8745C2.69219 18.6844 3.35313 19.3232 4.15234 19.3232H14.793C15.5945 19.3232 16.2531 18.6867 16.2906 17.8745L16.8695 5.45324H18.2852C18.3883 5.45324 18.4727 5.36774 18.4727 5.26324V4.50324C18.4727 4.08287 18.1375 3.74324 17.7227 3.74324ZM13.0352 3.74324H5.91016V2.03324H13.0352V3.74324Z" fill="#718096"/>
</svg>
