<svg width="10" height="10" viewBox="0 0 10 10" fill="none" xmlns="http://www.w3.org/2000/svg">
<path d="M9.2306 0.777349C8.96871 0.515462 8.54566 0.515462 8.28378 0.777349L5.00013 4.05428L1.71648 0.770633C1.45459 0.508747 1.03154 0.508747 0.769657 0.770633C0.507771 1.03252 0.507771 1.45557 0.769657 1.71745L4.05331 5.0011L0.769657 8.28475C0.507771 8.54664 0.507771 8.96969 0.769657 9.23157C1.03154 9.49346 1.45459 9.49346 1.71648 9.23157L5.00013 5.94792L8.28378 9.23157C8.54566 9.49346 8.96871 9.49346 9.2306 9.23157C9.49248 8.96969 9.49248 8.54664 9.2306 8.28475L5.94695 5.0011L9.2306 1.71745C9.48577 1.46228 9.48577 1.03252 9.2306 0.777349Z" fill="white"/>
</svg>
