<svg width="20" height="20" viewBox="0 0 20 20" fill="none" xmlns="http://www.w3.org/2000/svg">
<path d="M18.74 17.7477H1.26C0.839625 17.7477 0.5 18.0874 0.5 18.5077V19.3627C0.5 19.4672 0.5855 19.5527 0.69 19.5527H19.31C19.4145 19.5527 19.5 19.4672 19.5 19.3627V18.5077C19.5 18.0874 19.1604 17.7477 18.74 17.7477ZM3.96038 15.7527C4.00788 15.7527 4.05538 15.748 4.10288 15.7409L8.09762 15.0402C8.14512 15.0307 8.19025 15.0094 8.2235 14.9737L18.2911 4.90611C18.3131 4.88414 18.3306 4.85804 18.3425 4.82931C18.3544 4.80058 18.3606 4.76978 18.3606 4.73867C18.3606 4.70757 18.3544 4.67677 18.3425 4.64804C18.3306 4.6193 18.3131 4.59321 18.2911 4.57123L14.3439 0.621609C14.2988 0.576484 14.2394 0.552734 14.1752 0.552734C14.1111 0.552734 14.0518 0.576484 14.0066 0.621609L3.939 10.6892C3.90337 10.7249 3.882 10.7676 3.8725 10.8151L3.17188 14.8099C3.14877 14.9371 3.15703 15.068 3.19593 15.1914C3.23483 15.3147 3.3032 15.4267 3.39512 15.5176C3.55187 15.6696 3.749 15.7527 3.96038 15.7527Z" fill="#718096"/>
</svg>
