<svg width="20" height="17" viewBox="0 0 20 17" fill="none" xmlns="http://www.w3.org/2000/svg">
<path d="M18.9512 5.16396L11.1452 1.10367C10.4388 0.736276 9.5612 0.736276 8.85482 1.10367L1.04877 5.16396C0.401866 5.50049 0 6.11001 0 6.75466V14.3078C0 15.3361 0.984223 16.1727 2.19395 16.1727H17.806C19.0158 16.1727 19.9999 15.3361 19.9999 14.3078V6.75466C20 6.11001 19.5981 5.50049 18.9512 5.16396ZM9.50836 2.01146C9.65999 1.9326 9.82996 1.89317 10 1.89317C10.17 1.89317 10.34 1.9326 10.4916 2.01146L18.205 6.02359L12.8405 9.01815V8.99878C12.8405 8.44412 12.4774 7.96034 11.9428 7.7097V6.80282C11.9428 5.89226 11.0712 5.15145 10 5.15145C8.92875 5.15145 8.05722 5.89226 8.05722 6.80282V7.7097C7.52257 7.96034 7.15952 8.44412 7.15952 8.99878V9.0181L1.79503 6.02359L9.50836 2.01146ZM10.6907 7.52755H9.3094V6.80276C9.3094 6.47906 9.61923 6.2157 10.0001 6.2157C10.3809 6.2157 10.6907 6.47906 10.6907 6.80276V7.52755H10.6907ZM8.41163 8.99878C8.41163 8.77442 8.62637 8.5919 8.89032 8.5919H11.1096C11.3736 8.5919 11.5883 8.77442 11.5883 8.99878V10.846C11.5883 11.1066 11.339 11.3185 11.0325 11.3185H8.96738C8.66086 11.3185 8.41157 11.1065 8.41157 10.846V8.99878H8.41163ZM17.806 15.1084H2.19395C1.67464 15.1084 1.25211 14.7492 1.25211 14.3078V6.99386L7.11751 10.268C7.1311 10.2756 7.1455 10.2812 7.15952 10.2878V10.846C7.15952 11.6934 7.97058 12.3828 8.96745 12.3828H11.0326C12.0294 12.3828 12.8405 11.6934 12.8405 10.846V10.2878C12.8545 10.2812 12.8689 10.2756 12.8825 10.268L18.7479 6.99386V14.3078C18.7479 14.7492 18.3254 15.1084 17.806 15.1084Z" fill="white"/>
</svg>
