<svg width="22" height="19" viewBox="0 0 22 19" fill="none" xmlns="http://www.w3.org/2000/svg">
<path d="M15.3333 17V15.3333C15.3333 14.4493 14.9821 13.6014 14.357 12.9763C13.7319 12.3512 12.8841 12 12 12H5.33333C4.44928 12 3.60143 12.3512 2.97631 12.9763C2.35119 13.6014 2 14.4493 2 15.3333V17" stroke="white" stroke-width="2.08333" stroke-linecap="round" stroke-linejoin="round"/>
<path d="M8.66536 8.66667C10.5063 8.66667 11.9987 7.17428 11.9987 5.33333C11.9987 3.49238 10.5063 2 8.66536 2C6.82442 2 5.33203 3.49238 5.33203 5.33333C5.33203 7.17428 6.82442 8.66667 8.66536 8.66667Z" stroke="white" stroke-width="2.08333" stroke-linecap="round" stroke-linejoin="round"/>
<path d="M20.332 17.0001V15.3334C20.3315 14.5948 20.0857 13.8774 19.6332 13.2937C19.1807 12.7099 18.5471 12.293 17.832 12.1084" stroke="white" stroke-width="2.08333" stroke-linecap="round" stroke-linejoin="round"/>
<path d="M14.5 2.1084C15.217 2.29198 15.8525 2.70898 16.3064 3.29366C16.7602 3.87833 17.0065 4.59742 17.0065 5.33756C17.0065 6.07771 16.7602 6.7968 16.3064 7.38147C15.8525 7.96615 15.217 8.38315 14.5 8.56673" stroke="white" stroke-width="2.08333" stroke-linecap="round" stroke-linejoin="round"/>
</svg>
