<svg width="21" height="20" viewBox="0 0 21 20" fill="none" xmlns="http://www.w3.org/2000/svg">
<path d="M0.25 2.00024C0.25 0.895675 1.14543 0.000244141 2.25 0.000244141H18.25C19.3546 0.000244141 20.25 0.895675 20.25 2.00024V18.0002C20.25 19.1048 19.3546 20.0002 18.25 20.0002H2.25C1.14543 20.0002 0.25 19.1048 0.25 18.0002V2.00024Z" fill="#E2E8F0"/>
<path d="M2.25 2.00024H18.25V-1.99976H2.25V2.00024ZM18.25 2.00024V18.0002H22.25V2.00024H18.25ZM18.25 18.0002H2.25V22.0002H18.25V18.0002ZM2.25 18.0002V2.00024H-1.75V18.0002H2.25ZM2.25 18.0002H2.25H-1.75C-1.75 20.2094 0.0408621 22.0002 2.25 22.0002V18.0002ZM18.25 18.0002V22.0002C20.4591 22.0002 22.25 20.2094 22.25 18.0002H18.25ZM18.25 2.00024H22.25C22.25 -0.208895 20.4591 -1.99976 18.25 -1.99976V2.00024ZM2.25 -1.99976C0.0408605 -1.99976 -1.75 -0.208894 -1.75 2.00024H2.25V2.00024V-1.99976Z" fill="#E2E8F0"/>
</svg>
