<svg width="18" height="19" viewBox="0 0 18 19" fill="none" xmlns="http://www.w3.org/2000/svg">
<path d="M6.53251 6.62984L8.25001 4.90484V12.0973C8.25001 12.2963 8.32903 12.487 8.46968 12.6277C8.61033 12.7683 8.8011 12.8473 9.00001 12.8473C9.19892 12.8473 9.38969 12.7683 9.53034 12.6277C9.67099 12.487 9.75001 12.2963 9.75001 12.0973V4.90484L11.4675 6.62984C11.5372 6.70013 11.6202 6.75593 11.7116 6.794C11.803 6.83208 11.901 6.85169 12 6.85169C12.099 6.85169 12.1971 6.83208 12.2884 6.794C12.3798 6.75593 12.4628 6.70013 12.5325 6.62984C12.6028 6.56011 12.6586 6.47716 12.6967 6.38577C12.7348 6.29437 12.7544 6.19634 12.7544 6.09734C12.7544 5.99833 12.7348 5.9003 12.6967 5.8089C12.6586 5.71751 12.6028 5.63456 12.5325 5.56484L9.53251 2.56483C9.46118 2.49655 9.37707 2.44303 9.28501 2.40733C9.10241 2.33232 8.89761 2.33232 8.71501 2.40733C8.62295 2.44303 8.53884 2.49655 8.46751 2.56483L5.46751 5.56484C5.39758 5.63476 5.34211 5.71778 5.30426 5.80915C5.26642 5.90052 5.24694 5.99844 5.24694 6.09734C5.24694 6.19623 5.26642 6.29416 5.30426 6.38552C5.34211 6.47689 5.39758 6.55991 5.46751 6.62984C5.53744 6.69976 5.62045 6.75524 5.71182 6.79308C5.80319 6.83093 5.90111 6.8504 6.00001 6.8504C6.0989 6.8504 6.19683 6.83093 6.28819 6.79308C6.37956 6.75524 6.46258 6.69976 6.53251 6.62984ZM15.75 9.84734C15.5511 9.84734 15.3603 9.92635 15.2197 10.067C15.079 10.2077 15 10.3984 15 10.5973V15.0973C15 15.2963 14.921 15.487 14.7803 15.6277C14.6397 15.7683 14.4489 15.8473 14.25 15.8473H3.75C3.55109 15.8473 3.36032 15.7683 3.21967 15.6277C3.07902 15.487 3 15.2963 3 15.0973V10.5973C3 10.3984 2.92098 10.2077 2.78033 10.067C2.63968 9.92635 2.44891 9.84734 2.25 9.84734C2.05109 9.84734 1.86032 9.92635 1.71967 10.067C1.57902 10.2077 1.5 10.3984 1.5 10.5973V15.0973C1.5 15.6941 1.73705 16.2664 2.15901 16.6883C2.58097 17.1103 3.15327 17.3473 3.75 17.3473H14.25C14.8468 17.3473 15.4191 17.1103 15.841 16.6883C16.263 16.2664 16.5 15.6941 16.5 15.0973V10.5973C16.5 10.4988 16.4806 10.4013 16.4429 10.3103C16.4052 10.2193 16.35 10.1367 16.2804 10.067C16.2107 9.99736 16.128 9.94212 16.037 9.90443C15.946 9.86674 15.8485 9.84734 15.75 9.84734Z" fill="#61A533"/>
</svg>
