<svg width="21" height="20" viewBox="0 0 21 20" fill="none" xmlns="http://www.w3.org/2000/svg">
<path d="M0.25 2C0.25 0.895431 1.14543 0 2.25 0H18.25C19.3546 0 20.25 0.895431 20.25 2V18C20.25 19.1046 19.3546 20 18.25 20H2.25C1.14543 20 0.25 19.1046 0.25 18V2Z" fill="#E2E8F0"/>
<path d="M8.91674 12.1146L15.0447 5.98596L15.9881 6.92863L8.91674 14L4.67407 9.7573L5.61674 8.81463L8.91674 12.1146Z" fill="#718096"/>
<path d="M2.25 2H18.25V-2H2.25V2ZM18.25 2V18H22.25V2H18.25ZM18.25 18H2.25V22H18.25V18ZM2.25 18V2H-1.75V18H2.25ZM2.25 18H2.25H-1.75C-1.75 20.2091 0.0408621 22 2.25 22V18ZM18.25 18V22C20.4591 22 22.25 20.2091 22.25 18H18.25ZM18.25 2H22.25C22.25 -0.20914 20.4591 -2 18.25 -2V2ZM2.25 -2C0.0408605 -2 -1.75 -0.209138 -1.75 2H2.25V2V-2Z" fill="#E2E8F0"/>
</svg>
