<svg width="153" height="61" viewBox="0 0 153 61" fill="none" xmlns="http://www.w3.org/2000/svg">
<path d="M57.375 30.5033C57.375 47.3495 44.5291 61 28.6844 61C12.8459 60.9935 0 47.343 0 30.4967C0 13.6505 12.8459 0 28.6906 0C36.2977 0 43.5989 3.21533 48.9784 8.9351C54.3517 14.6483 57.375 22.4095 57.375 30.5033ZM17.2523 23.6552H22.491C22.6501 23.6487 22.7786 23.5117 22.7848 23.3421C23.2254 20.2377 25.7346 17.9419 28.6844 17.9419C31.6343 17.9419 34.1435 20.2377 34.5841 23.3421C34.5964 23.5182 34.731 23.6487 34.8962 23.6552H40.1105C40.2696 23.6552 40.4042 23.5182 40.4042 23.3421C39.9391 16.8267 34.8289 11.7917 28.6844 11.7917C22.54 11.7917 17.4298 16.8267 16.9646 23.3421C16.9585 23.5182 17.087 23.6552 17.2523 23.6552ZM34.3087 35.2382C37.7971 33.2099 40.0799 29.4402 40.3798 25.2205C40.3798 25.0509 40.2512 24.9074 40.086 24.9074C40.086 24.9074 40.086 24.9074 40.0799 24.9074H34.8656C34.7065 24.9139 34.578 25.0509 34.5719 25.2205C34.1374 28.3249 31.6282 30.6272 28.6722 30.6272C25.7162 30.6272 23.2132 28.3314 22.7786 25.2205C22.7725 25.0509 22.644 24.9139 22.4849 24.9074H17.2462C17.087 24.9074 16.9585 25.0444 16.9524 25.2205C17.2523 29.4402 19.535 33.2099 23.0234 35.2382C19.3514 37.3709 17.0197 41.4276 16.9157 45.8821C16.9157 46.0516 17.0442 46.1951 17.2033 46.1951H17.2094H22.4176C22.5767 46.1951 22.7113 46.0582 22.7113 45.8821C22.8398 42.4776 25.4714 39.784 28.6722 39.7906C31.873 39.784 34.5046 42.4776 34.6331 45.8821C34.6331 46.0516 34.7677 46.1951 34.9268 46.1951H40.1288C40.2941 46.1951 40.4226 46.0516 40.4226 45.8821C40.3186 41.4276 37.9868 37.3644 34.3087 35.2382ZM77.467 16.5071C82.4731 16.5202 84.811 20.2638 84.811 23.4334V34.1751C84.811 37.3579 82.4854 41.1276 77.467 41.108C72.4486 41.0884 70.123 37.3513 70.123 34.1751V23.44C70.123 20.2638 72.4486 16.5202 77.467 16.5071ZM80.2699 33.8034V23.8052C80.2699 21.9725 78.5012 21.3529 77.4608 21.3529C76.4204 21.3529 74.6518 21.9725 74.6518 23.8052V33.8034C74.6518 35.6361 76.4204 36.2556 77.4608 36.2556C78.5012 36.2556 80.2699 35.6361 80.2699 33.8034ZM109.646 40.658H105.123V16.9441H117.535V21.7638H109.683V26.5183H116.427V31.312H109.652L109.646 40.658ZM129.175 40.658L128.159 36.4578H122.253L121.219 40.658H116.672L122.498 16.9376H127.786L133.698 40.658H129.175ZM125.215 24.3465L123.367 31.8077H127.027L125.215 24.3465ZM97.0326 28.788L102.84 40.6645H97.5406L94.4071 33.7773L91.2737 40.6645H85.9738L91.7816 28.788L86.0044 16.9441H91.2431L94.4071 23.8508L97.565 16.9441H102.804L97.0326 28.788ZM148.288 16.9441H153V40.6645H148.563V27.1901L145.717 33.4773H142.89L140.044 27.1705V40.6645H135.607V16.9441H140.252L144.297 26.0683L148.288 16.9441Z" fill="white" fill-opacity="0.92"/>
</svg>
