<svg width="24" height="24" viewBox="0 0 24 24" fill="none" xmlns="http://www.w3.org/2000/svg">
<path fill-rule="evenodd" clip-rule="evenodd" d="M0 11.999C0 5.36955 5.3724 0 12 0C18.6276 0 24 5.36955 24 11.999C24 18.6284 18.6276 23.998 12 23.998C5.3724 23.998 0 18.6284 0 11.999Z" fill="url(#paint0_linear)"/>
<path d="M15.4071 9.82941C15.8126 9.82941 16.1413 9.50069 16.1413 9.09519C16.1413 8.68969 15.8126 8.36096 15.4071 8.36096C15.0016 8.36096 14.6729 8.68969 14.6729 9.09519C14.6729 9.50069 15.0016 9.82941 15.4071 9.82941Z" fill="white"/>
<path fill-rule="evenodd" clip-rule="evenodd" d="M9.17773 12.2372C9.17773 13.9244 10.5498 15.2965 12.237 15.2965C13.9242 15.2965 15.2963 13.9244 15.2963 12.2372C15.2963 10.5501 13.9242 9.17798 12.237 9.17798C10.5498 9.17798 9.17773 10.5501 9.17773 12.2372ZM10.7075 12.2371C10.7075 11.3935 11.3935 10.7075 12.2371 10.7075C13.0807 10.7075 13.7668 11.3935 13.7668 12.2371C13.7668 13.0807 13.0807 13.7668 12.2371 13.7668C11.3935 13.7668 10.7075 13.0807 10.7075 12.2371Z" fill="white"/>
<path fill-rule="evenodd" clip-rule="evenodd" d="M9.17768 18.3556H15.2962C16.8687 18.3556 18.3555 16.8688 18.3555 15.2963V9.1778C18.3555 7.60534 16.8687 6.11853 15.2962 6.11853H9.17768C7.60521 6.11853 6.11841 7.60534 6.11841 9.1778V15.2963C6.11841 16.8688 7.60521 18.3556 9.17768 18.3556ZM7.64817 9.17768C7.64817 8.46258 8.4627 7.64804 9.1778 7.64804H15.2963C16.0114 7.64804 16.826 8.46258 16.826 9.17768V15.2962C16.826 16.0113 16.0114 16.8259 15.2963 16.8259H9.1778C8.44893 16.8259 7.64817 16.0251 7.64817 15.2962V9.17768Z" fill="white"/>
<defs>
<linearGradient id="paint0_linear" x1="0" y1="23.998" x2="24" y2="23.998" gradientUnits="userSpaceOnUse">
<stop stop-color="#ED0017"/>
<stop offset="1" stop-color="#C0009F"/>
</linearGradient>
</defs>
</svg>
