<svg width="24" height="24" viewBox="0 0 24 24" fill="none" xmlns="http://www.w3.org/2000/svg">
<path fill-rule="evenodd" clip-rule="evenodd" d="M0 11.999C0 5.36955 5.3724 0 12 0C18.6276 0 24 5.36955 24 11.999C24 18.6284 18.6276 23.998 12 23.998C5.3724 23.998 0 18.6284 0 11.999Z" fill="#FF0000"/>
<path fill-rule="evenodd" clip-rule="evenodd" d="M18.1329 9.03508C17.9859 8.47112 17.5521 8.02716 17.0013 7.87117C16.0029 7.6012 12.0003 7.6012 12.0003 7.6012C12.0003 7.6012 7.9977 7.6012 6.9993 7.87117C6.4485 8.02716 6.0153 8.47112 5.8677 9.03508C5.6001 10.061 5.6001 12.1968 5.6001 12.1968C5.6001 12.1968 5.6001 14.3386 5.8677 15.3645C6.0153 15.9285 6.4485 16.3725 6.9993 16.5225C7.9977 16.7984 12.0003 16.7984 12.0003 16.7984C12.0003 16.7984 16.0029 16.7984 17.0013 16.5225C17.5521 16.3725 17.9859 15.9285 18.1329 15.3645C18.4005 14.3386 18.4005 12.1968 18.4005 12.1968C18.4005 12.1968 18.4005 10.061 18.1329 9.03508Z" fill="white"/>
<path fill-rule="evenodd" clip-rule="evenodd" d="M10.8 14.399V10.3973L13.9998 12.4012L10.8 14.399Z" fill="#FF0000"/>
</svg>
