<svg width="220" height="206" viewBox="0 0 220 206" fill="none" xmlns="http://www.w3.org/2000/svg">
<path d="M203.997 131.558V124.497H162.849L166.47 85.994L159.44 85.332L155.757 124.497H113.531V85.6634H106.47V124.497H64.2442L60.5618 85.332L53.5321 85.994L57.1524 124.497H16.0049V131.558H57.8158L60.8034 163.331H23.3585V170.392H61.4668L64.485 202.496L71.5147 201.835L68.5586 170.392H106.47V202.166H113.531V170.392H151.442L148.486 201.835L155.517 202.496L158.535 170.391H196.643V163.33H159.198L162.186 131.557L203.997 131.558ZM67.8951 163.33L64.9076 131.557H106.47V163.33H67.8951ZM152.106 163.33H113.531V131.557H155.093L152.106 163.33Z" fill="#FEBF32"/>
<path d="M182.36 205.696H37.6426C30.8164 205.696 24.9692 200.819 23.7493 194.101L4.14941 86.2931L11.0931 85.0312L30.6922 192.838C31.3063 196.195 34.2295 198.634 37.6426 198.634H182.36C185.773 198.634 188.697 196.195 189.311 192.835L208.911 85.0312L215.853 86.2931L196.253 194.099C195.033 200.819 189.187 205.696 182.36 205.696Z" fill="#FEBF32"/>
<path d="M212.38 89.193H7.61995C3.72062 89.193 0.55957 86.032 0.55957 82.1334C0.55957 78.2333 3.72062 75.0723 7.61995 75.0723H212.38C216.281 75.0723 219.441 78.2341 219.441 82.1334C219.441 86.032 216.281 89.193 212.38 89.193Z" fill="#EC4055"/>
<path d="M113.812 1.72778C110.351 3.52298 108.999 7.78509 110.794 11.2468L148.265 83.4969C150.06 86.9579 154.322 88.3088 157.784 86.5143C161.246 84.7184 162.597 80.457 160.801 76.9953L123.33 4.74521C121.534 1.28347 117.274 -0.0674189 113.812 1.72778Z" fill="#FBE65F"/>
<path d="M117.855 9.36274L155.326 81.6128C156.247 83.3886 157.82 84.5973 159.598 85.1224C159.077 85.6625 158.487 86.1502 157.784 86.5145C154.322 88.3097 150.061 86.9588 148.265 83.4978L110.794 11.2477C108.999 7.78595 110.349 3.52385 113.812 1.72865C115.498 0.854238 117.37 0.738299 119.057 1.23647C117.017 3.35779 116.425 6.60412 117.855 9.36274Z" fill="#FDD144"/>
<path d="M62.2173 86.5139C58.7563 84.7187 57.404 80.4566 59.1992 76.9948L96.6702 4.74474C98.4654 1.28375 102.727 -0.0671425 106.189 1.72731C109.651 3.52326 111.002 7.78461 109.206 11.2464L71.7364 83.4964C69.9404 86.9582 65.6791 88.3091 62.2173 86.5139Z" fill="#FBE65F"/>
<path d="M66.2603 78.8795L103.731 6.62945C104.652 4.85369 106.225 3.64492 108.003 3.11983C107.483 2.57977 106.892 2.09283 106.189 1.7278C102.727 -0.0673977 98.4655 1.28349 96.6703 4.74449L59.2 76.9946C57.404 80.4563 58.7549 84.7184 62.2166 86.5136C63.9026 87.388 65.7749 87.5039 67.4631 87.0058C65.4218 84.8845 64.8294 81.6381 66.2603 78.8795Z" fill="#FDD144"/>
</svg>
