<svg width="16" height="16" viewBox="0 0 16 16" fill="none" xmlns="http://www.w3.org/2000/svg">
<path fill-rule="evenodd" clip-rule="evenodd" d="M15.4571 0.542893C15.8476 0.933417 15.8476 1.56658 15.4571 1.95711L1.95711 15.4571C1.56658 15.8476 0.933417 15.8476 0.542893 15.4571C0.152369 15.0666 0.152369 14.4334 0.542893 14.0429L14.0429 0.542893C14.4334 0.152369 15.0666 0.152369 15.4571 0.542893Z" fill="black"/>
<path fill-rule="evenodd" clip-rule="evenodd" d="M0.542893 0.542893C0.933417 0.152369 1.56658 0.152369 1.95711 0.542893L15.4571 14.0429C15.8476 14.4334 15.8476 15.0666 15.4571 15.4571C15.0666 15.8476 14.4334 15.8476 14.0429 15.4571L0.542893 1.95711C0.152369 1.56658 0.152369 0.933417 0.542893 0.542893Z" fill="black"/>
</svg>
