<svg width="12" height="14" viewBox="0 0 12 14" fill="none" xmlns="http://www.w3.org/2000/svg">
<path fill-rule="evenodd" clip-rule="evenodd" d="M5.99992 0.833252C6.36811 0.833252 6.66659 1.13173 6.66659 1.49992V12.4999C6.66659 12.8681 6.36811 13.1666 5.99992 13.1666C5.63173 13.1666 5.33325 12.8681 5.33325 12.4999V1.49992C5.33325 1.13173 5.63173 0.833252 5.99992 0.833252Z" fill="#2154FF"/>
<path fill-rule="evenodd" clip-rule="evenodd" d="M1.02851 7.52851C1.28886 7.26816 1.71097 7.26816 1.97132 7.52851L5.99992 11.5571L10.0285 7.52851C10.2889 7.26816 10.711 7.26816 10.9713 7.52851C11.2317 7.78886 11.2317 8.21097 10.9713 8.47132L6.47132 12.9713C6.21097 13.2317 5.78886 13.2317 5.52851 12.9713L1.02851 8.47132C0.768165 8.21097 0.768165 7.78886 1.02851 7.52851Z" fill="#2154FF"/>
</svg>
