<svg width="431" height="123" viewBox="0 0 431 123" fill="none" xmlns="http://www.w3.org/2000/svg">
<path d="M315.739 103.678L348 112L343.344 11L303 21.331L315.739 103.678Z" fill="url(#paint0_linear)"/>
<path d="M431 102.576L9.90672 110L0 23.2013L418.948 21L431 102.576Z" fill="url(#paint1_linear)"/>
<path d="M137.959 57.1981C137.901 56.9634 137.783 56.7459 137.615 56.5647C137.447 56.3837 137.235 56.2447 136.997 56.1599L125.864 52.198L128.697 38.7543C128.763 38.4414 128.72 38.1166 128.574 37.8292C128.427 37.5418 128.187 37.3075 127.887 37.1618C127.588 37.0161 127.247 36.967 126.916 37.0219C126.585 37.0767 126.281 37.2326 126.052 37.4659L104.416 59.4659C104.242 59.6422 104.117 59.8563 104.052 60.0893C103.987 60.3223 103.983 60.567 104.041 60.8018C104.099 61.0365 104.217 61.2541 104.385 61.4351C104.553 61.6162 104.765 61.7552 105.003 61.8399L116.136 65.802L113.303 79.2456C113.237 79.5585 113.28 79.8833 113.426 80.1708C113.572 80.4581 113.813 80.6925 114.113 80.8382C114.412 80.9839 114.753 81.033 115.084 80.9781C115.415 80.9232 115.719 80.7673 115.948 80.534L137.584 58.5341C137.758 58.3577 137.883 58.1436 137.948 57.9106C138.013 57.6775 138.017 57.4329 137.959 57.1981Z" fill="#FFC737"/>
<path d="M10 12L90 10.7399L18.8138 0L10 12Z" fill="#FFC737"/>
<path d="M290 114L244 114.316L271.012 123L290 114Z" fill="#FFC737"/>
<path d="M10 106.901L430.755 100L431 101.581L10.2014 109L10 106.901Z" fill="url(#paint2_linear)"/>
<path d="M421.5 3.5L396.062 109.198L331.5 111.5L335.299 11.1604L421.5 3.5Z" fill="#FFC737"/>
<path d="M228.511 107.841L216 3L422 14.6244L421.446 114L228.511 107.841Z" fill="#2154FF"/>
<path fill-rule="evenodd" clip-rule="evenodd" d="M143.411 59.2364C143.668 59.5163 143.849 59.8525 143.937 60.2152C144.026 60.578 144.02 60.9561 143.92 61.3163C143.82 61.6764 143.629 62.0073 143.364 62.2799L141.506 64.1894C141.746 64.5889 142.022 64.9611 142.332 65.3059C143.719 66.8486 145.348 67.9579 147.22 68.6339C149.092 69.3099 151.432 69.9426 154.24 70.5319C156.424 70.9826 157.993 71.3986 158.946 71.7799C159.899 72.1613 160.376 72.7333 160.376 73.4959C160.376 74.1546 160.012 74.6486 159.284 74.9779C158.556 75.3073 157.343 75.4719 155.644 75.4719C153.668 75.4719 151.605 75.1686 149.456 74.5619C147.307 73.9553 145.365 73.1493 143.632 72.1439L139.68 81.0879C141.517 82.2319 143.866 83.1419 146.726 83.8179C149.586 84.4939 152.524 84.8319 155.54 84.8319C159.18 84.8319 162.274 84.2859 164.822 83.1939C167.37 82.1019 169.285 80.6286 170.568 78.7739C171.851 76.9193 172.492 74.8479 172.492 72.5599C172.492 69.9253 171.79 67.8453 170.386 66.3199C168.982 64.7946 167.327 63.6939 165.42 63.0179C163.513 62.3419 161.173 61.7439 158.4 61.2239C156.251 60.8079 154.708 60.4179 153.772 60.0539C152.836 59.6899 152.368 59.1439 152.368 58.4159C152.368 56.8906 153.945 56.1279 157.1 56.1279C160.289 56.1279 163.669 57.0293 167.24 58.8319L170.932 49.9399C169.095 48.8999 166.971 48.1113 164.562 47.5739C162.153 47.0366 159.7 46.7679 157.204 46.7679C153.564 46.7679 150.47 47.3053 147.922 48.3799C145.374 49.4546 143.459 50.9279 142.176 52.7999C141.122 54.3383 140.501 56.0172 140.313 57.8365L142.466 58.6108C142.83 58.7417 143.155 58.9566 143.411 59.2364ZM134.485 71.4029L125.864 80.2613L127.304 83.9999H139.992L134.485 71.4029ZM108.373 83.9999L110.561 73.5122L102.03 70.4442L96.1559 83.881V74.4839H79.7239V47.5999L67.4519 47.5999V83.9999L96.1039 83.9999L96.1559 83.881V83.9999L108.373 83.9999ZM126.362 52.8194L125.69 51.2837L125.439 52.4877L126.362 52.8194ZM46.2359 72.3519V83.9999H33.9639L33.9639 47.5999L63.5519 47.5999V56.8559L46.2359 56.8559V63.0959L61.4199 63.0959L61.4199 72.3519H46.2359ZM188.404 70.5839V83.9999H176.132V47.5999H188.404V60.4959L199.74 60.4959V47.5999H212.012V83.9999H199.74V70.5839H188.404ZM262.712 84.8319C266.352 84.8319 269.446 84.2859 271.994 83.1939C274.542 82.1019 276.457 80.6286 277.74 78.7739C279.023 76.9193 279.664 74.8479 279.664 72.5599C279.664 69.9253 278.962 67.8453 277.558 66.3199C276.154 64.7946 274.499 63.6939 272.592 63.0179C270.685 62.3419 268.345 61.7439 265.572 61.2239C263.423 60.8079 261.88 60.4179 260.944 60.0539C260.008 59.6899 259.54 59.1439 259.54 58.4159C259.54 56.8906 261.117 56.1279 264.272 56.1279C267.461 56.1279 270.841 57.0293 274.412 58.8319L278.104 49.9399C276.267 48.8999 274.143 48.1113 271.734 47.5739C269.325 47.0366 266.872 46.7679 264.376 46.7679C260.736 46.7679 257.642 47.3053 255.094 48.3799C252.546 49.4546 250.631 50.9279 249.348 52.7999C248.065 54.6719 247.424 56.7519 247.424 59.0399C247.424 61.6746 248.117 63.7633 249.504 65.3059C250.891 66.8486 252.52 67.9579 254.392 68.6339C256.264 69.3099 258.604 69.9426 261.412 70.5319C263.596 70.9826 265.165 71.3986 266.118 71.7799C267.071 72.1613 267.548 72.7333 267.548 73.4959C267.548 74.1546 267.184 74.6486 266.456 74.9779C265.728 75.3073 264.515 75.4719 262.816 75.4719C260.84 75.4719 258.777 75.1686 256.628 74.5619C254.479 73.9553 252.537 73.1493 250.804 72.1439L246.852 81.0879C248.689 82.2319 251.038 83.1419 253.898 83.8179C256.758 84.4939 259.696 84.8319 262.712 84.8319ZM294.276 77.6559L291.832 83.9999H279.352L295.264 47.5999H307.328L323.24 83.9999H310.552L308.108 77.6559L294.276 77.6559ZM304.728 68.8159L297.656 68.8159L301.192 59.6639L304.728 68.8159ZM353.92 74.4839V83.9999L325.216 83.9999V47.5999H337.488V74.4839L353.92 74.4839ZM387.564 83.9999V74.7439H369.364V69.9599H384.756V61.1199H369.364V56.8559H386.888V47.5999L357.3 47.5999V83.9999H387.564Z" fill="white"/>
<defs>
<linearGradient id="paint0_linear" x1="423.183" y1="118.699" x2="270.376" y2="37.1262" gradientUnits="userSpaceOnUse">
<stop stop-color="#FDDA25"/>
<stop offset="1" stop-color="#FD2F31"/>
</linearGradient>
<linearGradient id="paint1_linear" x1="741.174" y1="55.8074" x2="703.908" y2="-157.486" gradientUnits="userSpaceOnUse">
<stop stop-color="#FD6525"/>
<stop offset="1" stop-color="#FD2F31"/>
</linearGradient>
<linearGradient id="paint2_linear" x1="431" y1="100" x2="10" y2="100" gradientUnits="userSpaceOnUse">
<stop stop-color="#FD6525"/>
<stop offset="1" stop-color="#FD2F31"/>
</linearGradient>
</defs>
</svg>
