<svg width="68" height="68" viewBox="0 0 68 68" fill="none" xmlns="http://www.w3.org/2000/svg">
<path d="M6.11426 39.5556H8.33648V41.7778H6.11426V39.5556Z" fill="white"/>
<path d="M0.55957 44H2.78179V46.2222H0.55957V44Z" fill="white"/>
<path d="M5.00488 11.7778H18.3382V14H5.00488V11.7778Z" fill="white"/>
<path d="M0.55957 11.7778H2.78179V14H0.55957V11.7778Z" fill="white"/>
<path d="M7.22656 16.2223H9.44879V18.4445H7.22656V16.2223Z" fill="white"/>
<path d="M60.1527 27.5423C63.3271 31.6567 65.0049 36.579 65.0049 41.7779C65.0049 54.6434 54.5382 65.1112 41.6716 65.1112C30.0582 65.1112 20.1204 56.4479 18.5527 44.9612C18.4782 44.4101 18.0082 44.0001 17.4527 44.0001H5.00488V46.2223H16.5015C18.626 58.3245 29.2782 67.3334 41.6716 67.3334C55.7627 67.3334 67.2271 55.8701 67.2271 41.7779C67.2271 36.0834 65.3893 30.6901 61.9116 26.1834L60.1527 27.5423Z" fill="white"/>
<path d="M21.6707 41.7778C21.6707 52.8056 30.6429 61.7778 41.6707 61.7778C52.6985 61.7778 61.6707 52.8056 61.6707 41.7778C61.6707 33.5067 56.6229 26.3911 49.4462 23.3511L53.5674 19.23C53.7762 19.0222 53.8929 18.74 53.8929 18.4445V1.7778H53.8829C53.8829 1.63446 53.8662 1.49002 53.8085 1.35224C53.6362 0.936687 53.2307 0.666687 52.7818 0.666687H30.5596C30.2651 0.666687 29.9818 0.783354 29.774 0.992243L25.3307 5.43558C25.1285 5.63669 25.004 5.91446 25.004 6.22224V16.2222H11.6707V18.4445H25.004V22.4156C19.9496 26.77 16.7862 32.9367 16.2107 39.5556H10.5596V41.7778H17.2507C17.8451 41.7778 18.334 41.31 18.3607 40.7167C18.6496 34.26 21.6385 28.1922 26.5685 24H32.5496C26.1007 27.3234 21.6707 34.0367 21.6707 41.7778ZM49.4485 20.2067V6.68224L51.6707 4.46002V17.9845L49.4485 20.2067ZM47.8774 5.11113H39.9085L42.1307 2.88891H50.0996L47.8774 5.11113ZM31.0196 2.88891H38.9885L36.7662 5.11113H28.7974L31.0196 2.88891ZM27.2262 21.7778V7.33335H36.1151V12.8889H38.3374V7.33335H47.2262V21.7778H27.2262ZM31.8418 26.9767L34.0351 30.7745L35.9596 29.6634L33.7718 25.8734C35.8407 24.8411 38.1329 24.2067 40.5596 24.0556V28.4445H42.7818V24.0567C45.2085 24.2078 47.5007 24.8434 49.5696 25.8745L47.3762 29.6722L49.3007 30.7834L51.4985 26.9767C53.4674 28.2889 55.1596 29.98 56.4707 31.9489L52.6629 34.1467L53.774 36.0711L57.5729 33.8778C58.604 35.9467 59.2396 38.2389 59.3907 40.6656H55.004V42.8878H59.3918C59.2407 45.3145 58.6051 47.6067 57.574 49.6756L53.7751 47.4822L52.664 49.4067L56.4718 51.6045C55.1596 53.5734 53.4685 55.2656 51.4996 56.5767L49.3018 52.77L47.3774 53.8811L49.5707 57.6789C47.5018 58.71 45.2107 59.3456 42.784 59.4967V55.1111H40.5618V59.4989C38.1351 59.3478 35.8429 58.7122 33.774 57.6811L35.9618 53.8911L34.0374 52.78L31.844 56.5778C29.8751 55.2667 28.1829 53.5745 26.8718 51.6056L30.6796 49.4078L29.5685 47.4833L25.7696 49.6767C24.7385 47.6078 24.1029 45.3156 23.9518 42.8889H28.3374V40.6667H23.9496C24.1007 38.24 24.7362 35.9478 25.7674 33.8789L29.5662 36.0722L30.6774 34.1478L26.8696 31.95C28.1818 29.9811 29.874 28.2889 31.8418 26.9767Z" fill="white"/>
<path d="M41.67 46.2223C44.1211 46.2223 46.1145 44.2289 46.1145 41.7778C46.1145 40.9556 45.8756 40.1956 45.4845 39.5345L50.2334 34.7856L48.6622 33.2145L43.9145 37.9634C43.2523 37.5723 42.4923 37.3334 41.67 37.3334C39.2189 37.3334 37.2256 39.3267 37.2256 41.7778C37.2256 44.2289 39.2189 46.2223 41.67 46.2223ZM41.67 39.5556C42.8956 39.5556 43.8923 40.5523 43.8923 41.7778C43.8923 43.0034 42.8956 44 41.67 44C40.4445 44 39.4478 43.0034 39.4478 41.7778C39.4478 40.5523 40.4445 39.5556 41.67 39.5556Z" fill="white"/>
<path d="M56.4316 23.6782L58.003 22.1068L60.2249 24.3287L58.6535 25.9L56.4316 23.6782Z" fill="white"/>
</svg>
