<svg width="76" height="76" viewBox="0 0 76 76" fill="none" xmlns="http://www.w3.org/2000/svg">
<g clip-path="url(#clip0)">
<path d="M37.7756 9.49646C37.675 8.54381 37.3836 7.62118 36.9189 6.78341C36.4381 5.92211 35.7733 5.17748 34.9717 4.60258C33.2712 3.38235 30.8113 2.74628 27.553 3.10326C23.6587 3.53164 19.5826 1.22748 19.1153 0.961371C18.6045 0.585081 17.8851 0.694284 17.509 1.20509C17.3391 1.43567 17.2616 1.72142 17.2914 2.00635C17.9729 8.69813 19.5631 13.2285 21.5557 16.0974C22.6812 17.8536 24.346 19.1974 26.3003 19.9268C27.9676 20.4884 29.7817 20.4284 31.4084 19.758C31.8887 19.5701 32.3513 19.3399 32.7909 19.07C32.7044 18.9187 32.6135 18.7694 32.5183 18.6222C32.1891 18.1234 31.8011 17.6658 31.363 17.2592C31.1123 17.4023 30.852 17.5281 30.5841 17.6356C29.4625 18.1 28.211 18.1438 27.0597 17.759C25.5779 17.1806 24.3217 16.1405 23.4769 14.7928C21.8932 12.5146 20.5886 8.9902 19.8682 3.88213C21.7764 4.70643 24.801 5.69948 27.7737 5.36847C30.4153 5.07639 32.3171 5.53722 33.6152 6.4459C34.149 6.8243 34.5925 7.31645 34.9133 7.8868C35.2278 8.45619 35.4241 9.08318 35.491 9.73012C35.5547 10.3496 35.5263 10.9752 35.4066 11.5864C36.092 12.1266 36.7245 12.7307 37.2953 13.3908C37.7393 12.1436 37.9032 10.814 37.7756 9.49646Z" fill="white"/>
<path d="M48.4657 12.463C47.9497 12.0939 47.232 12.213 46.8629 12.729C46.8538 12.7416 46.845 12.7546 46.8364 12.7676C46.0186 13.9618 44.7919 14.6369 43.5327 15.3249C41.5855 16.4023 39.541 17.5122 38.2364 20.3031C36.6852 14.5979 33.4399 12.8065 30.2984 11.093C28.5525 10.1389 26.852 9.20426 25.6966 7.51022C25.3275 6.99422 24.61 6.87512 24.0938 7.24427C23.5926 7.60287 23.4636 8.29298 23.8014 8.80833C25.2683 10.9567 27.2024 12.0212 29.1951 13.1116C32.4923 14.9095 35.9582 16.8112 36.6852 25.0477C36.789 25.0477 37.6912 25.0477 38.0287 25.0477C38.3662 25.0477 39.223 25.0477 39.3268 25.0802C40.0213 19.8877 42.3774 18.5896 44.6231 17.3824C46.1419 16.5256 47.6088 15.7208 48.7317 14.0657C49.1008 13.5499 48.9817 12.8322 48.4657 12.463Z" fill="white"/>
<path d="M38.0156 27.3001C24.5803 27.2912 13.6816 38.1754 13.6729 51.6107C13.6686 58.061 16.2262 64.2488 20.7834 68.8138C25.3379 73.3882 31.5284 75.9578 37.9834 75.9534C51.4187 75.9623 62.3172 65.078 62.3261 51.6428C62.3349 38.2075 51.4507 27.3089 38.0156 27.3001ZM49.9196 33.1222C54.0852 35.8104 57.2246 39.8229 58.8311 44.5131C57.3672 43.2739 55.797 42.1663 54.1385 41.2029C50.9646 39.2557 48.615 37.8019 49.9196 33.1222ZM20.5043 65.0363C17.55 61.1937 15.9522 56.4802 15.9609 51.6332C15.947 45.7917 18.2618 40.1857 22.3931 36.0559C23.4511 38.9637 25.528 40.7486 27.4298 42.3777C29.1628 43.864 30.714 45.2011 30.7465 47.0639C30.7465 48.4074 29.9416 49.4265 29.02 50.5558C27.7296 51.9472 26.7965 53.631 26.3004 55.4627C26.1159 56.6433 26.0767 57.8423 26.1836 59.0325C26.255 60.9472 26.3458 63.1735 25.7422 64.5689C25.197 65.8671 23.7951 66.3863 20.5043 65.0363ZM37.9834 73.6557V73.6492C37.0853 73.6494 36.188 73.5952 35.2963 73.487C34.6106 71.9489 35.118 70.1406 36.5036 69.1837C37.5161 68.4438 40.3071 69.2746 43.2473 70.1508C44.7661 70.6052 46.3173 71.066 47.7907 71.3516C44.7447 72.8702 41.3871 73.659 37.9834 73.6557ZM51.1593 69.2746C49.3225 69.5926 46.5445 68.7618 43.8769 67.9765C40.3785 66.9315 37.0553 65.9449 35.1211 67.3599C33.2526 68.5955 32.3289 70.8473 32.791 73.0391C29.3208 72.1971 26.1083 70.5218 23.4316 68.1582C25.3568 68.4237 27.2054 67.3059 27.8646 65.4776C28.663 63.6213 28.5656 61.1095 28.5137 58.9546C28.4264 57.9711 28.4438 56.9811 28.5656 56.0014C28.9981 54.5157 29.774 53.1528 30.8308 52.0227C32.0316 50.5558 33.109 49.2317 33.0701 47.0509C33.0182 44.1431 31.1229 42.5075 28.9551 40.6512C27.0988 39.0545 25.0607 37.2891 24.3143 34.3878C28.1984 31.2939 33.0177 29.6096 37.9834 29.6108C41.416 29.6054 44.8018 30.4057 47.8686 31.9474C45.6683 38.6911 48.7448 40.5863 52.9117 43.1695C55.151 44.552 57.7667 46.1552 59.8307 49.05C59.9311 49.9118 59.9809 50.7786 59.98 51.6462C59.9733 58.5819 56.7064 65.1111 51.1593 69.2746Z" fill="white"/>
<path d="M52.5957 7.6425C52.353 7.61832 52.109 7.67203 51.8988 7.796C51.8988 7.796 48.7249 9.68475 45.7717 9.36023C43.2858 9.08762 41.3906 9.57441 40.073 10.522C39.4408 10.9709 38.9156 11.5537 38.5347 12.2291C38.1787 12.8861 37.9579 13.6077 37.8857 14.3515C37.801 15.0724 37.8338 15.8024 37.9831 16.5128C38.6324 15.8122 39.3649 15.1931 40.1639 14.6695V14.6046C40.2083 14.1652 40.3407 13.7391 40.5533 13.3519C40.7712 12.9713 41.0704 12.6433 41.4295 12.3913C42.3058 11.7423 43.6623 11.4437 45.5381 11.6514C47.4239 11.7828 49.3143 11.4669 51.055 10.7297C50.5163 14.1827 49.6012 16.5712 48.5043 18.1614C47.9154 19.1092 47.0369 19.842 45.9989 20.2514C45.3922 20.458 44.7392 20.4873 44.1166 20.3358C43.5171 20.8891 42.9835 21.5098 42.5264 22.1856L42.7731 22.2894C44.0444 22.8127 45.4621 22.859 46.7648 22.4192C48.2704 21.8563 49.5526 20.82 50.419 19.466C51.9183 17.3047 53.1126 13.9036 53.6253 8.8994C53.6881 8.26803 53.2271 7.70529 52.5957 7.6425Z" fill="white"/>
</g>
<defs>
<clipPath id="clip0">
<rect width="75.2159" height="75.2159" fill="white" transform="translate(0.391602 0.737488)"/>
</clipPath>
</defs>
</svg>
