<svg width="72" height="72" viewBox="0 0 72 72" fill="none" xmlns="http://www.w3.org/2000/svg">
<path d="M3.54079 29.3636C2.08598 29.5996 0.960583 30.766 0.776843 32.2284C0.532559 34.4433 0.5301 36.6783 0.769699 38.8939C0.936693 40.3789 2.069 41.5727 3.54313 41.8179L7.31771 42.4359C8.04236 45.5224 9.26566 48.4702 10.9392 51.163L8.71748 54.2662C7.83216 55.4665 7.85359 57.1093 8.76971 58.2863C9.4768 59.1514 10.2292 59.9786 11.0235 60.7644C11.7519 61.494 12.5573 62.2271 13.5241 63.0396C14.6918 63.9375 16.3121 63.9563 17.5004 63.0858L20.6189 60.8486C23.309 62.522 26.2538 63.7456 29.3377 64.4713L29.957 68.2519C30.1924 69.7072 31.359 70.8331 32.8217 71.017C33.4979 71.0929 34.1847 71.1463 34.8763 71.1747H34.9771C35.5953 71.1743 36.1898 70.9364 36.6378 70.5104C37.1035 70.0654 37.3663 69.4488 37.3649 68.8046V59.2981C37.3579 58.0279 36.3552 56.9866 35.0861 56.9316C23.7323 56.3389 14.8303 46.96 14.8303 35.5907C14.8303 24.2215 23.7323 14.8426 35.0861 14.2498C36.3572 14.1941 37.3604 13.1497 37.3649 11.8774V2.37572C37.3668 1.73081 37.1034 1.11366 36.6365 0.668774C36.1704 0.211473 35.5342 -0.029883 34.882 0.00325809C34.1917 0.0305439 33.5072 0.0803142 32.8049 0.151515C31.3429 0.339939 30.1821 1.47283 29.9579 2.92963L29.3399 6.70655C26.2561 7.43285 23.3112 8.65684 20.6211 10.3305L17.5026 8.09801C16.3033 7.221 14.6673 7.24711 13.4967 8.16207C12.6367 8.86611 11.8135 9.61395 11.0306 10.4029C10.2236 11.1917 9.46392 12.0275 8.75543 12.9058C7.85031 14.075 7.82712 15.7017 8.69851 16.8963L10.9345 20.0185C9.26238 22.711 8.04072 25.6585 7.31771 28.7445L3.54079 29.3636ZM9.46369 30.0255C10.1533 26.6751 11.4764 23.4872 13.3617 20.633C13.6319 20.2225 13.621 19.688 13.3344 19.2889L10.6287 15.5109C10.3785 15.1807 10.3713 14.7266 10.6109 14.3886C11.261 13.5828 11.9586 12.8163 12.6998 12.0932C13.4198 11.366 14.1759 10.6754 14.9655 10.0244C15.3053 9.76537 15.7763 9.76537 16.1162 10.0244L19.8884 12.7314C20.288 13.0173 20.8224 13.0271 21.2324 12.7564C24.0842 10.8704 27.2703 9.54685 30.6191 8.85721C31.1005 8.75802 31.4709 8.37204 31.5503 7.88687L32.2964 3.31866C32.35 2.9089 32.6647 2.58218 33.0722 2.5132C33.6997 2.44797 34.3356 2.40172 34.9928 2.3756L34.9667 11.8784C22.3376 12.5235 12.4307 22.955 12.4377 35.6006C12.4446 48.2462 22.363 58.6668 34.9928 59.2979L34.9762 68.8044C34.3391 68.7783 33.7081 68.7285 33.0854 68.6585C32.6759 68.5986 32.3551 68.2759 32.2977 67.866L31.5503 63.2955C31.4709 62.8103 31.1006 62.4244 30.6191 62.3251C27.2703 61.6349 24.0842 60.3111 21.2324 58.4248C20.8222 58.1542 20.2878 58.1647 19.8884 58.4509L16.1126 61.1603C15.7906 61.4106 15.3433 61.4227 15.0082 61.1899C14.1364 60.4556 13.3807 59.7664 12.6998 59.0866C11.9725 58.368 11.2823 57.6126 10.6322 56.8233C10.3763 56.4816 10.3763 56.0121 10.6322 55.6703L13.3356 51.8957C13.6218 51.4964 13.6322 50.9619 13.3617 50.5517C11.4763 47.698 10.1532 44.5104 9.46369 41.1603C9.36461 40.6793 8.97922 40.309 8.49451 40.2291L3.92748 39.4806C3.50238 39.4103 3.176 39.0655 3.12916 38.6372C2.90701 36.5968 2.90935 34.5382 3.1363 32.4984C3.19533 32.0887 3.5176 31.7669 3.92748 31.7084L8.49322 30.9611C8.9798 30.8814 9.36614 30.5089 9.46369 30.0255Z" fill="white"/>
<path d="M68.2064 32.0312C66.7037 32.0374 65.367 32.9869 64.866 34.4037H37.3644V30.8449H56.3441C58.3095 30.8449 59.9028 29.2517 59.9028 27.2863V21.1369C61.5369 20.5592 62.517 18.8883 62.2239 17.18C61.9308 15.4718 60.4496 14.2231 58.7165 14.2231C56.9833 14.2231 55.5021 15.4718 55.209 17.18C54.9159 18.8883 55.8961 20.5592 57.5302 21.1369V27.2863C57.5302 27.9414 56.9991 28.4726 56.3439 28.4726H37.3644V24.9138H50.4129C51.068 24.9138 51.5991 24.3828 51.5991 23.7276C51.5991 23.0724 51.068 22.5413 50.4129 22.5413H37.3644V20.1688H44.4818C46.4472 20.1688 48.0406 18.5756 48.0406 16.6101V9.27463C49.6747 8.69694 50.6549 7.02595 50.3617 5.31772C50.0686 3.60949 48.5875 2.36078 46.8543 2.36078C45.1211 2.36078 43.6399 3.60949 43.3468 5.31772C43.0537 7.02595 44.0339 8.69694 45.668 9.27463V16.6103C45.668 17.2654 45.1369 17.7966 44.4817 17.7966H37.0512C36.6431 17.0381 35.8286 16.5889 34.9694 16.6484C24.9731 17.2816 17.1895 25.5737 17.1895 35.5901C17.1895 45.6064 24.9731 53.8986 34.9694 54.5318H35.1082C35.9185 54.5386 36.6663 54.0967 37.0512 53.3836H44.4817C45.1368 53.3836 45.668 53.9147 45.668 54.5699V61.9056C44.0339 62.4832 43.0537 64.1542 43.3468 65.8625C43.6399 67.5707 45.1211 68.8194 46.8543 68.8194C48.5875 68.8194 50.0686 67.5707 50.3617 65.8625C50.6549 64.1542 49.6747 62.4832 48.0406 61.9056V54.5699C48.0406 52.6045 46.4473 51.0112 44.4818 51.0112H37.3644V48.6387H50.4129C51.068 48.6387 51.5991 48.1076 51.5991 47.4525C51.5991 46.7974 51.068 46.2662 50.4129 46.2662H37.3644V42.7076H56.3441C56.9992 42.7076 57.5304 43.2387 57.5304 43.8938V50.0431C55.8963 50.6208 54.9161 52.2918 55.2092 54.0001C55.5024 55.7083 56.9835 56.957 58.7167 56.957C60.4499 56.957 61.931 55.7083 62.2242 54.0001C62.5173 52.2918 61.5371 50.6208 59.903 50.0431V43.8938C59.903 41.9284 58.3098 40.3351 56.3444 40.3351H37.3644V36.7762H64.866C65.4721 38.4779 67.2588 39.4538 69.0183 39.0442C70.7777 38.6345 71.9497 36.9698 71.742 35.1753C71.5341 33.381 70.0128 32.0281 68.2064 32.0312ZM58.7166 16.6103C59.3717 16.6103 59.9028 17.1414 59.9028 17.7966C59.9028 18.4518 59.3717 18.9829 58.7166 18.9829C58.0615 18.9829 57.5304 18.4518 57.5304 17.7966C57.5304 17.1414 58.0614 16.6103 58.7166 16.6103ZM46.8543 4.74799C47.5094 4.74799 48.0406 5.27907 48.0406 5.93428C48.0406 6.58949 47.5095 7.12046 46.8543 7.12046C46.1991 7.12046 45.6681 6.58938 45.6681 5.93428C45.6681 5.27919 46.1991 4.74799 46.8543 4.74799ZM46.8543 66.432C46.1992 66.432 45.6681 65.9009 45.6681 65.2457C45.6681 64.5905 46.1992 64.0594 46.8543 64.0594C47.5094 64.0594 48.0406 64.5905 48.0406 65.2457C48.0406 65.9009 47.5094 66.432 46.8543 66.432ZM58.7166 54.5697C58.0615 54.5697 57.5304 54.0386 57.5304 53.3834C57.5304 52.7282 58.0615 52.1972 58.7166 52.1972C59.3717 52.1972 59.9028 52.7283 59.9028 53.3834C59.9028 54.0385 59.3717 54.5697 58.7166 54.5697ZM19.5709 35.59C19.5809 26.8823 26.3073 19.6573 34.992 19.0255V52.1546C26.3073 51.5227 19.5809 44.2976 19.5709 35.59ZM68.2064 36.7762C67.5513 36.7762 67.0201 36.2451 67.0201 35.5899C67.0201 34.9347 67.5512 34.4037 68.2064 34.4037C68.8616 34.4037 69.3927 34.9348 69.3927 35.5899C69.3927 36.245 68.8615 36.7762 68.2064 36.7762Z" fill="white"/>
</svg>
