<svg width="28" height="29" viewBox="0 0 28 29" fill="none" xmlns="http://www.w3.org/2000/svg">
<path d="M26.95 6.03516V1.60634C26.95 0.994396 26.4495 0.5 25.83 0.5H2.17002C1.55052 0.5 1.05002 0.994396 1.05002 1.60634V6.03516C0.465521 6.06974 2.16858e-05 6.5503 2.16858e-05 7.13805V11.6913C-0.00221973 12.5282 0.169315 13.3565 0.504021 14.1253C0.654521 14.4779 0.840021 14.8098 1.05002 15.1245V27.0522C1.05002 27.6607 1.55052 28.1585 2.17002 28.1585H25.83C26.4495 28.1585 26.95 27.6641 26.95 27.0522V15.1245C27.1633 14.809 27.3461 14.4745 27.496 14.1253C27.8285 13.3543 28 12.5349 28 11.6913V7.13805C28 6.5503 27.5345 6.06974 26.95 6.03516ZM3.57002 2.98927H24.43V6.03171H3.57002V2.98927ZM16.24 25.6727H11.76V22.0737H16.24V25.6727ZM24.444 25.6727H18.48V20.9673C18.48 20.3554 17.9795 19.861 17.36 19.861H10.64C10.0205 19.861 9.52001 20.3554 9.52001 20.9673V25.6727H3.57002V17.2991C3.67152 17.3475 3.77652 17.3959 3.88502 17.4374C4.66552 17.7624 5.49502 17.9249 6.34902 17.9249C7.20302 17.9249 8.02902 17.7624 8.81301 17.4374C9.29601 17.2369 9.75101 16.981 10.1675 16.6733C10.1745 16.6699 10.1815 16.6699 10.1885 16.6733C10.6063 16.9823 11.0613 17.239 11.543 17.4374C12.3235 17.7624 13.153 17.9249 14.007 17.9249C14.861 17.9249 15.687 17.7624 16.471 17.4374C16.954 17.2369 17.409 16.981 17.8255 16.6733C17.8325 16.6699 17.8395 16.6699 17.8465 16.6733C18.2643 16.9823 18.7193 17.239 19.201 17.4374C19.9815 17.7624 20.811 17.9249 21.665 17.9249C22.519 17.9249 23.345 17.7624 24.129 17.4374C24.234 17.3925 24.339 17.3475 24.444 17.2991V25.6727ZM25.48 11.6913C25.48 13.7588 23.765 15.4356 21.6545 15.4356C20.2265 15.4356 18.9805 14.6715 18.3225 13.5375C18.221 13.3647 18.039 13.2575 17.836 13.2575H17.815C17.6155 13.2575 17.43 13.3647 17.3285 13.5375C16.9927 14.116 16.5079 14.5963 15.9232 14.9297C15.3386 15.2631 14.6751 15.4376 14 15.4356C12.5755 15.4356 11.333 14.675 10.675 13.5445C10.57 13.3681 10.381 13.2575 10.1745 13.2575C9.96801 13.2575 9.77551 13.3681 9.67401 13.5445C9.33627 14.1207 8.8508 14.5989 8.26647 14.9309C7.68215 15.2629 7.0196 15.437 6.34552 15.4356C4.23502 15.4356 2.52002 13.7588 2.52002 11.6913V8.53826C2.52002 8.52789 2.52702 8.52098 2.53752 8.52098H25.4625C25.473 8.52098 25.48 8.52789 25.48 8.53826V11.6913Z" fill="white"/>
</svg>
