<svg width="28" height="24" viewBox="0 0 28 24" fill="none" xmlns="http://www.w3.org/2000/svg">
<path d="M25 5.29167H22V2.41667C22 1.90833 21.7893 1.42082 21.4142 1.06138C21.0391 0.701934 20.5304 0.5 20 0.5H8C7.46957 0.5 6.96086 0.701934 6.58579 1.06138C6.21071 1.42082 6 1.90833 6 2.41667V5.29167H3C2.20435 5.29167 1.44129 5.59457 0.87868 6.13373C0.316071 6.6729 0 7.40417 0 8.16667V21.5833C0 22.0917 0.210714 22.5792 0.585786 22.9386C0.960859 23.2981 1.46957 23.5 2 23.5H26C26.5304 23.5 27.0391 23.2981 27.4142 22.9386C27.7893 22.5792 28 22.0917 28 21.5833V8.16667C28 7.40417 27.6839 6.6729 27.1213 6.13373C26.5587 5.59457 25.7956 5.29167 25 5.29167ZM8 2.41667H20V5.29167H8V2.41667ZM26 21.5833H2V12.9583H10V17.75H18V12.9583H26V21.5833ZM12 12.9583H16V15.8333H12V12.9583ZM2 11.0417V8.16667C2 7.9125 2.10536 7.66875 2.29289 7.48902C2.48043 7.3093 2.73478 7.20833 3 7.20833H25C25.2652 7.20833 25.5196 7.3093 25.7071 7.48902C25.8946 7.66875 26 7.9125 26 8.16667V11.0417H2Z" fill="white" fill-opacity="0.92"/>
</svg>
