<svg width="28" height="23" viewBox="0 0 28 23" fill="none" xmlns="http://www.w3.org/2000/svg">
<path d="M26 0.5H2C1.46973 0.500532 0.961329 0.712484 0.586371 1.08934C0.211413 1.4662 0.000529477 1.97717 0 2.51013V20.6013C0.000529477 21.1342 0.211413 21.6452 0.586371 22.0221C0.961329 22.3989 1.46973 22.6109 2 22.6114H26C26.5302 22.6106 27.0384 22.3986 27.4133 22.0218C27.7882 21.645 27.9992 21.1341 28 20.6013V2.51013C27.9995 1.97717 27.7886 1.4662 27.4136 1.08934C27.0387 0.712484 26.5303 0.500532 26 0.5ZM2 2.51013H13V20.6013H2V2.51013ZM15 20.6013V2.51013H26L26.002 20.6013H15Z" fill="white" fill-opacity="0.92"/>
</svg>
