<svg width="58" height="58" viewBox="0 0 58 58" fill="none" xmlns="http://www.w3.org/2000/svg">
<path d="M27.1559 0.778801L0.264404 25.8144V25.857H57.7354V25.8144L30.8439 0.778801C29.8055 -0.189288 28.1943 -0.189288 27.1559 0.778801Z" fill="#2B6BE9"/>
<path d="M0.264404 25.8574H57.7354V57.5239H0.264404V25.8574Z" fill="#1E4CA8"/>
<path d="M43.4044 14.3323V38.5057C43.4044 40.4095 41.1843 41.9552 38.45 41.9552H18.2916C15.5572 41.9552 13.3372 40.4095 13.3372 38.5057V14.3323C13.3372 12.4285 15.5572 10.8828 18.2916 10.8828H38.45C41.1843 10.8828 43.4044 12.4285 43.4044 14.3323Z" fill="white"/>
<path d="M43.4044 14.3323V38.5057C43.4044 40.4095 41.1843 41.9552 38.45 41.9552H18.2916C15.5572 41.9552 13.3372 40.4095 13.3372 38.5057V14.3323C13.3372 12.4285 15.5572 10.8828 18.2916 10.8828H38.45C41.1843 10.8828 43.4044 12.4285 43.4044 14.3323Z" stroke="#CCCCCC" stroke-width="0.826805"/>
<path d="M0.354576 25.8653L57.341 57.287C57.3083 57.4139 57.3123 57.397 57.2796 57.5238H0.392227C0.321876 57.5238 0.264404 57.4664 0.264404 57.396V25.9188C0.264404 25.8722 0.313949 25.8425 0.354576 25.8653Z" fill="#2B6BE9"/>
<path d="M57.6451 25.8653L28.9998 41.6609L57.3409 57.287C57.3082 57.4129 57.3121 57.398 57.2794 57.5239H57.6074C57.6778 57.5239 57.7353 57.4664 57.7353 57.396V25.9178C57.7353 25.8722 57.6857 25.8425 57.6451 25.8653Z" fill="#6C94E2"/>
<path d="M28.9997 31.2925C25.2747 31.2925 22.2442 28.262 22.2442 24.537C22.2442 20.812 25.2747 17.7815 28.9997 17.7815C32.7247 17.7815 35.7552 20.812 35.7552 24.537C35.7552 28.262 32.7247 31.2925 28.9997 31.2925ZM34.4106 19.126C32.9653 17.6808 31.0437 16.8848 28.9997 16.8848C26.9557 16.8848 25.034 17.6808 23.5887 19.126C22.1434 20.5714 21.3474 22.493 21.3474 24.537C21.3474 26.581 22.1434 28.5027 23.5887 29.948C25.034 31.3933 26.9557 32.1893 28.9997 32.1893C31.0437 32.1893 32.9653 31.3933 34.4106 29.948C35.856 28.5027 36.6519 26.581 36.6519 24.537C36.6519 22.493 35.856 20.5714 34.4106 19.126Z" fill="#54B7A6"/>
<path d="M32.6558 22.0825C32.4807 21.9074 32.1968 21.9074 32.0217 22.0825L28.0623 26.0419L25.9781 23.9576C25.803 23.7826 25.5191 23.7826 25.344 23.9576C25.1689 24.1327 25.1689 24.4166 25.344 24.5917L27.7452 26.993C27.8328 27.0806 27.9475 27.1243 28.0623 27.1243C28.177 27.1243 28.2918 27.0805 28.3793 26.993L32.6558 22.7165C32.8309 22.5415 32.8309 22.2576 32.6558 22.0825Z" fill="#54B7A6"/>
</svg>
