<svg width="68" height="68" viewBox="0 0 68 68" fill="none" xmlns="http://www.w3.org/2000/svg">
<path d="M6.22168 39.5556H8.4439V41.7778H6.22168V39.5556Z" fill="white"/>
<path d="M0.666504 44H2.88873V46.2222H0.666504V44Z" fill="white"/>
<path d="M5.11133 11.7778H18.4447V14H5.11133V11.7778Z" fill="white"/>
<path d="M0.666504 11.7778H2.88873V14H0.666504V11.7778Z" fill="white"/>
<path d="M7.33301 16.2223H9.55523V18.4445H7.33301V16.2223Z" fill="white"/>
<path d="M60.2591 27.5423C63.4336 31.6567 65.1113 36.579 65.1113 41.7779C65.1113 54.6434 54.6447 65.1112 41.778 65.1112C30.1647 65.1112 20.2269 56.4479 18.6591 44.9612C18.5847 44.4101 18.1147 44.0001 17.5591 44.0001H5.11133V46.2223H16.608C18.7324 58.3245 29.3847 67.3334 41.778 67.3334C55.8691 67.3334 67.3336 55.8701 67.3336 41.7779C67.3336 36.0834 65.4958 30.6901 62.018 26.1834L60.2591 27.5423Z" fill="white"/>
<path d="M21.7776 41.7778C21.7776 52.8056 30.7498 61.7778 41.7776 61.7778C52.8054 61.7778 61.7776 52.8056 61.7776 41.7778C61.7776 33.5067 56.7299 26.3911 49.5532 23.3511L53.6743 19.23C53.8832 19.0222 53.9998 18.74 53.9998 18.4445V1.7778H53.9898C53.9898 1.63446 53.9732 1.49002 53.9154 1.35224C53.7432 0.936687 53.3376 0.666687 52.8887 0.666687H30.6665C30.3721 0.666687 30.0887 0.783354 29.881 0.992243L25.4376 5.43558C25.2354 5.63669 25.111 5.91446 25.111 6.22224V16.2222H11.7776V18.4445H25.111V22.4156C20.0565 26.77 16.8932 32.9367 16.3176 39.5556H10.6665V41.7778H17.3576C17.9521 41.7778 18.441 41.31 18.4676 40.7167C18.7565 34.26 21.7454 28.1922 26.6754 24H32.6565C26.2076 27.3234 21.7776 34.0367 21.7776 41.7778ZM49.5554 20.2067V6.68224L51.7776 4.46002V17.9845L49.5554 20.2067ZM47.9843 5.11113H40.0154L42.2376 2.88891H50.2065L47.9843 5.11113ZM31.1265 2.88891H39.0954L36.8732 5.11113H28.9043L31.1265 2.88891ZM27.3332 21.7778V7.33335H36.2221V12.8889H38.4443V7.33335H47.3332V21.7778H27.3332ZM31.9487 26.9767L34.1421 30.7745L36.0665 29.6634L33.8787 25.8734C35.9476 24.8411 38.2398 24.2067 40.6665 24.0556V28.4445H42.8887V24.0567C45.3154 24.2078 47.6076 24.8434 49.6765 25.8745L47.4832 29.6722L49.4076 30.7834L51.6054 26.9767C53.5743 28.2889 55.2665 29.98 56.5776 31.9489L52.7699 34.1467L53.881 36.0711L57.6799 33.8778C58.711 35.9467 59.3465 38.2389 59.4976 40.6656H55.111V42.8878H59.4987C59.3476 45.3145 58.7121 47.6067 57.681 49.6756L53.8821 47.4822L52.771 49.4067L56.5787 51.6045C55.2665 53.5734 53.5754 55.2656 51.6065 56.5767L49.4087 52.77L47.4843 53.8811L49.6776 57.6789C47.6087 58.71 45.3176 59.3456 42.891 59.4967V55.1111H40.6687V59.4989C38.2421 59.3478 35.9498 58.7122 33.881 57.6811L36.0687 53.8911L34.1443 52.78L31.951 56.5778C29.9821 55.2667 28.2898 53.5745 26.9787 51.6056L30.7865 49.4078L29.6754 47.4833L25.8765 49.6767C24.8454 47.6078 24.2098 45.3156 24.0587 42.8889H28.4443V40.6667H24.0565C24.2076 38.24 24.8432 35.9478 25.8743 33.8789L29.6732 36.0722L30.7843 34.1478L26.9765 31.95C28.2887 29.9811 29.981 28.2889 31.9487 26.9767Z" fill="white"/>
<path d="M41.7775 46.2223C44.2286 46.2223 46.2219 44.2289 46.2219 41.7778C46.2219 40.9556 45.983 40.1956 45.5919 39.5345L50.3408 34.7856L48.7697 33.2145L44.0219 37.9634C43.3597 37.5723 42.5997 37.3334 41.7775 37.3334C39.3263 37.3334 37.333 39.3267 37.333 41.7778C37.333 44.2289 39.3263 46.2223 41.7775 46.2223ZM41.7775 39.5556C43.003 39.5556 43.9997 40.5523 43.9997 41.7778C43.9997 43.0034 43.003 44 41.7775 44C40.5519 44 39.5552 43.0034 39.5552 41.7778C39.5552 40.5523 40.5519 39.5556 41.7775 39.5556Z" fill="white"/>
<path d="M56.5391 23.6782L58.1104 22.1068L60.3323 24.3287L58.7609 25.9L56.5391 23.6782Z" fill="white"/>
</svg>
