<svg width="100" height="91" viewBox="0 0 100 91" fill="none" xmlns="http://www.w3.org/2000/svg">
<path d="M94.7562 25.6983L55.7259 1.81422C52.194 -0.346927 47.806 -0.346927 44.2741 1.81422L5.24385 25.6983C2.00933 27.6779 0 31.2633 0 35.0553V79.4856C0 85.5343 4.92112 90.4554 10.9698 90.4554H89.0299C95.0789 90.4554 99.9997 85.5343 99.9997 79.4856V35.0553C100 31.2633 97.9907 27.6779 94.7562 25.6983ZM47.5418 7.15417C48.2999 6.69026 49.1498 6.45831 50 6.45831C50.8499 6.45831 51.7001 6.69026 52.4582 7.15417L91.0252 30.7549L64.2024 48.37V48.256C64.2024 44.9933 62.3868 42.1476 59.7139 40.6732V35.3386C59.7139 29.9824 55.3562 25.6247 50 25.6247C44.6438 25.6247 40.2861 29.9824 40.2861 35.3386V40.6732C37.6128 42.1476 35.7976 44.9933 35.7976 48.256V48.3697L8.97515 30.7549L47.5418 7.15417ZM53.4533 39.6017H46.547V35.3383C46.547 33.4341 48.0962 31.885 50.0003 31.885C51.9045 31.885 53.4536 33.4341 53.4536 35.3383V39.6017H53.4533ZM42.0582 48.256C42.0582 46.9363 43.1319 45.8626 44.4516 45.8626H55.5481C56.8678 45.8626 57.9415 46.9363 57.9415 48.256V59.1222C57.9415 60.6548 56.695 61.9012 55.1625 61.9012H44.8369C43.3043 61.9012 42.0578 60.6545 42.0578 59.1222V48.256H42.0582ZM89.0302 84.1948H10.9698C8.37319 84.1948 6.26056 82.0822 6.26056 79.4856V36.4624L35.5876 55.7218C35.6555 55.7665 35.7275 55.7997 35.7976 55.8385V59.1222C35.7976 64.1068 39.8529 68.1618 44.8372 68.1618H55.1628C60.1471 68.1618 64.2024 64.1065 64.2024 59.1222V55.8385C64.2725 55.7997 64.3445 55.7665 64.4125 55.7218L93.7394 36.4624V79.4853C93.7394 82.0822 91.6268 84.1948 89.0302 84.1948Z" fill="#61A533"/>
</svg>
