<svg width="24" height="25" viewBox="0 0 24 25" fill="none" xmlns="http://www.w3.org/2000/svg">
<path d="M11.9841 5.57422C8.33067 5.57422 4.58301 7.68875 1.6327 11.9178C1.54849 12.0399 1.50234 12.1841 1.50009 12.3324C1.49783 12.4806 1.53958 12.6262 1.62004 12.7508C3.88692 16.2992 7.58442 19.0742 11.9841 19.0742C16.336 19.0742 20.1094 16.2908 22.3805 12.7344C22.4591 12.6123 22.5009 12.4701 22.5009 12.3249C22.5009 12.1797 22.4591 12.0376 22.3805 11.9155C20.1043 8.39984 16.3032 5.57422 11.9841 5.57422Z" stroke="#2D3748" stroke-width="1.5" stroke-linecap="round" stroke-linejoin="round"/>
<path d="M12 16.0742C14.0711 16.0742 15.75 14.3953 15.75 12.3242C15.75 10.2531 14.0711 8.57422 12 8.57422C9.92893 8.57422 8.25 10.2531 8.25 12.3242C8.25 14.3953 9.92893 16.0742 12 16.0742Z" stroke="#2D3748" stroke-width="1.5" stroke-miterlimit="10"/>
<line x1="23" y1="1.38488" x2="1.43324" y2="22.9516" stroke="#2D3748" stroke-width="1.5" stroke-linecap="round"/>
</svg>
