<svg width="15" height="16" viewBox="0 0 15 16" fill="none" xmlns="http://www.w3.org/2000/svg">
<path d="M5.03251 5.10689L6.75001 3.38189V10.5744C6.75001 10.7733 6.82903 10.9641 6.96968 11.1047C7.11033 11.2454 7.3011 11.3244 7.50001 11.3244C7.69892 11.3244 7.88969 11.2454 8.03034 11.1047C8.17099 10.9641 8.25001 10.7733 8.25001 10.5744V3.38189L9.96752 5.10689C10.0372 5.17718 10.1202 5.23298 10.2116 5.27106C10.303 5.30913 10.401 5.32874 10.5 5.32874C10.599 5.32874 10.6971 5.30913 10.7884 5.27106C10.8798 5.23298 10.9628 5.17718 11.0325 5.10689C11.1028 5.03716 11.1586 4.95421 11.1967 4.86282C11.2348 4.77142 11.2544 4.6734 11.2544 4.57439C11.2544 4.47538 11.2348 4.37735 11.1967 4.28595C11.1586 4.19456 11.1028 4.11161 11.0325 4.04189L8.03251 1.04189C7.96118 0.973605 7.87707 0.920081 7.78501 0.884385C7.60241 0.809372 7.39761 0.809372 7.21501 0.884385C7.12295 0.920081 7.03884 0.973605 6.96751 1.04189L3.96751 4.04189C3.89758 4.11182 3.84211 4.19483 3.80426 4.2862C3.76642 4.37757 3.74694 4.47549 3.74694 4.57439C3.74694 4.67328 3.76642 4.77121 3.80426 4.86257C3.84211 4.95394 3.89758 5.03696 3.96751 5.10689C4.03744 5.17682 4.12045 5.23229 4.21182 5.27013C4.30319 5.30798 4.40111 5.32746 4.50001 5.32746C4.5989 5.32746 4.69683 5.30798 4.78819 5.27013C4.87956 5.23229 4.96258 5.17682 5.03251 5.10689ZM14.25 8.32439C14.0511 8.32439 13.8603 8.40341 13.7197 8.54406C13.579 8.68471 13.5 8.87548 13.5 9.07439V13.5744C13.5 13.7733 13.421 13.9641 13.2803 14.1047C13.1397 14.2454 12.9489 14.3244 12.75 14.3244H2.25C2.05109 14.3244 1.86032 14.2454 1.71967 14.1047C1.57902 13.9641 1.5 13.7733 1.5 13.5744V9.07439C1.5 8.87548 1.42098 8.68471 1.28033 8.54406C1.13968 8.40341 0.948914 8.32439 0.750001 8.32439C0.551088 8.32439 0.360323 8.40341 0.21967 8.54406C0.0790177 8.68471 0 8.87548 0 9.07439V13.5744C0 14.1711 0.237053 14.7434 0.659011 15.1654C1.08097 15.5873 1.65327 15.8244 2.25 15.8244H12.75C13.3468 15.8244 13.9191 15.5873 14.341 15.1654C14.763 14.7434 15 14.1711 15 13.5744V9.07439C15 8.9759 14.9806 8.87837 14.9429 8.78738C14.9052 8.69638 14.85 8.6137 14.7804 8.54406C14.7107 8.47441 14.628 8.41917 14.537 8.38148C14.446 8.34379 14.3485 8.32439 14.25 8.32439Z" fill="#61A533"/>
</svg>
