<svg width="64" height="65" viewBox="0 0 64 65" fill="none" xmlns="http://www.w3.org/2000/svg">
<rect width="64" height="65" fill="#E5E5E5"/>
<g clip-path="url(#clip0_0_1)">
<rect width="1440" height="4817" transform="translate(-735 -473)" fill="white"/>
<circle r="32" transform="matrix(1 0 0 -1 32 32.5)" fill="#61A533"/>
<path d="M33.4482 48.5C31.2827 48.5 29.5915 47.9892 27.8008 47.4482C26.3579 47.0121 24.8654 46.5614 22.8849 46.2762C22.3225 46.1945 21.9312 45.6616 22.0101 45.0844C22.0893 44.5079 22.6087 44.1078 23.1708 44.1873C25.3008 44.4941 26.9374 44.9883 28.3813 45.4244C30.0975 45.9427 31.5789 46.3899 33.4487 46.3899C36.168 46.3899 40.1517 44.8022 45.2896 41.671C45.7858 41.3687 46.1315 40.7676 45.8302 40.2042C45.5408 39.662 44.8211 39.4495 44.2571 39.7397C43.9319 39.9072 43.5918 40.0848 43.2407 40.2681C39.9647 41.9806 35.8882 44.1103 33.1939 43.3938C32.6031 43.2366 31.7781 42.933 30.823 42.5824C29.2965 42.0213 27.397 41.3229 25.6274 40.911C25.0742 40.7819 24.7267 40.2173 24.8527 39.6494C24.9784 39.0815 25.525 38.7249 26.0817 38.8534C27.9721 39.2936 29.9367 40.0151 31.5154 40.5956C32.424 40.9293 33.2088 41.2185 33.7092 41.3516C35.6515 41.8669 39.4974 39.8569 42.3072 38.3879C42.6627 38.202 43.0067 38.0215 43.3363 37.853C44.8873 37.0555 46.8149 37.6553 47.6333 39.1899C48.4372 40.6979 47.881 42.544 46.3391 43.4846C40.8012 46.8597 36.585 48.5 33.4482 48.5Z" fill="white"/>
<path d="M36.5695 40.5C36.3697 40.5 36.1707 40.4395 36.0004 40.3217C35.7229 40.1286 35.556 39.8077 35.556 39.4649V26.1136C35.556 25.5414 36.0098 25.0778 36.5695 25.0778H38.3693L32.4136 18.9885L26.4583 25.0778H28.2582C28.8178 25.0778 29.2711 25.5419 29.2711 26.1136V36.2834C29.2711 36.8559 28.8173 37.3197 28.2582 37.3197C27.699 37.3197 27.2452 36.8559 27.2452 36.2834V27.1494H24.0134C23.6035 27.1494 23.2343 26.897 23.0773 26.5098C22.9203 26.1228 23.007 25.6772 23.2968 25.3809L31.6975 16.7912C32.0771 16.4029 32.75 16.4029 33.1297 16.7912L41.5311 25.3814C41.8202 25.6777 41.9074 26.1233 41.7504 26.5103C41.5936 26.8975 41.2243 27.1499 40.8145 27.1499H37.5824V37.8883C38.5147 37.4445 39.4267 36.9579 40.265 36.5107C40.743 36.256 41.204 36.0103 41.6424 35.7863C42.9944 35.094 44.4303 35.2546 45.3022 36.1955C46.1193 37.0775 46.2284 38.4005 45.5787 39.5637C45.3022 40.0609 44.6834 40.2335 44.1972 39.9497C43.711 39.6662 43.542 39.0335 43.819 38.5368C44.0221 38.1733 44.0265 37.8305 43.8311 37.6196C43.5886 37.3575 43.085 37.3642 42.5493 37.6381C42.1209 37.8574 41.6697 38.0979 41.2019 38.3476C39.9085 39.0374 38.4413 39.8201 36.9426 40.4271C36.8226 40.476 36.6953 40.5 36.5695 40.5Z" fill="white"/>
<path d="M41.8464 37.5C41.7329 37.5 41.6171 37.4829 41.5031 37.4462C40.9629 37.2713 40.6782 36.726 40.8674 36.2281C40.9737 35.9502 40.9282 35.7054 40.7432 35.5559C40.4798 35.3423 39.9902 35.3598 39.4649 35.6024C39.0201 35.8074 38.6471 35.9876 38.2993 36.1545C37.6888 36.4481 37.1624 36.7021 36.4666 36.9925C35.9457 37.2107 35.331 36.9982 35.093 36.5174C34.856 36.0365 35.0876 35.471 35.609 35.2525C36.2524 34.9835 36.756 34.7414 37.3388 34.4615C37.6962 34.2895 38.0789 34.1054 38.5358 33.8943C39.8329 33.2959 41.2045 33.3841 42.1143 34.1214C42.9422 34.7915 43.2143 35.8404 42.826 36.8604C42.6758 37.2542 42.2751 37.5 41.8464 37.5Z" fill="white"/>
<path d="M30.9776 42.5C30.6645 42.5 30.3409 42.4433 30.0136 42.3213C29.4902 42.1253 29.2206 41.5323 29.412 40.9957C29.6033 40.4594 30.1824 40.1833 30.7053 40.3793C31.2956 40.6004 31.7535 40.0729 31.9053 39.6894C32.0595 39.3014 32.0802 38.7648 31.3086 38.4109C31.0632 38.2985 30.8092 38.178 30.5437 38.051C28.3393 37.0032 25.3202 35.568 20.0088 35.568C19.4515 35.568 19 35.1053 19 34.5342C19 33.9631 19.4519 33.5 20.0088 33.5C25.7655 33.5 29.0181 35.0462 31.3928 36.1751C31.6501 36.2971 31.8962 36.4141 32.1326 36.5228C33.995 37.3767 34.2896 39.1659 33.7742 40.466C33.3321 41.586 32.2425 42.5 30.9776 42.5Z" fill="white"/>
<path d="M20.0633 46.5H16.9367C16.4197 46.5 16 46.0472 16 45.4888C16 44.9304 16.4197 44.478 16.9367 44.478H19.1266V34.522H17.8734V42.6669C17.8734 43.2253 17.4537 43.6777 16.9367 43.6777C16.4197 43.6777 16 43.2248 16 42.6669V33.5107C16 32.9528 16.4197 32.5 16.9367 32.5H20.0633C20.581 32.5 21 32.9528 21 33.5107V45.4888C21 46.0472 20.581 46.5 20.0633 46.5Z" fill="white"/>
<path d="M43.9999 32.5C43.4474 32.5 43 32.0291 43 31.449V27.551C43 26.9704 43.4474 26.5 43.9999 26.5C44.5526 26.5 45 26.9709 45 27.551V31.449C44.9995 32.0291 44.5519 32.5 43.9999 32.5Z" fill="white"/>
<path d="M45.9489 30.5H42.0513C41.4703 30.5 41 30.052 41 29.5C41 28.948 41.4703 28.5 42.0513 28.5H45.9489C46.5297 28.5 47 28.948 47 29.5C47 30.052 46.5297 30.5 45.9489 30.5Z" fill="white"/>
<path d="M20 24.5C19.4473 24.5 19 24.0293 19 23.4492V19.5511C19 18.9704 19.448 18.5 20 18.5C20.552 18.5 21 18.9709 21 19.5511V23.4492C21 24.0293 20.552 24.5 20 24.5Z" fill="white"/>
<path d="M21.9487 22.5H18.0513C17.4705 22.5 17 22.052 17 21.5C17 20.948 17.471 20.5 18.0513 20.5H21.9487C22.5295 20.5 23 20.948 23 21.5C23 22.052 22.529 22.5 21.9487 22.5Z" fill="white"/>
</g>
<defs>
<clipPath id="clip0_0_1">
<rect width="1440" height="4817" fill="white" transform="translate(-735 -473)"/>
</clipPath>
</defs>
</svg>
