<svg width="32" height="32" viewBox="0 0 32 32" fill="none" xmlns="http://www.w3.org/2000/svg">
<path d="M13 28C19.0751 28 24 23.0751 24 17C24 10.9249 19.0751 6 13 6C6.92487 6 2 10.9249 2 17C2 23.0751 6.92487 28 13 28Z" fill="#D0F2D8"/>
<path d="M12.957 26L12.8194 25.7628C10.7189 22.1402 5.1369 14.4524 5.08052 14.3752L5 14.2645L6.90175 12.3621L12.9216 16.6169C16.7119 11.6385 20.248 8.21901 22.5546 6.22219C25.0777 4.03786 26.7202 3.03227 26.7368 3.02263L26.7741 3H30L29.6919 3.27777C21.7669 10.4227 13.1771 25.6085 13.0915 25.761L12.957 26Z" fill="#61A533"/>
</svg>
