<svg width="100" height="100" viewBox="0 0 100 100" fill="none" xmlns="http://www.w3.org/2000/svg">
<g clip-path="url(#clip0_283_6587)">
<path d="M66.7404 57.7408C65.034 57.7408 63.6508 56.3572 63.6508 54.6512V50.1193C63.6508 42.5922 57.527 36.4684 49.9998 36.4684C42.4727 36.4684 36.3488 42.592 36.3488 50.1193V51.5615H48.9936C50.7 51.5615 52.0832 52.9451 52.0832 54.6512C52.0832 56.3572 50.7 57.7408 48.9936 57.7408H33.2596C31.5531 57.7408 30.1699 56.3572 30.1699 54.6512V50.1193C30.1699 39.185 39.0654 30.2891 50.0002 30.2891C60.935 30.2891 69.8305 39.185 69.8305 50.1193V54.6512C69.8301 56.3576 68.4469 57.7408 66.7404 57.7408Z" fill="#61A533"/>
<path d="M49.9996 36.468C40.4191 36.468 32.625 28.6734 32.625 19.0934C32.625 9.51328 40.4193 1.71875 49.9996 1.71875C59.5799 1.71875 67.3742 9.51308 67.3742 19.0934C67.3742 22.7969 66.2242 26.3326 64.0488 29.3174C63.0441 30.6963 61.1115 30.9994 59.7324 29.9945C58.3535 28.9895 58.0502 27.057 59.0553 25.6777C60.4551 23.7568 61.1951 21.4799 61.1951 19.093C61.1951 12.9199 56.173 7.89746 49.9996 7.89746C43.8262 7.89746 38.8041 12.9199 38.8041 19.093C38.8041 25.266 43.8262 30.2885 49.9996 30.2885C51.7061 30.2885 53.0893 31.6721 53.0893 33.3781C53.0893 35.0842 51.7061 36.468 49.9996 36.468Z" fill="#61A533"/>
<path d="M90.6539 98.2797H9.34609C4.19258 98.2797 0 94.0871 0 88.9336V73.8461C0 68.6926 4.19258 64.5 9.34609 64.5H90.6541C95.8076 64.5 100 68.6926 100 73.8461V88.9336C100 94.0871 95.8074 98.2797 90.6539 98.2797ZM9.34609 70.6795C7.5998 70.6795 6.1793 72.1 6.1793 73.8463V88.9338C6.1793 90.6801 7.5998 92.1006 9.34609 92.1006H90.6541C92.4004 92.1006 93.8209 90.6801 93.8209 88.9338V73.8463C93.8209 72.1 92.4004 70.6795 90.6541 70.6795H9.34609Z" fill="#61A533"/>
<path d="M22.6783 88.1405C21.8873 88.1405 21.097 87.8387 20.4937 87.2356C19.2873 86.0292 19.2873 84.0727 20.4937 82.8661L27.1939 76.1663C28.4003 74.96 30.3564 74.9604 31.5632 76.1663C32.7697 77.3727 32.7697 79.3292 31.5632 80.5358L24.863 87.2354C24.2595 87.8385 23.4689 88.1405 22.6783 88.1405Z" fill="#61A533"/>
<path d="M22.6783 88.1405C21.8873 88.1405 21.097 87.8387 20.4937 87.2356C19.2873 86.0292 19.2873 84.0727 20.4937 82.8661L27.1939 76.1663C28.4003 74.96 30.3564 74.9604 31.5632 76.1663C32.7697 77.3727 32.7697 79.3292 31.5632 80.5358L24.863 87.2354C24.2595 87.8385 23.4689 88.1405 22.6783 88.1405Z" fill="#61A533"/>
<path d="M29.3786 88.1406C28.588 88.1406 27.7974 87.8389 27.194 87.2357L20.4938 80.5359C19.2874 79.3295 19.287 77.373 20.4938 76.1664C21.7003 74.9602 23.6567 74.9602 24.8632 76.1664L31.5632 82.8662C32.7696 84.0727 32.77 86.0291 31.5632 87.2357C30.9603 87.8387 30.1692 88.1406 29.3786 88.1406Z" fill="#61A533"/>
<path d="M29.3786 88.1406C28.588 88.1406 27.7974 87.8389 27.194 87.2357L20.4938 80.5359C19.2874 79.3295 19.287 77.373 20.4938 76.1664C21.7003 74.9602 23.6567 74.9602 24.8632 76.1664L31.5632 82.8662C32.7696 84.0727 32.77 86.0291 31.5632 87.2357C30.9603 87.8387 30.1692 88.1406 29.3786 88.1406Z" fill="#61A533"/>
<path d="M45.3843 88.1405C44.5933 88.1405 43.8031 87.8387 43.1998 87.2356C41.9933 86.0292 41.9933 84.0727 43.1998 82.8661L49.8996 76.1663C51.106 74.96 53.0624 74.9604 54.2689 76.1663C55.4753 77.3727 55.4753 79.3292 54.2689 80.5358L47.5691 87.2356C46.9656 87.8385 46.175 88.1405 45.3843 88.1405Z" fill="#61A533"/>
<path d="M45.3843 88.1405C44.5933 88.1405 43.8031 87.8387 43.1998 87.2356C41.9933 86.0292 41.9933 84.0727 43.1998 82.8661L49.8996 76.1663C51.106 74.96 53.0624 74.9604 54.2689 76.1663C55.4753 77.3727 55.4753 79.3292 54.2689 80.5358L47.5691 87.2356C46.9656 87.8385 46.175 88.1405 45.3843 88.1405Z" fill="#61A533"/>
<path d="M52.0843 88.1406C51.2937 88.1406 50.503 87.8389 49.8997 87.2357L43.1999 80.5359C41.9935 79.3295 41.9931 77.373 43.1999 76.1664C44.4063 74.9602 46.3628 74.9602 47.5692 76.1664L54.269 82.8662C55.4755 84.0727 55.4759 86.0291 54.269 87.2357C53.6655 87.8387 52.8749 88.1406 52.0843 88.1406Z" fill="#61A533"/>
<path d="M52.0843 88.1406C51.2937 88.1406 50.503 87.8389 49.8997 87.2357L43.1999 80.5359C41.9935 79.3295 41.9931 77.373 43.1999 76.1664C44.4063 74.9602 46.3628 74.9602 47.5692 76.1664L54.269 82.8662C55.4755 84.0727 55.4759 86.0291 54.269 87.2357C53.6655 87.8387 52.8749 88.1406 52.0843 88.1406Z" fill="#61A533"/>
<path d="M70.6216 88.1405C69.8306 88.1405 69.0404 87.8387 68.4371 87.2356C67.2306 86.0292 67.2306 84.0727 68.4371 82.8661L75.1371 76.1663C76.3435 74.96 78.2999 74.9604 79.5064 76.1663C80.7128 77.3727 80.7128 79.3292 79.5064 80.5358L72.8062 87.2356C72.2029 87.8385 71.4123 88.1405 70.6216 88.1405Z" fill="#61A533"/>
<path d="M70.6216 88.1405C69.8306 88.1405 69.0404 87.8387 68.4371 87.2356C67.2306 86.0292 67.2306 84.0727 68.4371 82.8661L75.1371 76.1663C76.3435 74.96 78.2999 74.9604 79.5064 76.1663C80.7128 77.3727 80.7128 79.3292 79.5064 80.5358L72.8062 87.2356C72.2029 87.8385 71.4123 88.1405 70.6216 88.1405Z" fill="#61A533"/>
<path d="M77.321 88.1406C76.5304 88.1406 75.7397 87.8389 75.1364 87.2357L68.4362 80.5359C67.2298 79.3295 67.2294 77.373 68.4362 76.1664C69.6427 74.9602 71.5991 74.9602 72.8056 76.1664L79.5056 82.8662C80.712 84.0727 80.7124 86.0291 79.5056 87.2357C78.9024 87.8387 78.1116 88.1406 77.321 88.1406Z" fill="#61A533"/>
<path d="M77.321 88.1406C76.5304 88.1406 75.7397 87.8389 75.1364 87.2357L68.4362 80.5359C67.2298 79.3295 67.2294 77.373 68.4362 76.1664C69.6427 74.9602 71.5991 74.9602 72.8056 76.1664L79.5056 82.8662C80.712 84.0727 80.7124 86.0291 79.5056 87.2357C78.9024 87.8387 78.1116 88.1406 77.321 88.1406Z" fill="#61A533"/>
</g>
<defs>
<clipPath id="clip0_283_6587">
<rect width="100" height="100" fill="white"/>
</clipPath>
</defs>
</svg>
