<svg width="16" height="15" viewBox="0 0 16 15" fill="none" xmlns="http://www.w3.org/2000/svg">
<path d="M15.9168 1.04916C15.8679 1.00406 15.8048 0.980469 15.741 0.980469C15.7025 0.980469 15.6642 0.989002 15.6279 1.00684L0.25549 8.54743C0.0983675 8.62465 -0.00105816 8.7851 8.49783e-06 8.96061C0.00107516 9.1359 0.102182 9.29525 0.260435 9.37076L4.31187 11.3012L12.4127 4.64299L5.31566 11.7795L10.3627 14.1843C10.4247 14.214 10.4924 14.2288 10.5594 14.2288C10.6165 14.2288 10.6731 14.2184 10.727 14.1972C10.8446 14.1507 10.938 14.0576 10.9846 13.94L15.9817 1.33405C16.0212 1.23485 15.9954 1.12143 15.9168 1.04916Z" fill="white"/>
</svg>
