<svg width="40" height="35" viewBox="0 0 40 35" fill="none" xmlns="http://www.w3.org/2000/svg">
<path d="M10.7964 5.07807e-07C8.66112 -0.00012413 6.57374 0.637053 4.79827 1.83095C3.0228 3.02485 1.63898 4.72184 0.82182 6.70731C0.00466116 8.69278 -0.209132 10.8776 0.207477 12.9853C0.624087 15.0931 1.65239 17.0292 3.16233 18.5487L19.1153 34.6045C19.2395 34.7299 19.3871 34.8294 19.5496 34.8972C19.7121 34.9651 19.8863 35 20.0622 35C20.2381 35 20.4123 34.9651 20.5748 34.8972C20.7373 34.8294 20.8848 34.7299 21.0091 34.6045L36.962 18.546C38.9319 16.4974 40.0228 13.7517 39.9996 10.9009C39.9764 8.05016 38.8409 5.32278 36.838 3.30692C34.835 1.29106 32.1251 0.148233 29.2926 0.124881C26.4601 0.101529 23.732 1.19952 21.6965 3.18209L20.0622 4.82428L18.4305 3.18209C17.4276 2.17284 16.237 1.37235 14.9267 0.826359C13.6163 0.280365 12.2119 -0.000435859 10.7937 5.07807e-07H10.7964Z" fill="#61A533"/>
</svg>
