<svg width="20" height="20" viewBox="0 0 20 20" fill="none" xmlns="http://www.w3.org/2000/svg">
<path d="M9.99992 19.9998C8.64577 19.9998 7.3502 19.7362 6.11323 19.2088C4.87627 18.6815 3.81182 17.9719 2.9199 17.0799C2.02798 16.188 1.31835 15.1236 0.79101 13.8866C0.26367 12.6496 0 11.3541 0 9.99992C0 8.64577 0.26367 7.3502 0.79101 6.11323C1.31835 4.87627 2.02798 3.81182 2.9199 2.9199C3.81182 2.02798 4.87627 1.31835 6.11323 0.79101C7.3502 0.26367 8.64577 0 9.99992 0C11.3541 0 12.6496 0.26367 13.8866 0.79101C15.1236 1.31835 16.188 2.02798 17.0799 2.9199C17.9719 3.81182 18.6815 4.87627 19.2088 6.11323C19.7362 7.3502 19.9998 8.64577 19.9998 9.99992C19.9998 11.3541 19.7362 12.6496 19.2088 13.8866C18.6815 15.1236 17.9719 16.188 17.0799 17.0799C16.188 17.9719 15.1236 18.6815 13.8866 19.2088C12.6496 19.7362 11.3541 19.9998 9.99992 19.9998ZM14.9999 6.24995C14.9999 5.91141 14.8794 5.61845 14.6386 5.37105C14.3977 5.12366 14.1015 4.99996 13.7499 4.99996H6.24995C5.91141 4.99996 5.61845 5.12366 5.37105 5.37105C5.12366 5.61845 4.99996 5.91141 4.99996 6.24995V7.49994H7.22651C7.98171 6.66662 8.90618 6.24995 9.99992 6.24995C11.0937 6.24995 12.0181 6.66662 12.7733 7.49994H14.9999V6.24995ZM7.49994 9.99992C7.49994 10.69 7.74408 11.2792 8.23236 11.7675C8.72064 12.2558 9.30982 12.4999 9.99992 12.4999C10.69 12.4999 11.2792 12.2558 11.7675 11.7675C12.2558 11.2792 12.4999 10.69 12.4999 9.99992C12.4999 9.30982 12.2558 8.72064 11.7675 8.23236C11.2792 7.74408 10.69 7.49994 9.99992 7.49994C9.30982 7.49994 8.72064 7.74408 8.23236 8.23236C7.74408 8.72064 7.49994 9.30982 7.49994 9.99992ZM14.9999 8.74993H13.5155C13.6718 9.17962 13.7499 9.59628 13.7499 9.99992C13.7499 11.0416 13.3853 11.927 12.6562 12.6562C11.927 13.3853 11.0416 13.7499 9.99992 13.7499C8.95827 13.7499 8.07285 13.3853 7.34369 12.6562C6.61453 11.927 6.24995 11.0416 6.24995 9.99992C6.24995 9.59628 6.32808 9.17962 6.48433 8.74993H4.99996V13.7499C4.99996 14.1015 5.1204 14.3977 5.36129 14.6386C5.60217 14.8794 5.89839 14.9999 6.24995 14.9999H13.7499C14.1015 14.9999 14.3977 14.8794 14.6386 14.6386C14.8794 14.3977 14.9999 14.1015 14.9999 13.7499V8.74993Z" fill="#718096"/>
</svg>
