<svg width="32" height="32" viewBox="0 0 32 32" fill="none" xmlns="http://www.w3.org/2000/svg">
<path d="M16 32C13.8333 32 11.7604 31.5781 9.78125 30.7344C7.80208 29.8906 6.09896 28.7552 4.67188 27.3281C3.24479 25.901 2.10938 24.1979 1.26562 22.2188C0.421875 20.2396 0 18.1667 0 16C0 13.8333 0.421875 11.7604 1.26562 9.78125C2.10938 7.80208 3.24479 6.09896 4.67188 4.67188C6.09896 3.24479 7.80208 2.10938 9.78125 1.26562C11.7604 0.421875 13.8333 0 16 0C18.1667 0 20.2396 0.421875 22.2188 1.26562C24.1979 2.10938 25.901 3.24479 27.3281 4.67188C28.7552 6.09896 29.8906 7.80208 30.7344 9.78125C31.5781 11.7604 32 13.8333 32 16C32 18.1667 31.5781 20.2396 30.7344 22.2188C29.8906 24.1979 28.7552 25.901 27.3281 27.3281C25.901 28.7552 24.1979 29.8906 22.2188 30.7344C20.2396 31.5781 18.1667 32 16 32ZM24 10C24 9.45833 23.8073 8.98958 23.4219 8.59375C23.0365 8.19792 22.5625 8 22 8H10C9.45833 8 8.98958 8.19792 8.59375 8.59375C8.19792 8.98958 8 9.45833 8 10V12H11.5625C12.7708 10.6667 14.25 10 16 10C17.75 10 19.2292 10.6667 20.4375 12H24V10ZM12 16C12 17.1042 12.3906 18.0469 13.1719 18.8281C13.9531 19.6094 14.8958 20 16 20C17.1042 20 18.0469 19.6094 18.8281 18.8281C19.6094 18.0469 20 17.1042 20 16C20 14.8958 19.6094 13.9531 18.8281 13.1719C18.0469 12.3906 17.1042 12 16 12C14.8958 12 13.9531 12.3906 13.1719 13.1719C12.3906 13.9531 12 14.8958 12 16ZM24 14H21.625C21.875 14.6875 22 15.3542 22 16C22 17.6667 21.4167 19.0833 20.25 20.25C19.0833 21.4167 17.6667 22 16 22C14.3333 22 12.9167 21.4167 11.75 20.25C10.5833 19.0833 10 17.6667 10 16C10 15.3542 10.125 14.6875 10.375 14H8V22C8 22.5625 8.19271 23.0365 8.57812 23.4219C8.96354 23.8073 9.4375 24 10 24H22C22.5625 24 23.0365 23.8073 23.4219 23.4219C23.8073 23.0365 24 22.5625 24 22V14Z" fill="white"/>
</svg>
