<svg width="27" height="21" viewBox="0 0 27 21" fill="none" xmlns="http://www.w3.org/2000/svg">
<path d="M6.49121 21C4.40378 21 2.84769 20.2152 1.82295 18.6455C0.836167 17.0758 0.342773 15.2515 0.342773 13.1727C0.342773 11.2636 0.70333 9.43939 1.42444 7.7C2.18351 5.91818 3.15132 4.3697 4.32787 3.05454C5.54238 1.69697 6.85177 0.678787 8.25604 0L12.1842 3.24545C10.6281 3.96667 9.22385 4.94242 7.97139 6.17273C6.75689 7.36061 5.90294 8.63333 5.40954 9.99091L5.69419 10.1818C5.92191 10.0121 6.16861 9.88485 6.43428 9.8C6.73791 9.71515 7.13642 9.67273 7.62981 9.67273C8.65455 9.67273 9.66032 10.097 10.6471 10.9455C11.6718 11.7939 12.1842 13.1091 12.1842 14.8909C12.1842 16.8848 11.5959 18.4121 10.4194 19.4727C9.28078 20.4909 7.97139 21 6.49121 21ZM20.4391 21C18.3516 21 16.7955 20.2152 15.7708 18.6455C14.784 17.0758 14.2906 15.2515 14.2906 13.1727C14.2906 11.2636 14.6512 9.43939 15.3723 7.7C16.1314 5.91818 17.0992 4.3697 18.2757 3.05454C19.4902 1.69697 20.7996 0.678787 22.2039 0L26.1321 3.24545C24.576 3.96667 23.1717 4.94242 21.9192 6.17273C20.7047 7.36061 19.8508 8.63333 19.3574 9.99091L19.642 10.1818C19.8698 10.0121 20.1165 9.88485 20.3821 9.8C20.6858 9.71515 21.0843 9.67273 21.5777 9.67273C22.6024 9.67273 23.6082 10.097 24.5949 10.9455C25.6197 11.7939 26.1321 13.1091 26.1321 14.8909C26.1321 16.8848 25.5438 18.4121 24.3672 19.4727C23.2286 20.4909 21.9192 21 20.4391 21Z" fill="#61A533"/>
</svg>
