<svg width="100" height="92" viewBox="0 0 100 92" fill="none" xmlns="http://www.w3.org/2000/svg">
<path d="M94.7562 26.3741L55.7259 2.49C52.194 0.328854 47.806 0.328854 44.2741 2.49L5.24385 26.3741C2.00933 28.3536 0 31.9391 0 35.7311V80.1614C0 86.21 4.92112 91.1312 10.9698 91.1312H89.0299C95.0789 91.1312 99.9997 86.21 99.9997 80.1614V35.7311C100 31.9391 97.9907 28.3536 94.7562 26.3741ZM47.5418 7.82995C48.2999 7.36604 49.1498 7.13409 50 7.13409C50.8499 7.13409 51.7001 7.36604 52.4582 7.82995L91.0252 31.4307L64.2024 49.0458V48.9318C64.2024 45.6691 62.3868 42.8234 59.7139 41.349V36.0144C59.7139 30.6582 55.3562 26.3005 50 26.3005C44.6438 26.3005 40.2861 30.6582 40.2861 36.0144V41.349C37.6128 42.8234 35.7976 45.6691 35.7976 48.9318V49.0454L8.97515 31.4307L47.5418 7.82995ZM53.4533 40.2775H46.547V36.0141C46.547 34.1099 48.0962 32.5607 50.0003 32.5607C51.9045 32.5607 53.4536 34.1099 53.4536 36.0141V40.2775H53.4533ZM42.0582 48.9318C42.0582 47.6121 43.1319 46.5384 44.4516 46.5384H55.5481C56.8678 46.5384 57.9415 47.6121 57.9415 48.9318V59.798C57.9415 61.3306 56.695 62.577 55.1625 62.577H44.8369C43.3043 62.577 42.0578 61.3302 42.0578 59.798V48.9318H42.0582ZM89.0302 84.8706H10.9698C8.37319 84.8706 6.26056 82.758 6.26056 80.1614V37.1382L35.5876 56.3975C35.6555 56.4423 35.7275 56.4755 35.7976 56.5143V59.798C35.7976 64.7826 39.8529 68.8376 44.8372 68.8376H55.1628C60.1471 68.8376 64.2024 64.7823 64.2024 59.798V56.5143C64.2725 56.4755 64.3445 56.4423 64.4125 56.3975L93.7394 37.1382V80.1611C93.7394 82.758 91.6268 84.8706 89.0302 84.8706Z" fill="#61A533"/>
</svg>
