<svg width="17" height="16" viewBox="0 0 17 16" fill="none" xmlns="http://www.w3.org/2000/svg">
<path fill-rule="evenodd" clip-rule="evenodd" d="M11.5431 10.3185L15.8469 14.6223C15.9981 14.7737 16.0831 14.979 16.083 15.193C16.0829 15.407 15.9978 15.6122 15.8465 15.7635C15.6951 15.9147 15.4898 15.9997 15.2758 15.9996C15.0618 15.9995 14.8566 15.9144 14.7053 15.7631L10.4015 11.4593C9.11495 12.4558 7.49708 12.9247 5.87703 12.7707C4.25699 12.6167 2.75646 11.8513 1.68071 10.6302C0.604965 9.40911 0.034798 7.82408 0.0862047 6.19754C0.137611 4.57101 0.80673 3.02514 1.95744 1.87443C3.10815 0.723722 4.65401 0.0546036 6.28055 0.00319691C7.90709 -0.0482098 9.49212 0.521957 10.7132 1.59771C11.9343 2.67346 12.6997 4.17398 12.8537 5.79403C13.0077 7.41407 12.5388 9.03194 11.5423 10.3185H11.5431ZM6.4833 11.1993C7.75628 11.1993 8.97713 10.6936 9.87726 9.79345C10.7774 8.89332 11.2831 7.67248 11.2831 6.3995C11.2831 5.12652 10.7774 3.90568 9.87726 3.00554C8.97713 2.10541 7.75628 1.59972 6.4833 1.59972C5.21033 1.59972 3.98948 2.10541 3.08935 3.00554C2.18922 3.90568 1.68353 5.12652 1.68353 6.3995C1.68353 7.67248 2.18922 8.89332 3.08935 9.79345C3.98948 10.6936 5.21033 11.1993 6.4833 11.1993Z" fill="#2D3748"/>
</svg>
