<svg width="22" height="22" viewBox="0 0 22 22" fill="none" xmlns="http://www.w3.org/2000/svg">
<path d="M10.5625 0.878906C4.76406 0.878906 0.0625 5.58047 0.0625 11.3789C0.0625 17.1773 4.76406 21.8789 10.5625 21.8789C16.3609 21.8789 21.0625 17.1773 21.0625 11.3789C21.0625 5.58047 16.3609 0.878906 10.5625 0.878906ZM15.0977 7.95L10.1617 14.7938C10.0927 14.89 10.0018 14.9685 9.89642 15.0226C9.79106 15.0767 9.67431 15.105 9.55586 15.105C9.43741 15.105 9.32066 15.0767 9.2153 15.0226C9.10993 14.9685 9.01899 14.89 8.95 14.7938L6.02734 10.7437C5.93828 10.6195 6.02734 10.4461 6.17969 10.4461H7.27891C7.51797 10.4461 7.74531 10.5609 7.88594 10.7578L9.55469 13.0734L13.2391 7.96406C13.3797 7.76953 13.6047 7.65234 13.8461 7.65234H14.9453C15.0977 7.65234 15.1867 7.82578 15.0977 7.95Z" fill="#52C41A"/>
</svg>
