<svg width="22" height="22" viewBox="0 0 22 22" fill="none" xmlns="http://www.w3.org/2000/svg">
<path d="M10.5625 0.878906C4.76406 0.878906 0.0625 5.58047 0.0625 11.3789C0.0625 17.1773 4.76406 21.8789 10.5625 21.8789C16.3609 21.8789 21.0625 17.1773 21.0625 11.3789C21.0625 5.58047 16.3609 0.878906 10.5625 0.878906ZM14.4391 15.368L12.8922 15.3609L10.5625 12.5836L8.23516 15.3586L6.68594 15.3656C6.58281 15.3656 6.49844 15.2836 6.49844 15.1781C6.49844 15.1336 6.51484 15.0914 6.54297 15.0563L9.59219 11.4234L6.54297 7.79297C6.51465 7.75862 6.49893 7.71561 6.49844 7.67109C6.49844 7.56797 6.58281 7.48359 6.68594 7.48359L8.23516 7.49063L10.5625 10.268L12.8898 7.49297L14.4367 7.48594C14.5398 7.48594 14.6242 7.56797 14.6242 7.67344C14.6242 7.71797 14.6078 7.76016 14.5797 7.79531L11.5352 11.4258L14.582 15.0586C14.6102 15.0938 14.6266 15.1359 14.6266 15.1805C14.6266 15.2836 14.5422 15.368 14.4391 15.368Z" fill="#F5222D"/>
</svg>
