<svg width="16" height="16" viewBox="0 0 16 16" fill="none" xmlns="http://www.w3.org/2000/svg">
<path d="M5.53251 5.10689L7.25001 3.38189V10.5744C7.25001 10.7733 7.32903 10.9641 7.46968 11.1047C7.61033 11.2454 7.8011 11.3244 8.00001 11.3244C8.19892 11.3244 8.38969 11.2454 8.53034 11.1047C8.67099 10.9641 8.75001 10.7733 8.75001 10.5744V3.38189L10.4675 5.10689C10.5372 5.17718 10.6202 5.23298 10.7116 5.27106C10.803 5.30913 10.901 5.32874 11 5.32874C11.099 5.32874 11.1971 5.30913 11.2884 5.27106C11.3798 5.23298 11.4628 5.17718 11.5325 5.10689C11.6028 5.03716 11.6586 4.95421 11.6967 4.86282C11.7348 4.77142 11.7544 4.6734 11.7544 4.57439C11.7544 4.47538 11.7348 4.37735 11.6967 4.28595C11.6586 4.19456 11.6028 4.11161 11.5325 4.04189L8.53251 1.04189C8.46118 0.973605 8.37707 0.920081 8.28501 0.884385C8.10241 0.809372 7.89761 0.809372 7.71501 0.884385C7.62295 0.920081 7.53884 0.973605 7.46751 1.04189L4.46751 4.04189C4.39758 4.11182 4.34211 4.19483 4.30426 4.2862C4.26642 4.37757 4.24694 4.47549 4.24694 4.57439C4.24694 4.67328 4.26642 4.77121 4.30426 4.86257C4.34211 4.95394 4.39758 5.03696 4.46751 5.10689C4.53743 5.17682 4.62045 5.23229 4.71182 5.27013C4.80319 5.30798 4.90111 5.32746 5.00001 5.32746C5.0989 5.32746 5.19683 5.30798 5.28819 5.27013C5.37956 5.23229 5.46258 5.17682 5.53251 5.10689V5.10689ZM14.75 8.32439C14.5511 8.32439 14.3603 8.40341 14.2197 8.54406C14.079 8.68471 14 8.87548 14 9.07439V13.5744C14 13.7733 13.921 13.9641 13.7804 14.1047C13.6397 14.2454 13.4489 14.3244 13.25 14.3244H2.75C2.55109 14.3244 2.36032 14.2454 2.21967 14.1047C2.07902 13.9641 2 13.7733 2 13.5744V9.07439C2 8.87548 1.92098 8.68471 1.78033 8.54406C1.63968 8.40341 1.44891 8.32439 1.25 8.32439C1.05109 8.32439 0.860323 8.40341 0.71967 8.54406C0.579018 8.68471 0.5 8.87548 0.5 9.07439V13.5744C0.5 14.1711 0.737053 14.7434 1.15901 15.1654C1.58097 15.5873 2.15327 15.8244 2.75 15.8244H13.25C13.8468 15.8244 14.4191 15.5873 14.841 15.1654C15.263 14.7434 15.5 14.1711 15.5 13.5744V9.07439C15.5 8.9759 15.4806 8.87837 15.4429 8.78738C15.4052 8.69638 15.35 8.6137 15.2804 8.54406C15.2107 8.47441 15.128 8.41917 15.037 8.38148C14.946 8.34379 14.8485 8.32439 14.75 8.32439V8.32439Z" fill="#61A533"/>
</svg>
