<svg width="64" height="64" viewBox="0 0 64 64" fill="none" xmlns="http://www.w3.org/2000/svg">
<rect width="64" height="64" fill="#E5E5E5"/>
<g clip-path="url(#clip0_0_1)">
<rect width="1440" height="4817" transform="translate(-165 -473)" fill="white"/>
<circle r="32" transform="matrix(1 0 0 -1 32 32)" fill="#61A533"/>
<path d="M32 12C30.8394 12 29.686 12.1564 28.5718 12.4649C28.1388 12.5847 27.8836 13.0382 28.0017 13.4776C28.1197 13.9171 28.5669 14.1762 28.9993 14.0562C29.9742 13.7863 30.9838 13.6495 32 13.6495C38.2722 13.6495 43.375 18.8292 43.375 25.1958C43.375 31.1116 41.051 33.4221 39.0007 35.4606C37.6654 36.7881 36.3964 38.0511 36.119 40.0411H27.8809C27.6036 38.0511 26.3346 36.7881 24.9993 35.4606C22.949 33.4221 20.625 31.1116 20.625 25.1958C20.625 22.469 21.5794 19.8224 23.3123 17.7435C23.6022 17.3958 23.5595 16.8754 23.2169 16.5812C22.8744 16.2869 22.3616 16.3303 22.0718 16.678C20.0909 19.0543 19 22.0794 19 25.1958C19 31.8048 21.696 34.4852 23.8622 36.639C25.0956 37.8652 26.0317 38.7968 26.259 40.19C25.2272 40.5548 24.4844 41.5515 24.4844 42.7216C24.4844 43.9119 25.2528 44.9228 26.3125 45.2716V47.0516H26.1095C25.6608 47.0516 25.297 47.4208 25.297 47.8763C25.297 48.3318 25.6608 48.701 26.1095 48.701H26.3125V49.5258C26.3125 50.8901 27.406 52 28.75 52H35.25C36.594 52 37.6875 50.8901 37.6875 49.5258V48.701H37.8906C38.3393 48.701 38.7031 48.3318 38.7031 47.8763C38.7031 47.4208 38.3393 47.0516 37.8906 47.0516H37.6875V45.2716C38.7472 44.9229 39.5156 43.9119 39.5156 42.7216C39.5156 41.5516 38.7728 40.5548 37.741 40.19C37.9683 38.7968 38.9044 37.8652 40.1378 36.639C42.304 34.4853 45 31.8049 45 25.1958C45 17.9196 39.1683 12 32 12ZM36.0625 49.5257C36.0625 49.9805 35.698 50.3504 35.25 50.3504H28.75C28.302 50.3504 27.9375 49.9805 27.9375 49.5257V48.701H36.0625V49.5257ZM27.9375 47.0516V45.402H36.0625V47.0516H27.9375ZM36.875 43.7525H27.125C26.5649 43.7525 26.1094 43.29 26.1094 42.7215C26.1094 42.1531 26.5649 41.6906 27.125 41.6906H36.875C37.4351 41.6906 37.8906 42.1531 37.8906 42.7215C37.8906 43.29 37.4351 43.7525 36.875 43.7525Z" fill="#F7FAFC"/>
<path d="M16.0697 26C16.5834 26 17 25.5523 17 25C17 24.4477 16.5834 24 16.0697 24H13.9303C13.4166 24 13 24.4477 13 25C13 25.5523 13.4166 26 13.9303 26H16.0697Z" fill="#F7FAFC"/>
<path d="M17.7465 33.1248L14.4179 35.2641C14.0183 35.521 13.8813 36.0898 14.1121 36.5347C14.2669 36.8331 14.5477 37 14.8366 37C14.9783 37 15.122 36.9597 15.2535 36.8752L18.5821 34.7358C18.9817 34.479 19.1187 33.9101 18.8879 33.4652C18.6572 33.0204 18.1462 32.8679 17.7465 33.1248Z" fill="#F7FAFC"/>
<path d="M49.5821 35.2641L46.2535 33.1248C45.8538 32.8679 45.3427 33.0204 45.1121 33.4652C44.8813 33.9101 45.0183 34.479 45.4179 34.7358L48.7465 36.8752C48.8781 36.9598 49.0217 37 49.1634 37C49.4522 37 49.7331 36.8331 49.8879 36.5347C50.1187 36.0899 49.9817 35.5211 49.5821 35.2641Z" fill="#F7FAFC"/>
<path d="M50.0697 24H47.9303C47.4166 24 47 24.4477 47 25C47 25.5523 47.4166 26 47.9303 26H50.0697C50.5834 26 51 25.5523 51 25C51 24.4477 50.5834 24 50.0697 24Z" fill="#F7FAFC"/>
<path d="M45.8365 18C45.9783 18 46.122 17.9597 46.2535 17.8752L49.5821 15.7358C49.9817 15.479 50.1187 14.9101 49.8879 14.4652C49.6571 14.0204 49.1462 13.8679 48.7465 14.1247L45.4179 16.2641C45.0183 16.5209 44.8813 17.0898 45.1121 17.5347C45.2669 17.8332 45.5477 18 45.8365 18Z" fill="#F7FAFC"/>
<path d="M18.5821 16.2642L15.2535 14.1248C14.8537 13.8678 14.3428 14.0204 14.1121 14.4653C13.8813 14.9102 14.0183 15.479 14.4179 15.7358L17.7465 17.8752C17.8781 17.9597 18.0217 18 18.1634 18C18.4522 18 18.7331 17.8331 18.8879 17.5347C19.1187 17.0899 18.9817 16.521 18.5821 16.2642Z" fill="#F7FAFC"/>
<path d="M34.6187 29.6268C34.9596 29.0905 35.6231 28.3717 36.2273 27.7392C36.7886 27.1515 37.2291 26.4625 37.537 25.691C37.8442 24.9209 38 24.1102 38 23.2816C38 21.6039 37.3758 20.0265 36.2425 18.8399C35.1091 17.6534 33.6025 17 32 17C30.3975 17 28.8909 17.6535 27.7575 18.8399C26.6242 20.0265 26 21.6039 26 23.2816C26 24.6671 27.0766 25.7943 28.4 25.7943C29.7234 25.7943 30.8 24.6671 30.8 23.2816C30.8 22.9459 30.9248 22.6304 31.1514 22.3932C31.378 22.156 31.6794 22.0253 32 22.0253C32.3206 22.0253 32.622 22.156 32.8486 22.3932C33.0752 22.6304 33.2 22.9459 33.2 23.2816C33.2 23.4522 33.1699 23.6141 33.1106 23.7628C33.0501 23.9143 32.9568 24.0567 32.8334 24.186C31.7426 25.328 31.1025 26.1009 30.6242 26.8536C29.9255 27.953 29.6 28.9962 29.6 30.1364C29.6 30.7795 29.8322 31.3667 30.2131 31.8116C29.8322 32.2566 29.6 32.8439 29.6 33.4873C29.6 34.8728 30.6766 36 32 36C33.3234 36 34.4 34.8728 34.4 33.4873V33.4868C34.4 32.8437 34.1678 32.2565 33.7869 31.8116C34.1678 31.3667 34.4 30.7795 34.4 30.1364C34.4001 30.061 34.4381 29.9113 34.6187 29.6268ZM31.9564 27.7816C32.3721 27.1273 32.954 26.4289 33.9649 25.3705C34.2365 25.086 34.4458 24.7624 34.587 24.4086C34.7283 24.0543 34.8 23.6751 34.8 23.2817C34.8 22.4985 34.5087 21.7623 33.98 21.2088C33.4513 20.6552 32.7482 20.3503 32 20.3503C31.2518 20.3503 30.5487 20.6552 30.0201 21.2088C29.4913 21.7623 29.2 22.4985 29.2 23.2817C29.2 23.7435 28.8411 24.1193 28.4 24.1193C27.9589 24.1193 27.6 23.7435 27.6 23.2817C27.6 22.0514 28.0578 20.8947 28.8889 20.0246C29.72 19.1544 30.8249 18.6752 32 18.6752C33.1751 18.6752 34.28 19.1544 35.1111 20.0246C35.9423 20.8947 36.4 22.0514 36.4 23.2817C36.4 23.8875 36.2858 24.4809 36.0606 25.0454C35.8335 25.6145 35.5089 26.1223 35.0959 26.5548C34.1481 27.5469 33.624 28.1681 33.2866 28.699C32.9546 29.2214 32.8 29.6782 32.8 30.1365C32.8 30.5983 32.4411 30.974 32 30.974C31.5589 30.974 31.2 30.5983 31.2 30.1365C31.2001 29.3308 31.4334 28.6045 31.9564 27.7816ZM32.8001 33.4873C32.8001 33.9492 32.4412 34.3249 32.0001 34.3249C31.559 34.3249 31.2001 33.9492 31.2001 33.4868C31.2001 33.0249 31.559 32.6492 32.0001 32.6492C32.4412 32.6492 32.8001 33.0249 32.8001 33.4868V33.4873Z" fill="#F7FAFC"/>
<path d="M26.0002 16C26.5523 16 27 15.5523 27 15C27 14.4477 26.5523 14 26.0002 14H25.9994C25.4473 14 25 14.4477 25 15C25 15.5523 25.448 16 26.0002 16Z" fill="#F7FAFC"/>
</g>
<defs>
<clipPath id="clip0_0_1">
<rect width="1440" height="4817" fill="white" transform="translate(-165 -473)"/>
</clipPath>
</defs>
</svg>
