<svg width="20" height="20" viewBox="0 0 20 20" fill="none" xmlns="http://www.w3.org/2000/svg">
<path d="M11.6697 9.82597L9.33014 8.73431C9.12597 8.63952 8.95826 8.74577 8.95826 8.97181V11.028C8.95826 11.2541 9.12597 11.3603 9.33014 11.2655L11.6687 10.1739C11.8739 10.078 11.8739 9.9218 11.6697 9.82597ZM9.99992 0C4.47705 0 0 4.47705 0 9.99992C0 15.5228 4.47705 19.9998 9.99992 19.9998C15.5228 19.9998 19.9998 15.5228 19.9998 9.99992C19.9998 4.47705 15.5228 0 9.99992 0ZM9.99992 14.0624C4.88121 14.0624 4.79163 13.6009 4.79163 9.99992C4.79163 6.39891 4.88121 5.93745 9.99992 5.93745C15.1186 5.93745 15.2082 6.39891 15.2082 9.99992C15.2082 13.6009 15.1186 14.0624 9.99992 14.0624Z" fill="#718096"/>
</svg>
