<svg width="90" height="100" viewBox="0 0 90 100" fill="none" xmlns="http://www.w3.org/2000/svg">
<path d="M76.1543 30.8955C76.1549 37.0068 74.3282 42.981 70.9054 48.0626C67.4825 53.1442 62.6171 57.105 56.9245 59.4441C51.2318 61.7832 44.9677 62.3955 38.9242 61.2036C32.8807 60.0118 27.3293 57.0692 22.972 52.7481C18.6147 48.427 15.6473 42.9214 14.445 36.9276C13.2426 30.9338 13.8594 24.721 16.2173 19.0748C18.5752 13.4287 22.5683 8.60285 27.6916 5.20754C32.8149 1.81224 38.8384 2.89746e-08 45.0002 0C53.2623 -3.88504e-08 61.186 3.25495 67.0284 9.04889C72.8708 14.8428 76.1535 22.7012 76.1543 30.8955ZM32.5914 23.9684H38.2768C38.3606 23.9655 38.4402 23.9312 38.4995 23.8724C38.5588 23.8135 38.5934 23.7346 38.5964 23.6515C38.8249 22.1291 39.5972 20.7388 40.7725 19.7338C41.9479 18.7288 43.4481 18.1759 45 18.1759C46.5519 18.1759 48.0521 18.7288 49.2275 19.7338C50.4028 20.7388 51.1751 22.1291 51.4036 23.6515C51.4114 23.7359 51.45 23.8146 51.512 23.873C51.5741 23.9313 51.6554 23.9652 51.7409 23.9684H57.4058C57.4476 23.9688 57.4891 23.9609 57.5279 23.9453C57.5666 23.9297 57.6019 23.9066 57.6316 23.8774C57.6613 23.8482 57.6849 23.8134 57.701 23.7751C57.7171 23.7368 57.7254 23.6958 57.7254 23.6543C57.4857 20.4696 56.041 17.4925 53.6809 15.32C51.3209 13.1475 48.22 11.9402 45 11.9402C41.78 11.9402 38.6791 13.1475 36.3191 15.32C33.959 17.4925 32.5143 20.4696 32.2746 23.6543C32.2746 23.6955 32.2828 23.7364 32.2987 23.7745C32.3147 23.8126 32.338 23.8472 32.3674 23.8764C32.3968 23.9056 32.4317 23.9287 32.4701 23.9445C32.5086 23.9603 32.5498 23.9684 32.5914 23.9684ZM51.1202 35.6967C52.9865 34.6855 54.5683 33.2275 55.7216 31.4554C56.8748 29.6832 57.563 27.6532 57.7235 25.55C57.7235 25.5085 57.7153 25.4674 57.6992 25.4291C57.6831 25.3908 57.6595 25.3561 57.6297 25.3269C57.6 25.2977 57.5648 25.2746 57.526 25.259C57.4872 25.2434 57.4457 25.2355 57.4039 25.2359H51.7066C51.6232 25.2388 51.5441 25.2727 51.4848 25.3309C51.4256 25.3891 51.3907 25.4674 51.3871 25.55C51.1585 27.0724 50.3862 28.4627 49.2109 29.4677C48.0355 30.4727 46.5353 31.0256 44.9834 31.0256C43.4315 31.0256 41.9313 30.4727 40.7559 29.4677C39.5806 28.4627 38.8083 27.0724 38.5798 25.55C38.579 25.4665 38.545 25.3866 38.4852 25.3277C38.4253 25.2689 38.3445 25.2359 38.2602 25.2359H32.5836C32.4993 25.2359 32.4184 25.2689 32.3585 25.3277C32.2987 25.3865 32.2647 25.4664 32.2639 25.55C32.4244 27.6532 33.1126 29.6832 34.2659 31.4554C35.4191 33.2275 37.0009 34.6855 38.8672 35.6967C36.9056 36.7606 35.2603 38.3171 34.0962 40.2102C32.9322 42.1033 32.2901 44.2666 32.2345 46.4833C32.2341 46.5248 32.242 46.566 32.2578 46.6044C32.2735 46.6429 32.2968 46.6778 32.3263 46.7073C32.3557 46.7368 32.3908 46.7602 32.4294 46.7761C32.468 46.7921 32.5095 46.8003 32.5513 46.8003H38.2192C38.2993 46.7937 38.374 46.7574 38.4283 46.6987C38.4827 46.64 38.5127 46.5631 38.5124 46.4833C38.5918 44.8353 39.3078 43.2808 40.5119 42.1424C41.716 41.0039 43.3157 40.3688 44.9793 40.3688C46.6428 40.3688 48.2426 41.0039 49.4466 42.1424C50.6507 43.2808 51.3667 44.8353 51.4461 46.4833C51.4461 46.5674 51.4798 46.648 51.5397 46.7074C51.5996 46.7669 51.6809 46.8003 51.7657 46.8003H57.4189C57.4608 46.8003 57.5024 46.7921 57.5411 46.7761C57.5799 46.7602 57.6151 46.7369 57.6448 46.7074C57.6745 46.678 57.698 46.6431 57.7141 46.6046C57.7301 46.5662 57.7384 46.5249 57.7384 46.4833C57.6839 44.2681 57.044 42.106 55.8826 40.213C54.7212 38.3201 53.0791 36.7628 51.1205 35.6967H51.1202ZM76.1543 75.5262H71.108V99.5586H75.9226V85.8875L79.019 92.2795H82.0919L85.1854 85.9079V99.5589H90V75.5265H84.8863L80.5496 84.7714L76.1543 75.5262ZM29.8024 75.5262L26.3718 82.5231L22.9382 75.5262H17.2498L23.5217 87.5253L17.2146 99.5566H22.9705L26.3718 92.5771L29.773 99.5566H35.5289L29.2218 87.5253L35.4937 75.5262H29.8024ZM59.8279 83.0291L61.7954 90.5901H57.8223L59.8279 83.0291ZM64.1294 99.5585H69.0437L62.6193 75.5261H56.8723L50.5535 99.5585H55.4883L56.6142 95.301H63.0269L64.1294 99.5585ZM50.2806 90.0867V85.2302H42.956V80.4115H51.4827V75.5259H38.006V99.5553H42.9232V90.0864L50.2806 90.0867ZM11.0214 92.608C11.0214 94.4663 9.1009 95.0944 7.97489 95.0944C6.84898 95.0944 4.92542 94.4663 4.92542 92.608V82.4793C4.92542 80.6211 6.84888 79.993 7.97489 79.993C9.1008 79.993 11.0214 80.6211 11.0214 82.4793V92.608ZM7.9755 75.0867C2.53051 75.1012 0 78.8876 0 82.104V92.9798C0 96.199 2.53041 99.9854 7.9755 100C13.4205 100.015 15.9481 96.199 15.9481 92.9798V82.104C15.9481 78.8876 13.4206 75.1012 7.9755 75.0867Z" fill="#61A533"/>
</svg>
