<svg width="106" height="39" viewBox="0 0 106 39" fill="none" xmlns="http://www.w3.org/2000/svg">
<path d="M39.75 19.5021C39.75 30.2726 30.8502 39 19.8729 39C8.89976 38.9958 0 30.2685 0 19.4979C0 8.72736 8.89976 0 19.8771 0C25.1474 0 30.2058 2.0557 33.9327 5.71261C37.6554 9.36534 39.75 14.3274 39.75 19.5021ZM11.9526 15.1238H15.582C15.6922 15.1196 15.7813 15.0321 15.7855 14.9237C16.0908 12.9388 17.8292 11.4711 19.8729 11.4711C21.9166 11.4711 23.655 12.9388 23.9602 14.9237C23.9687 15.0362 24.062 15.1196 24.1765 15.1238H27.789C27.8992 15.1238 27.9925 15.0362 27.9925 14.9237C27.6702 10.758 24.1298 7.53897 19.8729 7.53897C15.6159 7.53897 12.0755 10.758 11.7533 14.9237C11.749 15.0362 11.8381 15.1238 11.9526 15.1238ZM23.7694 22.5293C26.1862 21.2325 27.7678 18.8224 27.9755 16.1246C27.9755 16.0161 27.8865 15.9244 27.772 15.9244C27.772 15.9244 27.772 15.9244 27.7678 15.9244H24.1553C24.045 15.9286 23.956 16.0161 23.9518 16.1246C23.6507 18.1094 21.9123 19.5813 19.8644 19.5813C17.8165 19.5813 16.0823 18.1135 15.7813 16.1246C15.777 16.0161 15.688 15.9286 15.5778 15.9244H11.9483C11.8381 15.9244 11.749 16.012 11.7448 16.1246C11.9526 18.8224 13.5341 21.2325 15.9509 22.5293C13.4069 23.8929 11.7914 26.4865 11.7194 29.3344C11.7194 29.4429 11.8084 29.5346 11.9186 29.5346H11.9229H15.5311C15.6414 29.5346 15.7346 29.447 15.7346 29.3344C15.8237 27.1578 17.6469 25.4357 19.8644 25.4399C22.0819 25.4357 23.9051 27.1578 23.9942 29.3344C23.9942 29.4429 24.0874 29.5346 24.1977 29.5346H27.8017C27.9162 29.5346 28.0052 29.4429 28.0052 29.3344C27.9331 26.4865 26.3177 23.8887 23.7694 22.5293ZM53.6699 10.5537C57.1382 10.5621 58.7579 12.9555 58.7579 14.982V21.8497C58.7579 23.8845 57.1467 26.2947 53.6699 26.2822C50.1931 26.2696 48.5819 23.8804 48.5819 21.8497V14.9862C48.5819 12.9555 50.1931 10.5621 53.6699 10.5537ZM55.6118 21.612V15.2197C55.6118 14.048 54.3865 13.6519 53.6657 13.6519C52.9449 13.6519 51.7195 14.048 51.7195 15.2197V21.612C51.7195 22.7837 52.9449 23.1798 53.6657 23.1798C54.3865 23.1798 55.6118 22.7837 55.6118 21.612ZM75.9638 25.9944H72.8305V10.8331H81.4292V13.9146H75.9893V16.9543H80.6618V20.0191H75.9681L75.9638 25.9944ZM89.4937 25.9944L88.7898 23.3091H84.6982L83.9817 25.9944H80.8314L84.8678 10.8289H88.5312L92.627 25.9944H89.4937ZM86.7504 15.5658L85.4699 20.336H88.0054L86.7504 15.5658ZM67.2252 18.4054L71.249 25.9986H67.5771L65.4062 21.5953L63.2354 25.9986H59.5635L63.5873 18.4054L59.5847 10.8331H63.2142L65.4062 15.2489L67.5941 10.8331H71.2235L67.2252 18.4054ZM102.735 10.8331H106V25.9986H102.926V17.3838L100.954 21.4035H98.9955L97.0239 17.3713V25.9986H93.9499V10.8331H97.1681L99.9707 16.6666L102.735 10.8331Z" fill="white" fill-opacity="0.92"/>
</svg>
