<svg width="20" height="17" viewBox="0 0 20 17" fill="none" xmlns="http://www.w3.org/2000/svg">
<path fill-rule="evenodd" clip-rule="evenodd" d="M10.8369 12.1318L9.39604 13.4519L3.43163 7.98813C2.85028 7.45041 2.52717 6.72691 2.52717 5.9561C2.52717 5.18529 2.85028 4.46179 3.43911 3.91715C4.02295 3.37827 4.79642 3.08056 5.61979 3.08056C6.39699 3.08056 7.14426 3.34712 7.72311 3.8306L9.39604 5.37453L11.069 3.8306C11.6478 3.34712 12.3951 3.08056 13.1723 3.08056C13.9957 3.08056 14.7691 3.37827 15.3517 3.91715C15.474 4.02908 15.5775 4.15485 15.6761 4.28178C15.867 4.25409 16.0591 4.22755 16.2574 4.22755C17.1644 4.22755 17.9852 4.53795 18.6327 5.03528C18.4369 4.02908 17.9254 3.06441 17.0845 2.28667C14.96 0.321569 11.568 0.278874 9.36485 2.12167C7.16048 0.278874 3.76846 0.321569 1.64393 2.28667C-0.547975 4.31409 -0.547975 7.60273 1.64393 9.63015L9.36485 16.7751L12.7931 13.6031C12.7494 13.505 12.7269 13.4 12.6932 13.2984C11.9485 13.0919 11.3073 12.6822 10.8369 12.1318ZM18.7528 8.84317H17.5052V7.68926C17.5052 7.05231 16.9463 6.53536 16.2577 6.53536C15.5691 6.53536 15.0102 7.05231 15.0102 7.68926V8.84317H13.7627C13.074 8.84317 12.5151 9.36012 12.5151 9.99708C12.5151 10.634 13.074 11.151 13.7627 11.151H15.0102V12.3049C15.0102 12.9419 15.5691 13.4588 16.2577 13.4588C16.9463 13.4588 17.5052 12.9419 17.5052 12.3049V11.151H18.7528C19.4414 11.151 20.0003 10.634 20.0003 9.99708C20.0003 9.36012 19.4414 8.84317 18.7528 8.84317Z" fill="white"/>
</svg>
