<svg width="8" height="10" viewBox="0 0 8 10" fill="none" xmlns="http://www.w3.org/2000/svg">
<path fill-rule="evenodd" clip-rule="evenodd" d="M4 10C3.72386 10 3.5 9.77614 3.5 9.5L3.5 1.25C3.5 0.973858 3.72386 0.75 4 0.75C4.27614 0.75 4.5 0.973858 4.5 1.25L4.5 9.5C4.5 9.77614 4.27614 10 4 10Z" fill="#808080"/>
<path fill-rule="evenodd" clip-rule="evenodd" d="M7.72855 4.97855C7.53329 5.17382 7.21671 5.17382 7.02145 4.97855L4 1.95711L0.978552 4.97855C0.78329 5.17381 0.466708 5.17381 0.271446 4.97855C0.0761833 4.78329 0.0761834 4.46671 0.271446 4.27145L3.64645 0.896446C3.84171 0.701184 4.15829 0.701184 4.35355 0.896446L7.72855 4.27145C7.92382 4.46671 7.92382 4.78329 7.72855 4.97855Z" fill="#808080"/>
</svg>
