<svg width="8" height="10" viewBox="0 0 8 10" fill="none" xmlns="http://www.w3.org/2000/svg">
<path fill-rule="evenodd" clip-rule="evenodd" d="M4 0.125C4.27614 0.125 4.5 0.348858 4.5 0.625V8.875C4.5 9.15114 4.27614 9.375 4 9.375C3.72386 9.375 3.5 9.15114 3.5 8.875V0.625C3.5 0.348858 3.72386 0.125 4 0.125Z" fill="#3A3A3A"/>
<path fill-rule="evenodd" clip-rule="evenodd" d="M0.271447 5.14645C0.466709 4.95118 0.783291 4.95118 0.978553 5.14645L4 8.16789L7.02145 5.14645C7.21671 4.95118 7.53329 4.95118 7.72855 5.14645C7.92382 5.34171 7.92382 5.65829 7.72855 5.85355L4.35355 9.22855C4.15829 9.42382 3.84171 9.42382 3.64645 9.22855L0.271447 5.85355C0.0761845 5.65829 0.0761845 5.34171 0.271447 5.14645Z" fill="#3A3A3A"/>
</svg>
