<svg width="14" height="13" viewBox="0 0 14 13" fill="none" xmlns="http://www.w3.org/2000/svg">
<path fill-rule="evenodd" clip-rule="evenodd" d="M1.63005 0.333252H12.3695C12.5955 0.333252 12.8167 0.398904 13.0061 0.522229C13.1955 0.645555 13.345 0.821243 13.4364 1.02794C13.5279 1.23464 13.5573 1.46344 13.5211 1.68655C13.485 1.90966 13.3848 2.11746 13.2328 2.2847L9.16644 6.75766V10.2323C9.16644 10.4244 9.11902 10.6135 9.02839 10.7828C8.93776 10.9522 8.80673 11.0965 8.64692 11.2031L6.64692 12.5364C6.47122 12.6535 6.26702 12.7208 6.0561 12.731C5.84518 12.7412 5.63545 12.6939 5.44927 12.5943C5.26309 12.4946 5.10744 12.3463 4.99893 12.1652C4.89042 11.984 4.8331 11.7768 4.8331 11.5657V6.75766L0.766783 2.2847L1.26008 1.83625L0.766783 2.2847C0.614746 2.11746 0.514561 1.90966 0.478404 1.68655C0.442248 1.46344 0.471676 1.23464 0.563113 1.02794C0.65455 0.821242 0.804058 0.645554 0.993466 0.522229C1.18287 0.398904 1.40403 0.333252 1.63005 0.333252ZM4.87645 6.80534C4.87636 6.80524 4.87628 6.80515 4.87619 6.80506L4.87645 6.80534ZM2.0068 1.66659L5.86303 5.90844C6.05826 6.12319 6.16644 6.403 6.16644 6.69322L6.16644 11.2542L7.8331 10.1431V6.69322C7.8331 6.403 7.94128 6.12319 8.13651 5.90844L11.9927 1.66659H2.0068ZM7.90732 10.0937L7.90697 10.0939L7.90732 10.0937Z" fill="#2154FF"/>
</svg>
