<svg width="14" height="12" viewBox="0 0 14 12" fill="none" xmlns="http://www.w3.org/2000/svg">
<path d="M10.0015 5.51906e-06C9.41939 -0.000994253 8.8451 0.13385 8.3243 0.393812C7.8035 0.653774 7.35054 1.03168 7.00146 1.49747C6.52869 0.868437 5.87008 0.404001 5.11882 0.169882C4.36756 -0.0642361 3.5617 -0.0561808 2.81528 0.192909C2.06885 0.441998 1.41965 0.919507 0.959546 1.55787C0.499442 2.19623 0.251731 2.96311 0.251465 3.75001C0.251465 8.24143 6.49152 11.7875 6.75714 11.9363C6.83179 11.9781 6.91591 12 7.00146 12C7.08702 12 7.17114 11.9781 7.24579 11.9363C8.39345 11.2641 9.47059 10.4782 10.4609 9.5904C12.6443 7.62531 13.7515 5.66031 13.7515 3.75001C13.7503 2.75579 13.3549 1.80262 12.6519 1.0996C11.9489 0.396582 10.9957 0.00113237 10.0015 5.51906e-06Z" fill="#FF0000"/>
</svg>
