<svg width="19" height="19" viewBox="0 0 19 19" fill="none" xmlns="http://www.w3.org/2000/svg">
<path d="M3.33336 4.3447L0.630859 1.64303L1.81003 0.463867L4.51169 3.16637H17.2134C17.3432 3.16636 17.4713 3.19671 17.5874 3.25501C17.7035 3.3133 17.8043 3.39792 17.8819 3.50211C17.9594 3.60631 18.0116 3.72719 18.0341 3.85511C18.0566 3.98303 18.049 4.11444 18.0117 4.23887L16.0117 10.9055C15.9602 11.0773 15.8548 11.2278 15.711 11.3349C15.5671 11.4419 15.3926 11.4997 15.2134 11.4997H5.00003V13.1664H14.1667V14.833H4.16669C3.94568 14.833 3.73372 14.7452 3.57744 14.589C3.42116 14.4327 3.33336 14.2207 3.33336 13.9997V4.3447ZM4.58336 18.1664C4.25184 18.1664 3.9339 18.0347 3.69948 17.8003C3.46506 17.5658 3.33336 17.2479 3.33336 16.9164C3.33336 16.5848 3.46506 16.2669 3.69948 16.0325C3.9339 15.7981 4.25184 15.6664 4.58336 15.6664C4.91488 15.6664 5.23282 15.7981 5.46724 16.0325C5.70166 16.2669 5.83336 16.5848 5.83336 16.9164C5.83336 17.2479 5.70166 17.5658 5.46724 17.8003C5.23282 18.0347 4.91488 18.1664 4.58336 18.1664ZM14.5834 18.1664C14.2518 18.1664 13.9339 18.0347 13.6995 17.8003C13.4651 17.5658 13.3334 17.2479 13.3334 16.9164C13.3334 16.5848 13.4651 16.2669 13.6995 16.0325C13.9339 15.7981 14.2518 15.6664 14.5834 15.6664C14.9149 15.6664 15.2328 15.7981 15.4672 16.0325C15.7017 16.2669 15.8334 16.5848 15.8334 16.9164C15.8334 17.2479 15.7017 17.5658 15.4672 17.8003C15.2328 18.0347 14.9149 18.1664 14.5834 18.1664Z" fill="white"/>
</svg>
