<svg width="37" height="37" viewBox="0 0 37 37" fill="none" xmlns="http://www.w3.org/2000/svg">
<path d="M18.437 3.97363C10.157 3.97363 3.43701 10.6936 3.43701 18.9736C3.43701 27.2536 10.157 33.9736 18.437 33.9736C26.717 33.9736 33.437 27.2536 33.437 18.9736C33.437 10.6936 26.717 3.97363 18.437 3.97363ZM18.437 26.4736C17.612 26.4736 16.937 25.7986 16.937 24.9736V18.9736C16.937 18.1486 17.612 17.4736 18.437 17.4736C19.262 17.4736 19.937 18.1486 19.937 18.9736V24.9736C19.937 25.7986 19.262 26.4736 18.437 26.4736ZM19.937 14.4736H16.937V11.4736H19.937V14.4736Z" fill="#FEBD17"/>
</svg>
