<svg width="24" height="24" viewBox="0 0 24 24" fill="none" xmlns="http://www.w3.org/2000/svg">
<path d="M22.4218 9.1323C22.3282 8.83831 22.1481 8.57938 21.9051 8.38927C21.662 8.19917 21.3674 8.08673 21.0595 8.06662L15.4916 7.67697L13.4262 2.47604C13.3144 2.18851 13.1184 1.94145 12.8638 1.76724C12.6092 1.59302 12.3079 1.49978 11.9994 1.49973H11.998C11.69 1.50027 11.3893 1.59376 11.1352 1.76794C10.8812 1.94213 10.6857 2.18892 10.5741 2.47604L8.47795 7.707L2.94084 8.06662C2.63296 8.08673 2.33829 8.19917 2.09527 8.38927C1.85226 8.57938 1.67218 8.83831 1.57854 9.1323C1.47975 9.43045 1.47303 9.75145 1.55925 10.0535C1.64547 10.3555 1.82064 10.6246 2.06194 10.8257L6.3217 14.4262L5.05461 19.4104C4.96728 19.7461 4.98334 20.1004 5.10069 20.4268C5.21804 20.7533 5.43122 21.0367 5.71233 21.24C5.98372 21.4374 6.30827 21.5486 6.64373 21.5591C6.97919 21.5695 7.31002 21.4787 7.59318 21.2986L11.9877 18.5146C11.9936 18.5102 11.9994 18.5073 12.0126 18.5146L16.7411 21.5102C16.9978 21.6742 17.2981 21.757 17.6026 21.7475C17.907 21.7381 18.2016 21.637 18.4477 21.4575C18.7024 21.2734 18.8956 21.0166 19.0019 20.7209C19.1083 20.4252 19.1229 20.1042 19.0439 19.8L17.6977 14.3552L21.9384 10.8257C22.1797 10.6246 22.3549 10.3555 22.4411 10.0535C22.5273 9.75145 22.5206 9.43045 22.4218 9.1323Z" fill="#CBD5E0"/>
</svg>
