<svg width="128" height="128" viewBox="0 0 128 128" fill="none" xmlns="http://www.w3.org/2000/svg">
<path d="M64 128C99.3462 128 128 99.3462 128 64C128 28.6538 99.3462 0 64 0C28.6538 0 0 28.6538 0 64C0 99.3462 28.6538 128 64 128Z" fill="#FF4444"/>
<path opacity="0.3" d="M77.4663 126.491C78.6936 126.253 79.9137 125.979 81.125 125.669C83.1788 125.095 85.2027 124.419 87.189 123.643C89.1778 122.873 91.1269 122.004 93.029 121.04C94.9316 120.072 96.7846 119.009 98.581 117.856C100.375 116.703 102.111 115.46 103.781 114.133C105.454 112.805 107.06 111.393 108.592 109.904C110.121 108.418 111.575 106.857 112.949 105.227C114.324 103.595 115.616 101.895 116.821 100.133C118.026 98.3751 119.142 96.5577 120.165 94.688C121.188 92.8157 122.118 90.8933 122.949 88.928C123.781 86.9624 124.515 84.9563 125.146 82.9174C125.687 81.1322 126.15 79.3243 126.533 77.4987L88.5063 39.4774C85.2949 36.2518 81.4774 33.6931 77.2734 31.9485C73.0694 30.204 68.5619 29.3079 64.0103 29.312C59.4546 29.3071 54.9428 30.2026 50.7344 31.9471C46.5259 33.6916 42.7037 36.2508 39.4876 39.4774C36.2634 42.6945 33.7054 46.516 31.9601 50.723C30.2148 54.93 29.3164 59.44 29.3164 63.9947C29.3164 68.5494 30.2148 73.0594 31.9601 77.2664C33.7054 81.4735 36.2634 85.2949 39.4876 88.512L77.4663 126.485V126.491Z" fill="#394160"/>
<path d="M98.37 63.685C98.37 72.884 94.7157 81.7063 88.211 88.211C81.7063 94.7157 72.884 98.37 63.685 98.37C54.486 98.37 45.6637 94.7157 39.159 88.211C32.6543 81.7063 29 72.884 29 63.685C29 54.486 32.6543 45.6637 39.159 39.159C45.6637 32.6543 54.486 29 63.685 29C72.884 29 81.7063 32.6543 88.211 39.159C94.7157 45.6637 98.37 54.486 98.37 63.685ZM52.2129 49.1433C51.8059 48.7363 51.2538 48.5076 50.6781 48.5076C50.1025 48.5076 49.5504 48.7363 49.1433 49.1433C48.7363 49.5504 48.5076 50.1025 48.5076 50.6781C48.5076 51.2538 48.7363 51.8059 49.1433 52.2129L60.6197 63.685L49.1433 75.1571C48.9418 75.3586 48.7819 75.5979 48.6728 75.8612C48.5637 76.1246 48.5076 76.4068 48.5076 76.6919C48.5076 76.9769 48.5637 77.2592 48.6728 77.5225C48.7819 77.7859 48.9418 78.0251 49.1433 78.2267C49.5504 78.6337 50.1025 78.8624 50.6781 78.8624C50.9632 78.8624 51.2454 78.8063 51.5088 78.6972C51.7721 78.5881 52.0114 78.4282 52.2129 78.2267L63.685 66.7503L75.1571 78.2267C75.3586 78.4282 75.5979 78.5881 75.8612 78.6972C76.1246 78.8063 76.4068 78.8624 76.6919 78.8624C76.9769 78.8624 77.2592 78.8063 77.5225 78.6972C77.7859 78.5881 78.0251 78.4282 78.2267 78.2267C78.4282 78.0251 78.5881 77.7859 78.6972 77.5225C78.8063 77.2592 78.8624 76.9769 78.8624 76.6919C78.8624 76.4068 78.8063 76.1246 78.6972 75.8612C78.5881 75.5979 78.4282 75.3586 78.2267 75.1571L66.7503 63.685L78.2267 52.2129C78.4282 52.0114 78.5881 51.7721 78.6972 51.5088C78.8063 51.2454 78.8624 50.9632 78.8624 50.6781C78.8624 50.3931 78.8063 50.1108 78.6972 49.8475C78.5881 49.5841 78.4282 49.3449 78.2267 49.1433C78.0251 48.9418 77.7859 48.7819 77.5225 48.6728C77.2592 48.5637 76.9769 48.5076 76.6919 48.5076C76.4068 48.5076 76.1246 48.5637 75.8612 48.6728C75.5979 48.7819 75.3586 48.9418 75.1571 49.1433L63.685 60.6197L52.2129 49.1433Z" fill="white"/>
</svg>
