<svg width="12" height="14" viewBox="0 0 12 14" fill="none" xmlns="http://www.w3.org/2000/svg">
<path d="M10.5503 12.9464C10.6895 12.9464 10.8231 13.0018 10.9215 13.1002C11.02 13.1987 11.0753 13.3322 11.0753 13.4715C11.0753 13.6107 11.02 13.7443 10.9215 13.8427C10.8231 13.9412 10.6895 13.9965 10.5503 13.9965L1.44983 14C1.31059 14 1.17704 13.9447 1.07858 13.8462C0.98012 13.7478 0.924805 13.6142 0.924805 13.475C0.924805 13.3357 0.98012 13.2022 1.07858 13.1037C1.17704 13.0053 1.31059 12.9499 1.44983 12.9499L10.5503 12.9471V12.9464ZM5.92866 0.00560021L6.00006 0.000699984C6.12693 0.000705335 6.24951 0.0466521 6.34513 0.130043C6.44074 0.213435 6.50293 0.328629 6.52018 0.454323L6.52508 0.525726L6.52438 10.1057L9.12992 7.50157C9.21881 7.41266 9.33667 7.3586 9.46205 7.34922C9.58743 7.33984 9.71202 7.37577 9.81315 7.45047L9.87265 7.50157C9.96146 7.59056 10.0154 7.70846 10.0246 7.83384C10.0339 7.95922 9.99785 8.08376 9.92305 8.18481L9.87195 8.24361L6.37388 11.7417C6.28498 11.8306 6.16713 11.8847 6.04174 11.894C5.91636 11.9034 5.79178 11.8675 5.69064 11.7928L5.63114 11.7417L2.12886 8.24431C2.03468 8.15075 1.97944 8.02498 1.97427 7.89232C1.96909 7.75967 2.01435 7.62997 2.10096 7.52935C2.18756 7.42873 2.30906 7.36465 2.44101 7.35002C2.57296 7.33538 2.70555 7.37128 2.8121 7.45047L2.8709 7.50088L5.47433 10.1008L5.47503 0.525026C5.47504 0.398154 5.52098 0.275574 5.60438 0.179958C5.68777 0.0843407 5.80296 0.0221549 5.92866 0.00490022L6.00006 0L5.92866 0.00490022V0.00560021Z" fill="white"/>
</svg>
