<svg width="11" height="14" viewBox="0 0 11 14" fill="none" xmlns="http://www.w3.org/2000/svg">
<path d="M10.4761 12.9464C10.6153 12.9464 10.7489 13.0018 10.8473 13.1002C10.9458 13.1987 11.0011 13.3322 11.0011 13.4715C11.0011 13.6107 10.9458 13.7443 10.8473 13.8427C10.7489 13.9412 10.6153 13.9965 10.4761 13.9965L1.37561 14C1.23637 14 1.10282 13.9447 1.00436 13.8462C0.905901 13.7478 0.850586 13.6142 0.850586 13.475C0.850586 13.3357 0.905901 13.2022 1.00436 13.1037C1.10282 13.0053 1.23637 12.9499 1.37561 12.9499L10.4761 12.9471V12.9464ZM5.85444 0.00560021L5.92584 0.000699984C6.05271 0.000705335 6.17529 0.0466521 6.27091 0.130043C6.36653 0.213435 6.42871 0.328629 6.44597 0.454323L6.45087 0.525726L6.45017 10.1057L9.0557 7.50157C9.14459 7.41266 9.26245 7.3586 9.38783 7.34922C9.51321 7.33984 9.6378 7.37577 9.73893 7.45047L9.79843 7.50157C9.88725 7.59056 9.94118 7.70846 9.95043 7.83384C9.95968 7.95922 9.92363 8.08376 9.84884 8.18481L9.79773 8.24361L6.29966 11.7417C6.21076 11.8306 6.09291 11.8847 5.96753 11.894C5.84214 11.9034 5.71756 11.8675 5.61642 11.7928L5.55692 11.7417L2.05465 8.24431C1.96046 8.15075 1.90522 8.02498 1.90005 7.89232C1.89487 7.75967 1.94014 7.62997 2.02674 7.52935C2.11334 7.42873 2.23484 7.36465 2.36679 7.35002C2.49874 7.33538 2.63133 7.37128 2.73788 7.45047L2.79668 7.50088L5.40011 10.1008L5.40081 0.525026C5.40082 0.398154 5.44677 0.275574 5.53016 0.179958C5.61355 0.0843407 5.72874 0.0221549 5.85444 0.00490022L5.92584 0L5.85444 0.00490022V0.00560021Z" fill="#394160"/>
</svg>
