<svg width="14" height="10" viewBox="0 0 14 10" fill="none" xmlns="http://www.w3.org/2000/svg">
<path fill-rule="evenodd" clip-rule="evenodd" d="M-0.000488281 5.00001C-0.000488281 4.8674 0.0521901 4.74022 0.145958 4.64645C0.239726 4.55268 0.366903 4.50001 0.499512 4.50001H12.2925L9.14551 1.35401C9.05163 1.26012 8.99888 1.13278 8.99888 1.00001C8.99888 0.86723 9.05163 0.739893 9.14551 0.646006C9.2394 0.552119 9.36674 0.499374 9.49951 0.499374C9.63229 0.499374 9.75963 0.552119 9.85351 0.646006L13.8535 4.64601C13.9001 4.69245 13.937 4.74763 13.9622 4.80837C13.9874 4.86912 14.0004 4.93424 14.0004 5.00001C14.0004 5.06577 13.9874 5.13089 13.9622 5.19164C13.937 5.25238 13.9001 5.30756 13.8535 5.35401L9.85351 9.35401C9.75963 9.44789 9.63229 9.50064 9.49951 9.50064C9.36674 9.50064 9.2394 9.44789 9.14551 9.35401C9.05163 9.26012 8.99888 9.13278 8.99888 9.00001C8.99888 8.86723 9.05163 8.73989 9.14551 8.64601L12.2925 5.50001H0.499512C0.366903 5.50001 0.239726 5.44733 0.145958 5.35356C0.0521901 5.25979 -0.000488281 5.13261 -0.000488281 5.00001Z" fill="#394160"/>
</svg>
