<svg width="56" height="56" viewBox="0 0 56 56" fill="none" xmlns="http://www.w3.org/2000/svg">
<rect x="0.75" y="0.75" width="54.5" height="54.5" rx="27.25" fill="white"/>
<path d="M37 37V22.75L30.25 16H22C21.2044 16 20.4413 16.3161 19.8787 16.8787C19.3161 17.4413 19 18.2044 19 19V37C19 37.7956 19.3161 38.5587 19.8787 39.1213C20.4413 39.6839 21.2044 40 22 40H34C34.7956 40 35.5587 39.6839 36.1213 39.1213C36.6839 38.5587 37 37.7956 37 37ZM30.25 20.5C30.25 21.0967 30.4871 21.669 30.909 22.091C31.331 22.5129 31.9033 22.75 32.5 22.75H35.5V37C35.5 37.3978 35.342 37.7794 35.0607 38.0607C34.7794 38.342 34.3978 38.5 34 38.5H22C21.6022 38.5 21.2206 38.342 20.9393 38.0607C20.658 37.7794 20.5 37.3978 20.5 37V19C20.5 18.6022 20.658 18.2206 20.9393 17.9393C21.2206 17.658 21.6022 17.5 22 17.5H30.25V20.5Z" fill="#394160"/>
<path d="M22.9045 37.1305C22.6121 37.0136 22.3766 36.7877 22.2475 36.5005C21.955 35.9185 22.0525 35.3365 22.3675 34.8475C22.6645 34.387 23.1565 33.9955 23.713 33.667C24.4179 33.2672 25.163 32.9429 25.936 32.6995C26.5363 31.6204 27.0683 30.5047 27.529 29.359C27.2536 28.7331 27.0376 28.0828 26.884 27.4165C26.755 26.8165 26.7055 26.2225 26.815 25.7125C26.9275 25.1815 27.226 24.7045 27.79 24.478C28.078 24.3625 28.39 24.298 28.693 24.3625C28.8454 24.3949 28.9887 24.4609 29.1125 24.5556C29.2362 24.6503 29.3373 24.7713 29.4085 24.91C29.5405 25.156 29.5885 25.444 29.599 25.717C29.6095 25.999 29.581 26.311 29.5285 26.638C29.4025 27.403 29.1235 28.339 28.7485 29.329C29.1623 30.214 29.6543 31.0604 30.2185 31.858C30.8862 31.8053 31.5577 31.8304 32.2195 31.933C32.7655 32.032 33.3205 32.2255 33.6595 32.6305C33.8395 32.8465 33.949 33.1105 33.9595 33.4075C33.97 33.6955 33.889 33.9805 33.7525 34.252C33.6343 34.5036 33.4509 34.719 33.2215 34.876C32.9947 35.0239 32.7269 35.0964 32.4565 35.083C31.96 35.062 31.4755 34.789 31.057 34.4575C30.5481 34.0367 30.0896 33.5586 29.6905 33.0325C28.6761 33.1476 27.6738 33.3514 26.695 33.6415C26.2468 34.4364 25.7351 35.1939 25.165 35.9065C24.727 36.4315 24.2515 36.8905 23.7745 37.087C23.5004 37.211 23.1896 37.2265 22.9045 37.1305ZM24.973 34.279C24.724 34.393 24.493 34.513 24.2845 34.636C23.7925 34.927 23.473 35.2105 23.314 35.4565C23.173 35.674 23.17 35.8315 23.254 35.998C23.269 36.031 23.284 36.052 23.293 36.064C23.3109 36.0592 23.3284 36.0532 23.3455 36.046C23.551 35.962 23.878 35.6935 24.298 35.188C24.5369 34.8955 24.7621 34.5922 24.973 34.279ZM27.433 32.284C27.9339 32.1671 28.4393 32.0705 28.948 31.9945C28.6749 31.5765 28.4196 31.1471 28.183 30.7075C27.9477 31.2394 27.6976 31.7646 27.433 32.2825V32.284ZM31.102 32.959C31.327 33.2035 31.546 33.409 31.7545 33.574C32.1145 33.859 32.365 33.9535 32.5015 33.958C32.538 33.9628 32.5751 33.9548 32.6065 33.9355C32.6689 33.8862 32.7175 33.8216 32.7475 33.748C32.8008 33.6566 32.8312 33.5537 32.836 33.448C32.8351 33.4127 32.8212 33.3791 32.797 33.3535C32.719 33.2605 32.497 33.1255 32.02 33.04C31.7166 32.9892 31.4096 32.9627 31.102 32.9605V32.959ZM28.117 27.7C28.2432 27.2928 28.3434 26.8779 28.417 26.458C28.4635 26.176 28.4815 25.9435 28.474 25.7605C28.4744 25.6595 28.4582 25.5592 28.426 25.4635C28.351 25.4728 28.2777 25.493 28.2085 25.5235C28.078 25.576 27.9715 25.6825 27.9145 25.948C27.8545 26.236 27.8695 26.6515 27.9835 27.181C28.0195 27.3475 28.0645 27.5215 28.1185 27.7H28.117Z" fill="#394160"/>
<rect x="0.75" y="0.75" width="54.5" height="54.5" rx="27.25" stroke="#394160" stroke-width="1.5"/>
</svg>
