<svg width="121" height="44" viewBox="0 0 121 44" fill="none" xmlns="http://www.w3.org/2000/svg">
<path d="M33.8386 20.3423L19.055 28.8374C17.9415 29.453 16.5807 28.899 16.2095 27.7909L4.70419 7.96886C4.02376 6.79924 4.08562 5.5065 4.70419 4.45999V4.39844L1.48764 9.8772C0.869075 10.9237 0.807218 12.2164 1.48764 13.4476L16.7663 39.7333C18.1271 42.0726 21.5911 42.0726 22.9519 39.7333L34.6428 19.6036C34.3954 19.8498 34.1479 20.0961 33.8386 20.3423Z" fill="url(#paint0_linear_386_1318)"/>
<path d="M41.4463 8.09351H18.0645C18.3738 8.09351 18.7449 8.15507 19.0542 8.33975L33.838 16.8349C34.9514 17.4505 35.1369 18.9279 34.3946 19.8513L22.8893 39.7349C22.2089 40.9045 21.0336 41.5201 19.8583 41.5201C19.8583 41.5201 19.8583 41.5201 19.7965 41.5201H26.1677C27.343 41.5201 28.5801 40.9045 29.2606 39.7349L44.5391 13.4491C45.9 11.0484 44.1679 8.09351 41.4463 8.09351Z" fill="url(#paint1_linear_386_1318)"/>
<path d="M41.4477 8.09232C42.8085 8.09232 43.9219 8.83103 44.5405 9.81598L41.324 4.33722C40.7054 3.29071 39.5919 2.552 38.2311 2.552H7.79766C5.0141 2.61356 3.28213 5.5684 4.70483 7.96921L16.3958 28.099C16.2102 27.7913 16.1484 27.4835 16.1484 27.1141V10.1238C16.1484 8.83103 17.3236 7.9692 18.4989 8.15388H41.4477V8.09232Z" fill="url(#paint2_linear_386_1318)"/>
<path d="M59.4168 12.4697L55.0166 3.49243H57.1238L59.4788 8.28851L61.8338 3.49243H63.941L59.4168 12.4697Z" fill="#2C2C2C"/>
<path d="M65.49 4.96762C64.9323 4.96762 64.4985 4.5372 64.4985 3.98381C64.4985 3.43042 64.9323 3 65.49 3C66.0479 3 66.4817 3.43042 66.4817 3.98381C66.4817 4.5372 66.0479 4.96762 65.49 4.96762ZM64.6225 5.70548H66.4197V12.2233H64.6225V5.70548Z" fill="#2C2C2C"/>
<path d="M67.9072 8.96535C67.9072 6.25986 70.2623 5.5835 71.5018 5.5835C73.175 5.5835 74.9104 6.75177 74.9723 8.84237C74.9723 9.33428 74.9104 9.64171 74.9104 9.64171H69.7044C69.8903 10.687 71.1298 10.81 71.5018 10.81C72.4934 10.81 72.9891 10.2566 73.175 10.0721L74.5385 10.8715C74.2906 11.2404 73.3609 12.4087 71.4398 12.4087C70.2003 12.4087 67.9072 11.6708 67.9072 8.96535ZM69.7044 8.35046H72.9891C72.9272 7.73558 72.3074 7.1207 71.4398 7.1207C70.4482 7.1207 69.7664 7.73558 69.7044 8.35046Z" fill="#2C2C2C"/>
<path d="M78.6279 9.88762C78.6279 10.2566 78.6279 10.8715 79.4335 10.8715C79.6194 10.8715 79.8054 10.8715 79.8674 10.8715V12.3472C79.6815 12.3472 79.3096 12.4087 79.0617 12.4087C77.6983 12.4087 76.8306 12.1627 76.8306 10.7485V7.12065H76.0249V5.58345H76.8306V3.80029H78.6279V5.52196H79.9294V7.05917H78.6279V9.88762Z" fill="#2C2C2C"/>
<path d="M87.4304 8.35095V12.2247H85.5712V8.35095C85.5712 7.36714 85.0134 6.99821 84.2696 6.99821C83.7739 6.99821 82.9682 7.30565 83.0301 8.71988V12.1632H81.2329V5.64547H83.0301V6.26035C83.464 5.82993 84.2076 5.58398 84.7655 5.58398C86.7487 5.5225 87.4304 6.62928 87.4304 8.35095Z" fill="#2C2C2C"/>
<path d="M94.2459 11.5473C93.9979 11.9162 93.1923 12.3466 92.2627 12.3466C90.1555 12.3466 88.916 10.8094 88.916 8.90331C88.916 6.99717 90.1555 5.45996 92.2627 5.45996C93.2543 5.45996 93.9359 5.82889 94.2459 6.25931V5.64443H96.0431V12.2237H94.2459V11.5473ZM92.4486 7.05866C91.333 7.05866 90.6514 7.85801 90.6514 8.90331C90.6514 9.94861 91.333 10.748 92.4486 10.748C93.5641 10.748 94.2459 10.0716 94.2459 8.90331C94.3079 7.85801 93.5641 7.05866 92.4486 7.05866Z" fill="#2C2C2C"/>
<path d="M108.316 8.35093V12.2246H106.519V8.35093C106.519 7.36711 105.899 6.99818 105.217 6.99818C104.721 6.99818 103.978 7.30563 103.978 8.53539V12.1632H102.181V8.28943C102.181 7.30563 101.561 6.93669 100.879 6.93669C100.321 6.93669 99.5776 7.24413 99.5776 8.65836V12.1017H97.7803V5.64544H99.5776V6.26033C100.011 5.82991 100.755 5.52246 101.313 5.52246C102.305 5.52246 102.986 5.82991 103.42 6.44479C103.916 5.89139 104.66 5.52246 105.527 5.52246C107.449 5.52246 108.316 6.62925 108.316 8.35093Z" fill="#2C2C2C"/>
<path d="M57.7431 21.3856H61.9574V23.0458H57.7431V24.8905H62.5151V26.5506H55.8838V17.8193H62.5151V19.4794H57.7431V21.3856Z" fill="#2C2C2C"/>
<path d="M63.8789 23.291C63.8789 21.3849 65.4902 19.9092 67.4734 19.9092C68.8369 19.9092 70.0144 20.5856 70.696 21.8153L69.0847 22.4303C68.7129 21.7539 68.0931 21.4464 67.4734 21.4464C66.4199 21.4464 65.6761 22.2458 65.6761 23.291C65.6761 24.3363 66.4199 25.1357 67.4734 25.1357C68.0931 25.1357 68.7129 24.8898 69.1467 24.1519L70.696 24.7668C70.0764 26.058 69.0228 26.6729 67.4734 26.6729C65.4902 26.6729 63.8789 25.1357 63.8789 23.291Z" fill="#2C2C2C"/>
<path d="M71.564 23.291C71.564 21.4464 73.1754 19.9092 75.1585 19.9092C77.1417 19.9092 78.753 21.4464 78.753 23.291C78.753 25.1972 77.1417 26.7344 75.1585 26.7344C73.1754 26.7344 71.564 25.1357 71.564 23.291ZM73.2993 23.291C73.2993 24.3979 74.1049 25.1357 75.0965 25.1357C76.0881 25.1357 76.8938 24.3363 76.8938 23.291C76.8938 22.2458 76.0881 21.4464 75.0965 21.4464C74.1049 21.3849 73.2993 22.2458 73.2993 23.291Z" fill="#2C2C2C"/>
<path d="M86.3758 22.6766V26.5504H84.5165V22.6766C84.5165 21.6928 83.9588 21.3239 83.215 21.3239C82.7193 21.3239 81.9136 21.6313 81.9755 23.0456V26.4889H80.1782V19.9711H81.9755V20.5861C82.4093 20.1556 83.1531 19.9097 83.7108 19.9097C85.694 19.8482 86.3758 20.9549 86.3758 22.6766Z" fill="#2C2C2C"/>
<path d="M87.8013 23.291C87.8013 21.4464 89.4126 19.9092 91.3958 19.9092C93.379 19.9092 94.9903 21.4464 94.9903 23.291C94.9903 25.1972 93.379 26.7344 91.3958 26.7344C89.4126 26.6729 87.8013 25.1357 87.8013 23.291ZM89.5986 23.291C89.5986 24.3979 90.4042 25.1357 91.3958 25.1357C92.3874 25.1357 93.1931 24.3363 93.1931 23.291C93.1931 22.2458 92.3874 21.4464 91.3958 21.4464C90.3422 21.3849 89.5986 22.2458 89.5986 23.291Z" fill="#2C2C2C"/>
<path d="M107.013 22.6766V26.5503H105.216V22.6766C105.216 21.6927 104.596 21.3239 103.915 21.3239C103.419 21.3239 102.675 21.6313 102.675 22.861V26.4888H100.878V22.6151C100.878 21.6313 100.259 21.2624 99.5768 21.2624C99.019 21.2624 98.2753 21.5698 98.2753 22.9841V26.4274H96.478V19.9711H98.2753V20.586C98.7091 20.1556 99.4529 19.8481 100.011 19.8481C101.002 19.8481 101.684 20.1556 102.118 20.7705C102.614 20.217 103.357 19.8481 104.225 19.8481C106.146 19.8481 107.013 20.9549 107.013 22.6766Z" fill="#2C2C2C"/>
<path d="M109.863 19.2943C109.306 19.2943 108.872 18.8639 108.872 18.3105C108.872 17.7571 109.306 17.3267 109.863 17.3267C110.421 17.3267 110.855 17.7571 110.855 18.3105C110.794 18.8639 110.359 19.2943 109.863 19.2943ZM108.934 19.9707H110.732V26.4884H108.934V19.9707Z" fill="#2C2C2C"/>
<path d="M112.218 23.291C112.218 21.3849 113.83 19.9092 115.813 19.9092C117.176 19.9092 118.353 20.5856 119.036 21.8153L117.424 22.4303C117.052 21.7539 116.432 21.4464 115.813 21.4464C114.759 21.4464 114.015 22.2458 114.015 23.291C114.015 24.3363 114.759 25.1357 115.813 25.1357C116.432 25.1357 117.052 24.8898 117.486 24.1519L119.036 24.7668C118.415 26.058 117.362 26.6729 115.813 26.6729C113.83 26.6729 112.218 25.1357 112.218 23.291Z" fill="#2C2C2C"/>
<path d="M57.805 35.6509H62.0194V37.311H57.805V40.8159H55.8838V32.146H62.5151V33.8062H57.7431V35.6509H57.805Z" fill="#2C2C2C"/>
<path d="M63.1362 37.5567C63.1362 35.712 64.7476 34.1748 66.7308 34.1748C68.714 34.1748 70.3253 35.712 70.3253 37.5567C70.3253 39.4627 68.714 41 66.7308 41C64.7476 41 63.1362 39.4627 63.1362 37.5567ZM64.8716 37.5567C64.8716 38.6634 65.6772 39.4013 66.6688 39.4013C67.6604 39.4013 68.4661 38.6019 68.4661 37.5567C68.4661 36.5113 67.6604 35.712 66.6688 35.712C65.6772 35.712 64.8716 36.5113 64.8716 37.5567Z" fill="#2C2C2C"/>
<path d="M73.5462 37.9255V40.8155H71.749V34.2977H73.5462V35.1586C74.228 34.2977 75.3436 34.1748 75.7773 34.1748V35.8965C75.3436 35.8349 73.5462 35.9579 73.5462 37.9255Z" fill="#2C2C2C"/>
<path d="M76.832 38.1721V34.2983H78.6293V38.1721C78.6293 39.1559 79.249 39.4633 79.9308 39.4633C80.4266 39.4633 81.2323 39.1559 81.1703 37.7417V34.2983H82.9676V40.8161H81.2323V40.2626C80.7985 40.6931 80.1787 40.939 79.497 40.939C77.5138 41.0005 76.832 39.8938 76.832 38.1721Z" fill="#2C2C2C"/>
<path d="M95.3004 36.9417V40.8155H93.5031V36.9417C93.5031 35.9579 92.8834 35.589 92.2017 35.589C91.7058 35.589 90.9622 35.8965 90.9622 37.1262V40.754H89.1649V36.8803C89.1649 35.8965 88.5452 35.5275 87.8634 35.5275C87.3057 35.5275 86.562 35.8349 86.562 37.2492V40.6925H84.7646V34.2977H86.562V34.9127C86.9958 34.4822 87.7395 34.1748 88.2972 34.1748C89.2888 34.1748 89.9706 34.4822 90.4044 35.097C90.9002 34.5437 91.6439 34.1748 92.5115 34.1748C94.4328 34.1748 95.3004 35.2815 95.3004 36.9417Z" fill="#2C2C2C"/>
<defs>
<linearGradient id="paint0_linear_386_1318" x1="17.7909" y1="41.4905" x2="17.7909" y2="4.38821" gradientUnits="userSpaceOnUse">
<stop stop-color="#33BED7"/>
<stop offset="1" stop-color="#1C4589"/>
</linearGradient>
<linearGradient id="paint1_linear_386_1318" x1="31.5434" y1="8.11985" x2="31.5434" y2="41.505" gradientUnits="userSpaceOnUse">
<stop stop-color="#33BED7"/>
<stop offset="1" stop-color="#1C4589"/>
</linearGradient>
<linearGradient id="paint2_linear_386_1318" x1="9.62738" y1="16.4706" x2="38.6093" y2="-0.343061" gradientUnits="userSpaceOnUse">
<stop stop-color="#33BED7"/>
<stop offset="1" stop-color="#1C4589"/>
</linearGradient>
</defs>
</svg>
