<svg width="6" height="10" viewBox="0 0 6 10" fill="none" xmlns="http://www.w3.org/2000/svg">
<path d="M0.60067 1.57975C0.471818 1.44961 0.399536 1.27388 0.399536 1.09075C0.399536 0.907614 0.471818 0.731881 0.60067 0.601747C0.663943 0.537497 0.739364 0.486473 0.822542 0.451646C0.90572 0.416819 0.994995 0.398884 1.08517 0.398884C1.17534 0.398884 1.26462 0.416819 1.3478 0.451646C1.43098 0.486473 1.5064 0.537497 1.56967 0.601747L5.39967 4.50975C5.52834 4.64018 5.60049 4.81603 5.60049 4.99925C5.60049 5.18247 5.52834 5.35832 5.39967 5.48875L1.56967 9.39675C1.5064 9.461 1.43098 9.51202 1.3478 9.54685C1.26462 9.58167 1.17534 9.59961 1.08517 9.59961C0.994995 9.59961 0.90572 9.58167 0.822542 9.54685C0.739364 9.51202 0.663943 9.461 0.60067 9.39675C0.471818 9.26661 0.399536 9.09088 0.399536 8.90775C0.399536 8.72461 0.471818 8.54888 0.60067 8.41875L3.74167 4.99775L0.60067 1.57975Z" fill="#394160"/>
</svg>
