<svg width="24" height="25" viewBox="0 0 24 25" fill="none" xmlns="http://www.w3.org/2000/svg">
<path d="M6 8.25C6 7.78587 6.18437 7.34075 6.51256 7.01256C6.84075 6.68437 7.28587 6.5 7.75 6.5H9.75C10.2141 6.5 10.6592 6.68437 10.9874 7.01256C11.3156 7.34075 11.5 7.78587 11.5 8.25V10.25C11.5 10.7141 11.3156 11.1592 10.9874 11.4874C10.6592 11.8156 10.2141 12 9.75 12H7.75C7.28587 12 6.84075 11.8156 6.51256 11.4874C6.18437 11.1592 6 10.7141 6 10.25V8.25ZM7.75 7.75C7.61739 7.75 7.49021 7.80268 7.39645 7.89645C7.30268 7.99021 7.25 8.11739 7.25 8.25V10.25C7.25 10.3826 7.30268 10.5098 7.39645 10.6036C7.49021 10.6973 7.61739 10.75 7.75 10.75H9.75C9.88261 10.75 10.0098 10.6973 10.1036 10.6036C10.1973 10.5098 10.25 10.3826 10.25 10.25V8.25C10.25 8.11739 10.1973 7.99021 10.1036 7.89645C10.0098 7.80268 9.88261 7.75 9.75 7.75H7.75ZM7.75 13C7.28587 13 6.84075 13.1844 6.51256 13.5126C6.18437 13.8408 6 14.2859 6 14.75V16.75C6 17.2141 6.18437 17.6592 6.51256 17.9874C6.84075 18.3156 7.28587 18.5 7.75 18.5H9.75C10.2141 18.5 10.6592 18.3156 10.9874 17.9874C11.3156 17.6592 11.5 17.2141 11.5 16.75V14.75C11.5 14.2859 11.3156 13.8408 10.9874 13.5126C10.6592 13.1844 10.2141 13 9.75 13H7.75ZM7.25 14.75C7.25 14.6174 7.30268 14.4902 7.39645 14.3964C7.49021 14.3027 7.61739 14.25 7.75 14.25H9.75C9.88261 14.25 10.0098 14.3027 10.1036 14.3964C10.1973 14.4902 10.25 14.6174 10.25 14.75V16.75C10.25 16.8826 10.1973 17.0098 10.1036 17.1036C10.0098 17.1973 9.88261 17.25 9.75 17.25H7.75C7.61739 17.25 7.49021 17.1973 7.39645 17.1036C7.30268 17.0098 7.25 16.8826 7.25 16.75V14.75ZM12.5 8.25C12.5 7.78587 12.6844 7.34075 13.0126 7.01256C13.3408 6.68437 13.7859 6.5 14.25 6.5H16.25C16.7141 6.5 17.1592 6.68437 17.4874 7.01256C17.8156 7.34075 18 7.78587 18 8.25V10.25C18 10.7141 17.8156 11.1592 17.4874 11.4874C17.1592 11.8156 16.7141 12 16.25 12H14.25C13.7859 12 13.3408 11.8156 13.0126 11.4874C12.6844 11.1592 12.5 10.7141 12.5 10.25V8.25ZM14.25 7.75C14.1174 7.75 13.9902 7.80268 13.8964 7.89645C13.8027 7.99021 13.75 8.11739 13.75 8.25V10.25C13.75 10.3826 13.8027 10.5098 13.8964 10.6036C13.9902 10.6973 14.1174 10.75 14.25 10.75H16.25C16.3826 10.75 16.5098 10.6973 16.6036 10.6036C16.6973 10.5098 16.75 10.3826 16.75 10.25V8.25C16.75 8.11739 16.6973 7.99021 16.6036 7.89645C16.5098 7.80268 16.3826 7.75 16.25 7.75H14.25ZM14.25 13C13.7859 13 13.3408 13.1844 13.0126 13.5126C12.6844 13.8408 12.5 14.2859 12.5 14.75V16.75C12.5 17.2141 12.6844 17.6592 13.0126 17.9874C13.3408 18.3156 13.7859 18.5 14.25 18.5H16.25C16.7141 18.5 17.1592 18.3156 17.4874 17.9874C17.8156 17.6592 18 17.2141 18 16.75V14.75C18 14.2859 17.8156 13.8408 17.4874 13.5126C17.1592 13.1844 16.7141 13 16.25 13H14.25ZM13.75 14.75C13.75 14.6174 13.8027 14.4902 13.8964 14.3964C13.9902 14.3027 14.1174 14.25 14.25 14.25H16.25C16.3826 14.25 16.5098 14.3027 16.6036 14.3964C16.6973 14.4902 16.75 14.6174 16.75 14.75V16.75C16.75 16.8826 16.6973 17.0098 16.6036 17.1036C16.5098 17.1973 16.3826 17.25 16.25 17.25H14.25C14.1174 17.25 13.9902 17.1973 13.8964 17.1036C13.8027 17.0098 13.75 16.8826 13.75 16.75V14.75ZM3 6.625C3 5.7962 3.32924 5.00134 3.91529 4.41529C4.50134 3.82924 5.2962 3.5 6.125 3.5H17.875C18.7038 3.5 19.4987 3.82924 20.0847 4.41529C20.6708 5.00134 21 5.7962 21 6.625V18.375C21 19.2038 20.6708 19.9987 20.0847 20.5847C19.4987 21.1708 18.7038 21.5 17.875 21.5H6.125C5.2962 21.5 4.50134 21.1708 3.91529 20.5847C3.32924 19.9987 3 19.2038 3 18.375V6.625ZM6.125 4.75C5.62772 4.75 5.15081 4.94754 4.79917 5.29917C4.44754 5.65081 4.25 6.12772 4.25 6.625V18.375C4.25 18.8723 4.44754 19.3492 4.79917 19.7008C5.15081 20.0525 5.62772 20.25 6.125 20.25H17.875C18.3723 20.25 18.8492 20.0525 19.2008 19.7008C19.5525 19.3492 19.75 18.8723 19.75 18.375V6.625C19.75 6.12772 19.5525 5.65081 19.2008 5.29917C18.8492 4.94754 18.3723 4.75 17.875 4.75H6.125Z" fill="#394160"/>
</svg>
