<svg width="14" height="14" viewBox="0 0 14 14" fill="none" xmlns="http://www.w3.org/2000/svg">
<path fill-rule="evenodd" clip-rule="evenodd" d="M6.99967 1.66659C4.05416 1.66659 1.66634 4.0544 1.66634 6.99992C1.66634 9.94544 4.05416 12.3333 6.99967 12.3333C9.94519 12.3333 12.333 9.94544 12.333 6.99992C12.333 4.0544 9.94519 1.66659 6.99967 1.66659ZM0.333008 6.99992C0.333008 3.31802 3.31778 0.333252 6.99967 0.333252C10.6816 0.333252 13.6663 3.31802 13.6663 6.99992C13.6663 10.6818 10.6816 13.6666 6.99967 13.6666C3.31778 13.6666 0.333008 10.6818 0.333008 6.99992Z" fill="white"/>
<path fill-rule="evenodd" clip-rule="evenodd" d="M6.99967 2.83325C7.36786 2.83325 7.66634 3.13173 7.66634 3.49992V6.33325H10.4997C10.8679 6.33325 11.1663 6.63173 11.1663 6.99992C11.1663 7.36811 10.8679 7.66659 10.4997 7.66659H6.99967C6.63148 7.66659 6.33301 7.36811 6.33301 6.99992V3.49992C6.33301 3.13173 6.63148 2.83325 6.99967 2.83325Z" fill="white"/>
</svg>
