<svg width="191" height="188" viewBox="0 0 191 188" fill="none" xmlns="http://www.w3.org/2000/svg">
<path opacity="0.601131" d="M9.7959 91.602C9.7959 42.1162 49.9121 2 99.3979 2C148.884 2 189 42.1162 189 91.602V96.398C189 145.884 148.884 186 99.3979 186C49.9121 186 9.7959 145.884 9.7959 96.398V91.602Z" fill="#85C0FF" stroke="white" stroke-width="4"/>
<path d="M2 91.6531C2 43.2436 41.2436 4 89.6531 4C138.063 4 177.306 43.2436 177.306 91.6531V96.3469C177.306 144.756 138.063 184 89.6531 184C41.2436 184 2 144.756 2 96.3469V91.6531Z" fill="#F1F8FF" fill-opacity="0.5" stroke="#CCE5FF" stroke-width="4"/>
<path d="M65.2479 58.8587L57.6665 78.4731L85.8349 86.5167L93.4271 69.1068L85.8349 54.5258L65.2479 58.8587Z" fill="#FED7D7"/>
<path d="M114.004 78.469L106.798 58.8546L86.0231 54.482L85.835 54.5218V86.5127L86.0231 86.5663L114.004 78.469Z" fill="#FEB2B2"/>
<path d="M65.2495 47.3333V58.8547H85.8365L91.6243 52.8021L85.8365 47.3333H65.2495Z" fill="#FC8181"/>
<path d="M57.6665 78.4693V129.112L85.8349 134.864L93.4271 105.71L85.8349 78.4693H57.6665Z" fill="#FC8181"/>
<path d="M85.835 47.3333H106.798V58.8547H85.835V47.3333Z" fill="#F56565"/>
<path d="M85.835 78.4693V134.864L87.2921 135.162L114.004 129.112V78.4693H85.835Z" fill="#F56565"/>
<path d="M57.6665 129.112V140.666H85.8349L90.901 135.161L85.8349 129.112H57.6665Z" fill="#FED7D7"/>
<path d="M85.835 140.666H103.16L114.004 129.112H85.835V140.666Z" fill="#FEB2B2"/>
<path d="M94.0566 87.5793V98.0064L113.193 104.221L117.434 92.6981L113.193 87.5793H94.0566Z" fill="#FED7D7"/>
<path d="M132.33 98.0064V87.5793H113.193V104.221L113.675 104.378L132.33 98.0064Z" fill="#FEB2B2"/>
<path d="M94.0566 98.0064V129.112H113.193L117.482 110.643L113.193 98.0064L94.0566 98.0064Z" fill="#FFF5F5"/>
<path d="M113.193 98.0064H132.33V129.112H113.193V98.0064Z" fill="#FED7D7"/>
<path d="M115.916 128.205L113.575 134.06L115.916 140.666H122.295L124.659 133.036L122.295 121.82C118.772 121.82 115.916 124.679 115.916 128.205Z" fill="#FEB2B2"/>
<path d="M94.0566 128.205V140.666H106.814V128.205C106.814 124.679 103.959 121.82 100.436 121.82C96.9126 121.82 94.0566 124.679 94.0566 128.205Z" fill="#FED7D7"/>
<path d="M119.572 140.667L121.675 134.24L119.572 128.205C119.572 124.679 116.716 121.82 113.193 121.82V140.667H119.572Z" fill="#FC8181"/>
<path d="M119.573 128.205V140.666H132.331V128.205C132.331 124.679 129.475 121.82 125.952 121.82C122.429 121.82 119.573 124.679 119.573 128.205H119.573Z" fill="#FEB2B2"/>
</svg>
