<svg width="196" height="188" viewBox="0 0 196 188" fill="none" xmlns="http://www.w3.org/2000/svg">
<path opacity="0.601131" d="M10 94C10 43.1898 51.1898 2 102 2C152.81 2 194 43.1898 194 94C194 144.81 152.81 186 102 186C51.1898 186 10 144.81 10 94Z" fill="#85C0FF" stroke="white" stroke-width="4"/>
<path d="M2 94C2 44.2944 42.2944 4 92 4C141.706 4 182 44.2944 182 94C182 143.706 141.706 184 92 184C42.2944 184 2 143.706 2 94Z" fill="#F1F8FF" fill-opacity="0.5" stroke="#CCE5FF" stroke-width="4"/>
<mask id="mask0" mask-type="alpha" maskUnits="userSpaceOnUse" x="0" y="2" width="184" height="184">
<path d="M2 94C2 44.2944 42.2944 4 92 4C141.706 4 182 44.2944 182 94C182 143.706 141.706 184 92 184C42.2944 184 2 143.706 2 94Z" fill="white" stroke="white" stroke-width="4"/>
</mask>
<g mask="url(#mask0)">
</g>
<path opacity="0.6" d="M144.456 51.3952L134.066 77.9501C133.641 79.0376 132.646 79.7464 131.545 79.7464H64.4621C63.3611 79.7464 62.3658 79.0376 61.941 77.9501L51.5505 51.3952C51.0984 50.2413 51.381 48.9077 52.2523 48.0759C53.1237 47.2441 54.3924 47.0977 55.4096 47.7088L64.4493 53.1447L73.3141 47.7205C74.107 47.2343 75.075 47.2051 75.8935 47.6424L86.3369 53.2365L96.7802 47.6424C97.536 47.2377 98.4462 47.2244 99.2266 47.6424L109.67 53.2365L120.113 47.6424C120.932 47.2051 121.9 47.2343 122.693 47.7205L131.557 53.1447L140.597 47.7088C141.614 47.0957 142.883 47.2441 143.754 48.0759C144.626 48.9077 144.908 50.2413 144.456 51.3952Z" fill="#FED7D7"/>
<path d="M144.453 51.3952L134.062 77.9501C133.638 79.0376 132.642 79.7464 131.541 79.7464H97.8633V47.3378C98.3281 47.3124 98.7966 47.414 99.2232 47.6424L109.667 53.2365L120.11 47.6424C120.928 47.2051 121.896 47.2343 122.689 47.7205L131.554 53.1447L140.594 47.7088C141.611 47.0957 142.88 47.2441 143.751 48.0759C144.622 48.9077 144.905 50.2413 144.453 51.3952Z" fill="#FEB2B2"/>
<path opacity="0.6" d="M144.452 71.702L134.062 98.2568C133.637 99.3443 132.642 100.053 131.541 100.053H64.4582C63.3572 100.053 62.3619 99.3443 61.9371 98.2568L51.5466 71.702C51.0945 70.548 51.3771 69.2144 52.2484 68.3826C53.1198 67.5508 54.3885 67.4044 55.4057 68.0155L64.4454 73.4514L73.3102 68.0272C74.1031 67.5411 75.0711 67.5118 75.8896 67.9491L86.333 73.5432L96.7763 67.9491C97.5321 67.5444 98.4423 67.5311 99.2227 67.9491L109.666 73.5432L120.109 67.9491C120.928 67.5118 121.896 67.5411 122.689 68.0272L131.554 73.4514L140.593 68.0155C141.61 67.4024 142.879 67.5508 143.751 68.3826C144.622 69.2144 144.904 70.548 144.452 71.702Z" fill="#FC8181"/>
<path d="M144.453 71.702L134.062 98.2568C133.638 99.3443 132.642 100.053 131.541 100.053H97.8633V67.6445C98.3281 67.6192 98.7966 67.7207 99.2232 67.9491L109.667 73.5432L120.11 67.9491C120.928 67.5118 121.896 67.5411 122.689 68.0272L131.554 73.4514L140.594 68.0155C141.611 67.4024 142.88 67.5508 143.751 68.3826C144.622 69.2144 144.905 70.548 144.453 71.702Z" fill="#FC8181"/>
<path opacity="0.6" d="M144.455 92.0062L129.303 130.763C127.409 136.691 122.225 140.666 116.366 140.666H79.6344C73.7756 140.666 68.5913 136.691 66.6973 130.763L51.5454 92.0062C51.0951 90.8542 51.3777 89.5206 52.249 88.6888C53.1203 87.857 54.3891 87.7106 55.4063 88.3217L64.446 93.7577L73.3108 88.3335C74.1037 87.8473 75.0717 87.818 75.8902 88.2554L86.3335 93.8494L96.7769 88.2554C97.5327 87.8506 98.4429 87.8373 99.2232 88.2554L109.667 93.8494L120.11 88.2554C120.928 87.818 121.896 87.8473 122.689 88.3335L131.554 93.7577L140.594 88.3217C141.611 87.7086 142.88 87.857 143.751 88.6888C144.623 89.5206 144.905 90.8542 144.455 92.0062Z" fill="#F56565"/>
<path d="M144.455 92.0062L129.303 130.763C127.409 136.691 122.224 140.666 116.366 140.666H97.8633V87.9508C98.3281 87.9254 98.7966 88.0269 99.2232 88.2554L109.667 93.8494L120.11 88.2554C120.928 87.818 121.896 87.8473 122.689 88.3335L131.554 93.7577L140.594 88.3217C141.611 87.7086 142.88 87.857 143.751 88.6888C144.622 89.5206 144.905 90.8542 144.455 92.0062Z" fill="#F56565"/>
</svg>
