<svg width="196" height="188" viewBox="0 0 196 188" fill="none" xmlns="http://www.w3.org/2000/svg">
<path opacity="0.601131" d="M10 94C10 43.1898 51.1898 2 102 2C152.81 2 194 43.1898 194 94C194 144.81 152.81 186 102 186C51.1898 186 10 144.81 10 94Z" fill="#85C0FF" stroke="white" stroke-width="4"/>
<path d="M2 94C2 44.2944 42.2944 4 92 4C141.706 4 182 44.2944 182 94C182 143.706 141.706 184 92 184C42.2944 184 2 143.706 2 94Z" fill="#F1F8FF" fill-opacity="0.5" stroke="#CCE5FF" stroke-width="4"/>
<mask id="mask0" mask-type="alpha" maskUnits="userSpaceOnUse" x="0" y="2" width="184" height="184">
<path d="M2 94C2 44.2944 42.2944 4 92 4C141.706 4 182 44.2944 182 94C182 143.706 141.706 184 92 184C42.2944 184 2 143.706 2 94Z" fill="white" stroke="white" stroke-width="4"/>
</mask>
<g mask="url(#mask0)">
</g>
<path d="M130.567 47.3333H107.487V53.3651H130.567C135.192 53.3651 138.958 57.3413 138.958 62.2303V74.3909C138.958 74.8216 138.626 75.1708 138.218 75.1708H57.7822C57.3746 75.1708 57.0423 74.8216 57.0423 74.3909V62.2303C57.0423 57.3413 60.8075 53.3651 65.4328 53.3651H88.5125V47.3333H65.433C57.6583 47.3333 51.3335 54.0159 51.3335 62.2301V74.3907C51.3335 78.1466 54.2255 81.2043 57.7822 81.2043H138.218C141.775 81.2043 144.666 78.1468 144.666 74.3907V62.2301C144.667 54.0159 138.342 47.3333 130.567 47.3333V47.3333Z" fill="#FED7D7"/>
<path d="M86.5156 47.3333H109.49V53.3548H86.5156V47.3333Z" fill="#FC8181"/>
<path d="M144.667 62.2301V74.3907C144.667 78.1466 141.732 81.2043 138.123 81.2043H132.329C135.937 81.2043 138.874 78.1468 138.874 74.3907V62.2301C138.874 62.1488 138.874 62.0694 138.872 61.9899C138.748 53.8848 132.377 47.3333 124.565 47.3333H130.359C138.249 47.3333 144.667 54.0159 144.667 62.2301Z" fill="#FEB2B2"/>
<path d="M139.641 88.5706L137.144 135.04C136.973 138.199 134.472 140.667 131.444 140.667H63.844C60.8156 140.667 58.3149 138.199 58.1441 135.04L55.6472 88.5706C55.5852 87.4317 56.4545 86.4731 57.5471 86.4731H89.4376L90.0909 89.4351C90.489 91.2387 92.0266 92.5167 93.7989 92.5167H101.489C103.261 92.5167 104.799 91.2385 105.197 89.4351L105.85 86.4731H137.741C138.833 86.4731 139.703 87.4316 139.641 88.5706Z" fill="#FEB2B2"/>
<path d="M139.637 88.571L137.181 135.042C137.015 138.199 134.554 140.667 131.575 140.667H123.845C126.822 140.667 129.283 138.199 129.449 135.042L131.906 88.571C131.966 87.4306 131.113 86.4731 130.037 86.4731H137.769C138.843 86.4731 139.696 87.4308 139.637 88.571Z" fill="#F56565"/>
<path d="M106.977 90.8124L108.051 85.7205H87.231L88.3055 90.8124C88.6993 92.6782 90.2216 94.0001 91.9765 94.0001H103.306C105.061 94.0001 106.583 92.6782 106.977 90.8124Z" fill="#FC8181"/>
<path d="M108.771 85.7205L107.677 90.8108C107.277 92.6768 105.729 94.0001 103.944 94.0001H97.2842C99.0696 94.0001 100.618 92.6766 101.018 90.8108L102.112 85.7205H108.771Z" fill="#F56565"/>
<path d="M57.661 77.6815L56.3995 84.0875C56.157 85.3191 57.0577 86.4732 58.2614 86.4732H137.74C138.944 86.4732 139.844 85.3191 139.602 84.0875L138.341 77.6815C137.795 74.9122 135.461 72.9248 132.755 72.9248H63.2469C60.5402 72.9248 58.2063 74.9122 57.661 77.6815Z" fill="#FED7D7"/>
<path d="M137.697 86.4732H129.663C130.896 86.4732 131.815 85.3177 131.569 84.0868L130.278 77.6819C129.72 74.9123 127.334 72.9248 124.565 72.9248H132.597C135.366 72.9248 137.754 74.9123 138.312 77.6819L139.601 84.0868C139.85 85.3177 138.928 86.4732 137.697 86.4732Z" fill="#FED7D7"/>
<path d="M116.193 131.516H79.0855C78.0321 131.516 77.1782 130.636 77.1782 129.551V115.535C77.1782 114.45 78.0321 113.571 79.0855 113.571H116.193C117.247 113.571 118.1 114.45 118.1 115.535V129.551C118.101 130.636 117.247 131.516 116.193 131.516Z" fill="#FC8181"/>
<path d="M118.104 115.535V129.55C118.104 130.637 117.252 131.515 116.197 131.515H109.567C110.622 131.515 111.474 130.637 111.474 129.55V115.535C111.474 114.451 110.622 113.571 109.567 113.571H116.197C117.252 113.571 118.104 114.451 118.104 115.535Z" fill="#F56565"/>
</svg>
