<svg width="196" height="188" viewBox="0 0 196 188" fill="none" xmlns="http://www.w3.org/2000/svg">
<path opacity="0.601131" d="M10.9541 94C10.9541 43.44 51.9435 2 102.477 2C153.01 2 194 43.44 194 94C194 144.56 153.01 186 102.477 186C51.9435 186 10.9541 144.56 10.9541 94Z" fill="#85C0FF" stroke="white" stroke-width="4"/>
<path d="M2 94C2 44.539 42.0985 4 91.533 4C140.967 4 181.066 44.539 181.066 94C181.066 143.461 140.967 184 91.533 184C42.0985 184 2 143.461 2 94Z" fill="#F1F8FF" fill-opacity="0.5" stroke="#CCE5FF" stroke-width="4"/>
<path d="M67.2682 57.7272L65.894 75.5023H130.103L128.729 57.7272C128.276 51.8609 123.412 47.3333 117.563 47.3333H78.4346C72.5859 47.3333 67.7218 51.8609 67.2682 57.7272Z" fill="#FED7D7"/>
<path d="M97.9987 69.8686C95.9369 69.8686 94.2653 68.187 94.2653 66.1127C94.2653 64.0384 95.9369 62.3567 97.9987 62.3567V47.3333H78.4346C72.5859 47.3333 67.7218 51.8609 67.2682 57.7272L65.894 75.5023H97.9987V69.8686Z" fill="#FC8181"/>
<path d="M126.233 125.554L130.103 75.5025H65.8936L69.7632 125.554L97.9982 133.11L126.233 125.554Z" fill="#FEB2B2"/>
<path d="M129.087 88.6481L130.103 75.5025H65.8936L69.7632 125.554L80.2602 128.363L77.1898 88.6481H129.087Z" fill="#FC8181"/>
<path d="M129.733 81.136H66.2664C63.1736 81.136 60.6665 78.6137 60.6665 75.5023C60.6665 72.3908 63.1737 69.8686 66.2664 69.8686H129.733C132.826 69.8686 135.333 72.391 135.333 75.5023C135.333 78.6137 132.826 81.136 129.733 81.136Z" fill="#FFF5F5"/>
<path d="M85.8904 75.5023C85.8904 72.3908 88.3976 69.8686 91.4903 69.8686H66.2664C63.1736 69.8686 60.6665 72.391 60.6665 75.5023C60.6665 78.6137 63.1737 81.136 66.2664 81.136H91.4903C88.3976 81.1362 85.8904 78.6139 85.8904 75.5023Z" fill="#FED7D7"/>
<path d="M116.276 57.1599L117.036 47.3333H78.96L79.7197 57.1599C79.9466 60.093 82.3784 62.3569 85.3028 62.3569H110.693C113.618 62.3567 116.05 60.093 116.276 57.1599Z" fill="#F56565"/>
<path d="M69.7627 125.554L70.1274 130.273C70.581 136.139 75.4451 140.667 81.2938 140.667H114.702C120.551 140.667 125.415 136.139 125.868 130.273L126.233 125.554H69.7627V125.554Z" fill="#FC8181"/>
<path d="M70.1274 130.273C70.581 136.139 75.4451 140.667 81.2938 140.667H91.5737C85.725 140.667 80.8609 136.139 80.4074 130.273L80.0426 125.554H69.7627L70.1274 130.273Z" fill="#F56565"/>
<path d="M86.3434 56.6684C85.5928 56.6684 84.9844 56.0562 84.9844 55.3012V53.0477C84.9844 52.2926 85.5928 51.6805 86.3434 51.6805C87.0939 51.6805 87.7023 52.2926 87.7023 53.0477V55.3012C87.7023 56.0562 87.0939 56.6684 86.3434 56.6684Z" fill="#FFF5F5"/>
<path d="M109.658 56.6684C108.907 56.6684 108.299 56.0562 108.299 55.3012V53.0477C108.299 52.2926 108.907 51.6805 109.658 51.6805C110.408 51.6805 111.017 52.2926 111.017 53.0477V55.3012C111.017 56.0562 110.409 56.6684 109.658 56.6684Z" fill="#FFF5F5"/>
<path d="M97.9982 58.0101C96.4275 58.0101 94.9339 57.3257 93.9004 56.1325C93.4073 55.5632 93.4662 54.6997 94.0321 54.2035C94.598 53.7073 95.4563 53.7667 95.9495 54.336C96.4667 54.933 97.2136 55.2755 97.9983 55.2755C98.7831 55.2755 99.5298 54.933 100.047 54.3358C100.54 53.7665 101.399 53.7073 101.965 54.2035C102.531 54.6995 102.59 55.5632 102.096 56.1325C101.062 57.3257 99.5688 58.0101 97.9982 58.0101Z" fill="#FFF5F5"/>
<path opacity="0.600018" d="M102.377 96.2808L101.171 95.7526C100.483 95.4505 99.6825 95.7677 99.3828 96.4599C99.0829 97.152 99.3978 97.9578 100.086 98.2593L105.074 100.446C105.247 100.522 105.432 100.56 105.617 100.56C105.852 100.56 106.087 100.498 106.296 100.376C106.669 100.159 106.918 99.7772 106.967 99.3461L107.579 93.907C107.663 93.1567 107.127 92.4797 106.381 92.3948C105.636 92.3098 104.963 92.8492 104.878 93.5995L104.73 94.9135L102.492 91.0143C101.572 89.4105 99.9235 88.4529 98.0825 88.4527C96.2417 88.4527 94.593 89.4103 93.6725 91.0143L91.2511 95.2338C90.8759 95.8876 91.0986 96.7238 91.7485 97.1013C92.3983 97.4789 93.2296 97.2547 93.6049 96.601L96.0263 92.3814C96.4555 91.6335 97.2242 91.1871 98.0827 91.1871C98.941 91.1873 99.7096 91.6337 100.139 92.3814L102.377 96.2808Z" fill="white"/>
<path opacity="0.600018" d="M111.842 107.3L109.421 103.081C109.045 102.427 108.214 102.203 107.564 102.581C106.914 102.958 106.692 103.794 107.067 104.448L109.488 108.668C109.918 109.416 109.918 110.308 109.488 111.056C109.059 111.804 108.29 112.251 107.432 112.251H102.957L104.014 111.465C104.618 111.016 104.745 110.16 104.299 109.553C103.854 108.945 103.002 108.817 102.399 109.266L98.0226 112.518C97.6758 112.776 97.4712 113.184 97.4712 113.618C97.4712 114.052 97.6758 114.46 98.0226 114.717L102.399 117.97C102.642 118.151 102.925 118.238 103.205 118.238C103.622 118.238 104.033 118.046 104.299 117.683C104.745 117.075 104.618 116.219 104.014 115.771L102.957 114.985H107.432C109.273 114.985 110.922 114.027 111.842 112.423C112.763 110.82 112.763 108.904 111.842 107.3Z" fill="white"/>
<path opacity="0.600018" d="M93.5939 112.25H88.751C87.8927 112.25 87.1238 111.804 86.6948 111.056C86.2655 110.308 86.2655 109.415 86.6948 108.667L88.9326 104.768L89.0804 106.082C89.1591 106.78 89.747 107.296 90.4291 107.296C90.4802 107.296 90.5316 107.293 90.5836 107.287C91.3294 107.202 91.8656 106.525 91.7812 105.775L91.1693 100.335C91.1207 99.9042 90.8717 99.522 90.4983 99.305C90.125 99.0883 89.6715 99.0624 89.2759 99.2358L84.2877 101.422C83.5997 101.724 83.2848 102.53 83.5847 103.222C83.8846 103.914 84.6856 104.231 85.3733 103.929L86.5786 103.401L84.3408 107.3C83.4203 108.904 83.4203 110.819 84.3408 112.423C85.2613 114.027 86.91 114.985 88.751 114.985H93.5939C94.3444 114.985 94.9529 114.373 94.9529 113.618C94.9529 112.863 94.3444 112.25 93.5939 112.25Z" fill="white"/>
</svg>
