<svg width="22" height="16" viewBox="0 0 22 16" fill="none" xmlns="http://www.w3.org/2000/svg">
<path fill-rule="evenodd" clip-rule="evenodd" d="M2.25 2.40527V13.9053H19.75V2.40527H2.25ZM0.25 2.15527C0.25 1.18878 1.0335 0.405273 2 0.405273H20C20.9665 0.405273 21.75 1.18878 21.75 2.15527V14.1553C21.75 15.1218 20.9665 15.9053 20 15.9053H2C1.0335 15.9053 0.25 15.1218 0.25 14.1553V2.15527Z" fill="#2154FF"/>
<path fill-rule="evenodd" clip-rule="evenodd" d="M13.75 11.9053C13.75 11.353 14.1977 10.9053 14.75 10.9053H17.75C18.3023 10.9053 18.75 11.353 18.75 11.9053C18.75 12.4576 18.3023 12.9053 17.75 12.9053H14.75C14.1977 12.9053 13.75 12.4576 13.75 11.9053Z" fill="#2154FF"/>
<path fill-rule="evenodd" clip-rule="evenodd" d="M9.25 11.9053C9.25 11.353 9.69772 10.9053 10.25 10.9053H11.75C12.3023 10.9053 12.75 11.353 12.75 11.9053C12.75 12.4576 12.3023 12.9053 11.75 12.9053H10.25C9.69772 12.9053 9.25 12.4576 9.25 11.9053Z" fill="#2154FF"/>
<path fill-rule="evenodd" clip-rule="evenodd" d="M0.25 5.23535C0.25 4.68307 0.697715 4.23535 1.25 4.23535H20.75C21.3023 4.23535 21.75 4.68307 21.75 5.23535C21.75 5.78764 21.3023 6.23535 20.75 6.23535H1.25C0.697715 6.23535 0.25 5.78764 0.25 5.23535Z" fill="#2154FF"/>
</svg>
