<svg width="159" height="166" viewBox="0 0 159 166" fill="none" xmlns="http://www.w3.org/2000/svg">
<g opacity="0.63">
<g filter="url(#filter0_f)">
<path d="M97.1361 74.7345L131.242 94.5163C140.36 99.8045 140.208 109.262 130.904 115.622L96.0998 139.414C86.7956 145.775 71.8386 146.645 62.7211 141.357L28.615 121.575C19.4975 116.287 19.649 106.829 28.9532 100.469L63.7574 76.6768C73.0616 70.3166 88.0186 69.4462 97.1361 74.7345Z" fill="url(#paint0_radial)" fill-opacity="0.2"/>
</g>
</g>
<path d="M123.244 41.8867C128.3 41.1001 133.307 40.3081 138.144 39.3462C138.99 39.1397 140.021 38.8414 140.237 38.4107C140.377 38.1234 139.555 37.22 138.92 36.8339C126.323 29.1603 113.618 21.6596 100.793 14.3835C100.067 13.9697 99.2107 13.8888 98.4558 13.8661C97.5964 13.8309 96.8025 14.116 96.0629 14.1875C90.4286 15.1919 84.7836 15.944 79.3672 17.1131C79.0874 17.164 79.8727 17.672 80.1987 17.8576C94.2804 25.8817 108.408 33.8256 122.56 41.7256C122.767 41.8411 123.061 41.9063 123.244 41.8867Z" fill="#F99F1B"/>
<path d="M79.417 67.8946C79.417 67.8946 120.571 44.1247 123.301 42.5455C123.331 46.3545 123.765 85.9893 123.791 88.6939C123.823 91.9695 122.433 94.3947 119.576 96.0302C114.613 98.8721 90.9276 112.618 84.0338 116.621C82.6399 117.431 81.2153 118.12 79.5349 117.964C79.493 101.928 79.417 67.8946 79.417 67.8946Z" fill="#FBBB3C"/>
<path d="M79.4169 67.8945C79.4169 67.8945 79.4929 101.928 79.5348 117.964C78.0587 118.046 76.7317 117.581 75.4752 116.861C65.1678 110.957 41.1241 97.1698 39.3969 96.2034C36.5268 94.5975 35.1496 92.1823 35.1614 88.8822C35.1847 82.3928 35.0652 49.215 35.043 42.7244C37.9375 44.3605 79.4169 67.8945 79.4169 67.8945Z" fill="#FDCC50"/>
<path d="M123.042 42.1379C118.898 39.7564 114.752 37.3782 110.6 35.0099C107.212 33.0776 91.9045 24.4927 83.7941 19.9469C82.1474 19.0245 79.6215 17.6874 79.0314 17.439C78.2279 17.789 75.1738 19.1777 73.691 20.0477C64.0339 25.7164 36.4946 41.5775 35.298 42.7613C38.2944 44.5034 67.1329 61.0662 78.5378 67.6369C79.2285 68.0348 79.6977 67.9433 80.3232 67.5798C91.7806 60.9198 103.252 54.2874 114.709 47.6267C117.611 45.939 120.583 44.3658 123.386 42.5096C123.273 42.3839 123.182 42.2187 123.042 42.1379Z" fill="#EAD9C3"/>
<path d="M79.1758 17.4473L79.4153 67.8933C79.716 67.886 80.0045 67.7732 80.3363 67.5799C91.7931 60.9205 120.596 44.3659 123.399 42.5097C123.285 42.384 123.195 42.2187 123.055 42.1379C118.911 39.7564 91.917 24.4934 83.8065 19.9469C82.4002 19.1591 80.6021 18.3129 79.1758 17.4473Z" fill="#C4AD9B"/>
<path d="M53.3744 99.278L40.4221 91.9191C39.5975 91.4503 39.0877 90.5773 39.0854 89.6298L39.0669 81.9694C39.062 79.9406 41.2559 78.6634 43.0228 79.668L55.9744 87.0275C56.7991 87.4963 57.3095 88.3694 57.3118 89.3162L57.3303 96.9759C57.3352 99.0054 55.1413 100.282 53.3744 99.278Z" fill="#FDFDFD"/>
<path d="M123.338 42.5095C129.775 47.9429 136.207 53.3677 142.172 59.1792C142.565 59.5978 142.429 60.3733 142.198 61.0221C141.976 61.645 141.563 62.3837 140.884 62.7989C128.229 70.5391 115.399 78.0123 102.484 85.3121C101.796 85.7008 100.966 85.7858 100.283 85.7455C99.623 85.7065 99.0382 85.446 98.6416 85.0856C92.1014 79.6032 85.6097 74.1048 79.524 68.2838C79.3445 68.0956 80.0617 67.7704 80.385 67.579C94.4548 59.2495 108.559 50.9763 122.68 42.7342C122.885 42.615 123.216 42.3975 123.338 42.5095Z" fill="#E79318"/>
<path d="M79.1227 17.176C73.3966 14.3906 67.4209 11.947 61.5438 9.36951C60.6825 8.99176 59.8728 8.51022 58.9086 8.31121C58.1818 8.16118 57.2996 7.94327 56.5691 8.34278C43.5018 15.4888 30.6283 23.0077 17.8976 30.7388C17.1987 31.1632 16.6546 31.9526 16.5468 32.6474C16.4373 33.3523 16.7069 34.1427 17.3168 34.4753C22.9277 37.536 28.9002 40.1424 34.9112 42.6654C35.2106 42.791 35.6504 42.4979 35.9803 42.3093C50.231 34.1625 64.4389 25.9401 78.6229 17.6769C78.8304 17.5559 79.3054 17.2649 79.1227 17.176Z" fill="#E69317"/>
<path d="M34.734 43.0813C28.6333 48.1606 22.6104 53.2614 16.942 58.6608C16.3701 59.1686 16.175 59.9495 16.2196 60.6669C16.2593 61.304 16.4676 62.0963 17.1821 62.5286C29.9625 70.2617 43.0621 77.6972 56.3305 84.9372C57.0589 85.3347 58.0664 85.3671 58.8943 85.2895C59.7595 85.2083 60.6085 84.9136 61.1755 84.4827C67.4627 79.3597 73.5968 74.1881 79.3685 68.7441C79.6014 68.5399 78.897 68.2161 78.5656 68.0241C64.2521 59.7257 49.8752 51.4905 35.4645 43.2901C35.2536 43.1701 34.8917 42.9596 34.734 43.0813Z" fill="#F89F1A"/>
<defs>
<filter id="filter0_f" x="0.875" y="50.2739" width="158.108" height="115.543" filterUnits="userSpaceOnUse" color-interpolation-filters="sRGB">
<feFlood flood-opacity="0" result="BackgroundImageFix"/>
<feBlend mode="normal" in="SourceGraphic" in2="BackgroundImageFix" result="shape"/>
<feGaussianBlur stdDeviation="10.5" result="effect1_foregroundBlur"/>
</filter>
<radialGradient id="paint0_radial" cx="0" cy="0" r="1" gradientUnits="userSpaceOnUse" gradientTransform="translate(80.2115 108.131) rotate(-34.3561) scale(37.257 31.4412)">
<stop/>
<stop offset="0.95"/>
<stop offset="1"/>
</radialGradient>
</defs>
</svg>
