<svg width="20" height="22" viewBox="0 0 20 22" fill="none" xmlns="http://www.w3.org/2000/svg">
<path fill-rule="evenodd" clip-rule="evenodd" d="M10.0991 10.1553C10.6514 10.161 11.0944 10.6133 11.0887 11.1656L10.9892 20.8041C10.9835 21.3563 10.5312 21.7994 9.97893 21.7937C9.42668 21.788 8.98361 21.3357 8.98931 20.7834L9.08885 11.1449C9.09455 10.5927 9.54686 10.1496 10.0991 10.1553Z" fill="#2154FF"/>
<path fill-rule="evenodd" clip-rule="evenodd" d="M9.12816 0.743117C9.39086 0.594633 9.6875 0.516602 9.98926 0.516602C10.291 0.516602 10.5877 0.594633 10.8504 0.743117L18.7254 5.1942C18.9952 5.34669 19.2196 5.5681 19.3758 5.83577C19.532 6.10344 19.6143 6.40778 19.6143 6.71769V15.5925C19.6143 15.9024 19.532 16.2067 19.3758 16.4744C19.2196 16.7421 18.9952 16.9635 18.7254 17.116L10.8504 21.5671C10.5877 21.7156 10.291 21.7936 9.98926 21.7936C9.6875 21.7936 9.39086 21.7156 9.12816 21.5671L1.25316 17.116C0.983365 16.9635 0.758908 16.7421 0.602731 16.4744C0.446553 16.2067 0.364257 15.9024 0.364258 15.5925V6.71769C0.364258 6.40778 0.446554 6.10344 0.602731 5.83577C0.758908 5.5681 0.983364 5.34669 1.25316 5.1942L9.12816 0.743117ZM2.36426 6.86355V15.4466L9.98926 19.7564L17.6143 15.4466V6.86355L9.98926 2.55377L2.36426 6.86355ZM10.1119 2.48444C10.112 2.48437 10.1122 2.48431 10.1123 2.48424L9.98926 2.2666L9.86624 2.48424C9.86636 2.48431 9.86647 2.48437 9.86659 2.48444L9.86624 2.48424L9.98926 2.2666L10.1123 2.48424L10.1119 2.48444Z" fill="#2154FF"/>
<path fill-rule="evenodd" clip-rule="evenodd" d="M0.59499 5.85028C0.864387 5.36816 1.47362 5.19571 1.95574 5.46511L10.0834 10.0066L18.0155 5.471C18.4949 5.19685 19.1058 5.36328 19.38 5.84271C19.6541 6.32215 19.4877 6.93306 19.0083 7.2072L10.5855 12.0234C10.281 12.1975 9.90753 12.1994 9.60132 12.0283L0.980167 7.21103C0.498043 6.94164 0.325593 6.33241 0.59499 5.85028Z" fill="#2154FF"/>
<path fill-rule="evenodd" clip-rule="evenodd" d="M5.02468 3.23017C5.29407 2.74804 5.9033 2.57559 6.38543 2.84499L15.0835 7.70518C15.3997 7.8819 15.5957 8.21585 15.5957 8.57814V13.0781C15.5957 13.6304 15.148 14.0781 14.5957 14.0781C14.0434 14.0781 13.5957 13.6304 13.5957 13.0781V9.16489L5.40986 4.59092C4.92773 4.32152 4.75528 3.71229 5.02468 3.23017Z" fill="#2154FF"/>
</svg>
