<svg width="21" height="21" viewBox="0 0 21 21" fill="none" xmlns="http://www.w3.org/2000/svg">
<path d="M20.4998 10.3774C20.4998 9.55522 20.4317 8.95522 20.2843 8.33301H10.7041V12.0441H16.3275C16.2142 12.9663 15.6019 14.3552 14.2414 15.2885L14.2223 15.4127L17.2514 17.7125L17.4613 17.733C19.3886 15.9885 20.4998 13.4219 20.4998 10.3774Z" fill="#4285F4"/>
<path d="M10.7033 20.155C13.4583 20.155 15.7711 19.2661 17.4605 17.7328L14.2406 15.2883C13.379 15.8772 12.2225 16.2883 10.7033 16.2883C8.005 16.2883 5.71483 14.5439 4.89844 12.1328L4.77878 12.1428L1.62908 14.5317L1.58789 14.6439C3.26583 17.9105 6.71246 20.155 10.7033 20.155Z" fill="#34A853"/>
<path d="M4.89893 12.1335C4.68352 11.5113 4.55886 10.8446 4.55886 10.1557C4.55886 9.4668 4.68352 8.80016 4.8876 8.17795L4.88189 8.04543L1.69272 5.61816L1.58838 5.6668C0.896819 7.02238 0.5 8.54463 0.5 10.1557C0.5 11.7668 0.896819 13.289 1.58838 14.6446L4.89893 12.1335Z" fill="#FBBC05"/>
<path d="M10.7033 4.02191C12.6193 4.02191 13.9118 4.83302 14.6488 5.51084L17.5285 2.75527C15.7599 1.14417 13.4583 0.155273 10.7033 0.155273C6.71246 0.155273 3.26583 2.3997 1.58789 5.66634L4.88711 8.17748C5.71483 5.76638 8.005 4.02191 10.7033 4.02191Z" fill="#EB4335"/>
</svg>
