<svg width="88" height="88" viewBox="0 0 88 88" fill="none" xmlns="http://www.w3.org/2000/svg">
<path fill-rule="evenodd" clip-rule="evenodd" d="M60.4381 27.3999C58.9342 27.3999 57.5665 28.0101 56.5802 28.9964L38.6424 46.9397L31.597 39.8942C30.6107 38.9134 29.2485 38.3031 27.7446 38.3031C24.7313 38.3031 22.2957 40.7388 22.2957 43.7521C22.2957 45.256 22.9005 46.6182 23.8867 47.599L34.7846 58.5023C35.7708 59.4885 37.1331 60.0934 38.6424 60.0934C40.1463 60.0934 41.5085 59.4885 42.4948 58.5023L64.2905 36.7066C65.2767 35.7204 65.887 34.3581 65.887 32.8488C65.887 29.841 63.4459 27.3999 60.4381 27.3999ZM74.9104 12.9221C57.888 -4.10033 30.2892 -4.10033 13.2668 12.9221C-3.7556 29.9499 -3.7556 57.5487 13.2668 74.5711C30.2892 91.5935 57.888 91.5935 74.9104 74.5711C91.9328 57.5487 91.9328 29.9499 74.9104 12.9221ZM67.2056 66.8664C54.4388 79.6332 33.7384 79.6332 20.9716 66.8664C8.20477 54.0995 8.20477 33.3991 20.9716 20.6323C33.7384 7.86549 54.4388 7.86549 67.2056 20.6323C79.9724 33.3991 79.9724 54.0995 67.2056 66.8664Z" fill="#5EAC17"/>
</svg>
