<svg width="86" height="86" viewBox="0 0 86 86" fill="none" xmlns="http://www.w3.org/2000/svg">
<path d="M42.9587 84.7611H42.9589C66.1178 84.7695 84.9048 66.0035 84.9173 42.8445V42.8444C84.9173 19.698 66.1596 0.936121 43.0133 0.927737C19.871 0.919354 1.10076 19.6729 1.084 42.8151C1.06723 65.9615 19.8124 84.7359 42.9587 84.7611ZM47.1673 63.9277H47.4173V63.6777V55.3444V55.0944H47.1673H38.834H38.584V55.3444V63.6777V63.9277H38.834H47.1673ZM47.1673 47.2611H47.4173V47.0111V22.0111V21.7611H47.1673H38.834H38.584V22.0111V47.0111V47.2611H38.834H47.1673ZM19.7947 66.784C13.5628 60.6518 10.0117 52.3022 9.91733 43.5597V42.8458C10.0117 34.1033 13.5628 25.7536 19.7947 19.6214C26.0269 13.4889 34.4333 10.0729 43.1766 10.1199C51.9199 10.1669 60.2891 13.6731 66.455 19.8722C72.6209 26.0714 76.0821 34.4593 76.0821 43.2027C76.0821 51.9462 72.6209 60.3341 66.455 66.5332C60.2891 72.7324 51.9199 76.2386 43.1766 76.2856C34.4333 76.3326 26.0269 72.9165 19.7947 66.784Z" fill="#EA403F" stroke="#EA403F" stroke-width="0.5"/>
</svg>
