<svg width="24" height="25" viewBox="0 0 24 25" fill="none" xmlns="http://www.w3.org/2000/svg">
<path fill-rule="evenodd" clip-rule="evenodd" d="M4.25 21.9053C4.25 21.353 4.69772 20.9053 5.25 20.9053H18.75C19.3023 20.9053 19.75 21.353 19.75 21.9053C19.75 22.4576 19.3023 22.9053 18.75 22.9053H5.25C4.69772 22.9053 4.25 22.4576 4.25 21.9053Z" fill="#2154FF"/>
<path fill-rule="evenodd" clip-rule="evenodd" d="M12 7.90527C10.8954 7.90527 10 8.8007 10 9.90527C10 11.0098 10.8954 11.9053 12 11.9053C13.1046 11.9053 14 11.0098 14 9.90527C14 8.8007 13.1046 7.90527 12 7.90527ZM8 9.90527C8 7.69613 9.79086 5.90527 12 5.90527C14.2091 5.90527 16 7.69613 16 9.90527C16 12.1144 14.2091 13.9053 12 13.9053C9.79086 13.9053 8 12.1144 8 9.90527Z" fill="#2154FF"/>
<path fill-rule="evenodd" clip-rule="evenodd" d="M12 3.40527C10.2761 3.40527 8.62279 4.09009 7.40381 5.30908C6.18482 6.52807 5.5 8.18137 5.5 9.90527C5.5 12.9202 7.18685 15.6899 9.00461 17.7803C9.90127 18.8115 10.8005 19.6436 11.4758 20.2176C11.6719 20.3843 11.8486 20.5287 12 20.6494C12.1514 20.5287 12.3281 20.3843 12.5242 20.2176C13.1995 19.6436 14.0987 18.8115 14.9954 17.7803C16.8132 15.6899 18.5 12.9202 18.5 9.90527C18.5 8.18137 17.8152 6.52807 16.5962 5.30908C15.3772 4.09009 13.7239 3.40527 12 3.40527ZM12 21.9053C11.4265 22.7245 11.4263 22.7243 11.426 22.7241L11.4232 22.7222L11.4172 22.7179L11.3971 22.7037C11.3802 22.6916 11.3564 22.6745 11.3262 22.6524C11.2656 22.6082 11.1792 22.5441 11.0705 22.461C10.8533 22.295 10.5467 22.0527 10.1805 21.7414C9.4495 21.1201 8.47373 20.2178 7.49539 19.0927C5.56315 16.8706 3.5 13.6403 3.5 9.90527C3.5 7.65093 4.39553 5.48892 5.98959 3.89487C7.58365 2.30081 9.74566 1.40527 12 1.40527C14.2543 1.40527 16.4163 2.30081 18.0104 3.89487C19.6045 5.48892 20.5 7.65093 20.5 9.90527C20.5 13.6403 18.4368 16.8706 16.5046 19.0927C15.5263 20.2178 14.5505 21.1201 13.8195 21.7414C13.4533 22.0527 13.1467 22.295 12.9295 22.461C12.8208 22.5441 12.7344 22.6082 12.6738 22.6524C12.6436 22.6745 12.6198 22.6916 12.6029 22.7037L12.5828 22.7179L12.5768 22.7222L12.5748 22.7236C12.5745 22.7238 12.5735 22.7245 12 21.9053ZM12 21.9053L12.5735 22.7245C12.2291 22.9655 11.7703 22.9651 11.426 22.7241L12 21.9053Z" fill="#2154FF"/>
</svg>
