<svg width="40" height="24" viewBox="0 0 40 24" fill="none" xmlns="http://www.w3.org/2000/svg">
<path fill-rule="evenodd" clip-rule="evenodd" d="M38.7657 18.6056H38.8093C38.8238 18.6056 38.844 18.6048 38.8585 18.6113C38.8699 18.6186 38.8771 18.6323 38.8771 18.6469C38.8771 18.6623 38.8715 18.6785 38.8585 18.6866C38.844 18.6939 38.8254 18.6939 38.8109 18.6939H38.7657V18.6056ZM38.7654 18.7512H38.8236L38.8753 18.8856H38.9641L38.9011 18.7359C38.9374 18.7205 38.9608 18.6865 38.9608 18.6484C38.9608 18.6144 38.9431 18.5796 38.918 18.5618C38.8914 18.5424 38.8599 18.5424 38.83 18.5424H38.6863V18.8856H38.7654V18.7512ZM38.8189 19.0112C38.9812 19.0112 39.1136 18.8776 39.1136 18.7165C39.1136 18.553 38.9812 18.421 38.8189 18.421C38.6566 18.421 38.5242 18.553 38.5242 18.7165C38.5242 18.8776 38.6566 19.0112 38.8189 19.0112ZM38.4312 18.7164C38.4312 18.5011 38.6039 18.327 38.8187 18.327C39.0319 18.327 39.2055 18.5011 39.2055 18.7164C39.2055 18.9294 39.0319 19.1051 38.8187 19.1051C38.6039 19.1051 38.4312 18.9294 38.4312 18.7164ZM38.7657 14.6328H38.8069C38.8222 14.6328 38.844 14.6296 38.8585 14.6368C38.8699 14.6466 38.8771 14.6587 38.8771 14.6733C38.8771 14.6879 38.8715 14.704 38.8585 14.7129C38.8424 14.7194 38.8254 14.7194 38.8093 14.7194H38.7657V14.6328ZM38.7654 14.7794H38.8236L38.8753 14.9106H38.9641L38.9011 14.7624C38.9374 14.7478 38.9608 14.713 38.9608 14.6742C38.9608 14.6402 38.9431 14.6053 38.9164 14.59C38.8914 14.5721 38.8599 14.5721 38.83 14.5721H38.6863V14.9106H38.7654V14.7794ZM38.5222 14.7421C38.5222 14.5802 38.6546 14.4474 38.8169 14.4474C38.9808 14.4474 39.1108 14.5802 39.1108 14.7421C39.1108 14.9032 38.9808 15.0368 38.8169 15.0368C38.6546 15.0368 38.5222 14.9032 38.5222 14.7421ZM38.8171 15.1308C39.0319 15.1308 39.2055 14.9551 39.2055 14.7422C39.2055 14.5276 39.0319 14.3544 38.8171 14.3544C38.6023 14.3544 38.4312 14.5276 38.4312 14.7422C38.4312 14.9551 38.6023 15.1308 38.8171 15.1308ZM21.4254 10.219C21.2712 11.6762 20.9967 13.1489 20.7811 14.6054L20.7254 14.922H21.9607C22.4024 12.0454 22.509 11.4844 23.2001 11.5548C23.3115 10.9662 23.5166 10.4497 23.6692 10.1906C23.1533 10.0846 22.8626 10.376 22.4872 10.9322C22.5154 10.6934 22.5703 10.4578 22.559 10.219H21.4254ZM32.2138 10.219C32.0596 11.6762 31.785 13.1489 31.5703 14.6054L31.513 14.922H32.7475C33.1891 12.0454 33.2965 11.4844 33.9885 11.5548C34.0991 10.9662 34.3034 10.4497 34.4584 10.1906C33.9408 10.0846 33.6518 10.376 33.2731 10.9322C33.3038 10.6934 33.3579 10.4578 33.349 10.219H32.2138ZM35.3906 12.9084C35.3906 11.9838 35.7862 11.3289 36.3482 11.3289C36.7713 11.3289 37.0014 11.6535 37.0014 12.2494C37.0014 13.182 36.5977 13.8354 36.022 13.8354C35.6021 13.8354 35.3906 13.5237 35.3906 12.9084ZM38.7845 9.13965H37.5653L37.2932 10.8099C36.9549 10.3654 36.5931 10.1695 36.1152 10.1695C35.026 10.1695 34.1055 11.4883 34.1055 13.0525C34.1055 14.2272 34.699 15.0036 35.596 15.0036C36.049 15.0036 36.3953 14.8458 36.7336 14.4839L36.6763 14.9219H37.8438L38.7845 9.13965ZM11.2635 11.7061C11.2635 12.3012 11.5509 12.7108 12.2033 13.0193C12.7023 13.2549 12.7806 13.3245 12.7806 13.5383C12.7806 13.8321 12.5594 13.9633 12.0717 13.9633C11.7035 13.9633 11.3604 13.9066 10.9656 13.7787C10.9656 13.7787 10.8041 14.8142 10.7968 14.8644C11.0754 14.9251 11.3265 14.9818 12.0798 15.0036C13.383 15.0036 13.9845 14.5057 13.9845 13.4322C13.9845 12.7853 13.7326 12.4056 13.1133 12.1214C12.5973 11.8826 12.5368 11.8292 12.5368 11.6106C12.5368 11.3547 12.7419 11.2252 13.1415 11.2252C13.3838 11.2252 13.7148 11.2511 14.0281 11.2965L14.2041 10.2059C13.8844 10.1557 13.3999 10.1152 13.1173 10.1152C11.7366 10.1152 11.2587 10.8374 11.2635 11.7061ZM19.4661 12.0243C19.4733 11.9263 19.5969 11.1847 18.8952 11.1847C18.5053 11.1847 18.2259 11.4842 18.1104 12.0243H19.4661ZM20.3611 13.6427C19.9202 13.8491 19.5238 13.9398 19.0846 13.9398C18.37 13.9398 17.9348 13.6548 18.018 12.9731H20.462C20.5678 12.4971 20.6122 12.1627 20.6122 11.817C20.6122 10.7759 19.9662 10.1152 18.9546 10.1152C17.7184 10.1152 16.8068 11.2981 16.8068 12.9051C16.8068 14.2831 17.5238 15.002 18.8972 15.0036C19.3284 15.0053 19.7345 14.9421 20.1552 14.8126L20.3611 13.6427ZM16.3823 13.8103C16.2992 13.8402 16.1902 13.8524 16.0497 13.8524C15.7574 13.8524 15.6266 13.7471 15.6266 13.5067C15.629 13.3577 15.8325 12.2445 15.9762 11.3499H16.6068L16.7747 10.2188H16.145L16.2871 9.5072H15.0614C15.0614 9.5072 14.5971 12.2777 14.5261 12.7173C14.4486 13.2168 14.3477 13.7625 14.3565 13.9714C14.3565 14.6385 14.7013 15.0036 15.3319 15.0036C15.6177 15.0036 15.8809 14.9583 16.2176 14.8506L16.3823 13.8103ZM31.2597 12.425C31.3227 12.0324 31.3631 11.7344 31.3607 11.4924C31.3615 10.5921 30.8003 10.1152 29.7402 10.1152C29.284 10.1152 28.8779 10.1824 28.2634 10.3638C28.2634 10.3638 28.1052 11.3426 28.0923 11.4203C28.2982 11.3531 28.7947 11.2033 29.3987 11.2098C29.9752 11.2098 30.1907 11.3248 30.1907 11.6373C30.1907 11.7207 30.1794 11.7879 30.1423 11.9425C29.9574 11.9182 29.779 11.9053 29.6393 11.9053C28.2691 11.9053 27.4722 12.5716 27.4722 13.718C27.4722 14.479 27.9308 15.0036 28.5993 15.0036C29.1637 15.0036 29.5811 14.8191 29.8928 14.4345L29.8686 14.9219C29.8686 14.9219 30.7277 14.9219 30.8916 14.9219C30.9239 14.5673 31.154 13.1043 31.2597 12.425ZM29.9936 12.8266C29.8644 12.812 29.8079 12.8071 29.7199 12.8071C29.019 12.8071 28.6662 13.0476 28.6662 13.522C28.6662 13.8159 28.8382 14.0029 29.1087 14.0029C29.6101 14.0029 29.9726 13.522 29.9936 12.8266ZM26.4379 8.99548C24.8021 8.99548 23.6588 10.4382 23.6588 12.5068C23.6588 14.0458 24.4856 15.0036 25.8146 15.0036C26.1569 15.0036 26.4508 14.9582 26.9054 14.8328L27.1218 13.5139C26.7125 13.7179 26.3774 13.8118 26.073 13.8118C25.356 13.8118 24.9224 13.2815 24.9224 12.4039C24.9224 11.132 25.5667 10.2374 26.4888 10.2374C26.8319 10.2374 27.1517 10.3281 27.5925 10.5499L27.7944 9.29423C27.6127 9.2246 26.9765 8.99548 26.4379 8.99548ZM10.6839 12.425C10.746 12.0324 10.7856 11.7344 10.784 11.4924C10.7856 10.5921 10.2236 10.1152 9.16431 10.1152C8.70812 10.1152 8.30199 10.1824 7.68674 10.3638C7.68674 10.3638 7.52849 11.3426 7.51638 11.4203C7.72066 11.3531 8.21964 11.2033 8.82197 11.2098C9.39846 11.2098 9.61323 11.3248 9.61323 11.6373C9.61323 11.7207 9.60354 11.7879 9.5664 11.9425C9.38231 11.9182 9.20145 11.9053 9.06338 11.9053C7.6932 11.9053 6.89629 12.5716 6.89629 13.718C6.89629 14.479 7.3549 15.0036 8.02344 15.0036C8.58862 15.0036 9.00525 14.8191 9.31691 14.4345L9.2935 14.9219C9.2935 14.9219 10.1518 14.9219 10.3157 14.9219C10.3472 14.5673 10.5781 13.1043 10.6839 12.425ZM9.41785 12.8266C9.28785 12.812 9.23133 12.8071 9.14252 12.8071C8.4433 12.8071 8.08885 13.0476 8.08885 13.522C8.08885 13.8159 8.26163 14.0029 8.53212 14.0029C9.03513 14.0029 9.39685 13.522 9.41785 12.8266ZM7.12298 9.13965H5.20619L4.0088 12.7189L3.95954 9.13965H2.18485L1.2208 14.9219H2.37459L3.11903 10.5022L3.22238 14.9219H4.06289L5.64219 10.4771L4.93409 14.9219H6.17024L7.12298 9.13965ZM40 11.9984C40 18.6266 34.642 24 28.0333 24C25.3253 24 22.828 23.0965 20.8223 21.5768C20.8223 21.5768 20.8223 21.5768 20.8232 21.5768C22.5066 20.0103 23.7751 18.0049 24.4517 15.7436H23.3374C22.6842 17.7442 21.52 19.514 20.0012 20.8943C18.4809 19.514 17.3174 17.7442 16.6626 15.7436H15.5499C16.2249 18.0049 17.495 20.0103 19.1768 21.5768C17.1728 23.0965 14.6755 24 11.9667 24C5.35718 24 0 18.6266 0 11.9984C0 5.37336 5.35718 0 11.9667 0C14.6755 0 17.1728 0.901093 19.1768 2.42235C17.3892 4.08609 16.0643 6.24774 15.428 8.68385H16.5301C17.1519 6.50843 18.3719 4.58481 20.0012 3.10565C21.6281 4.58481 22.8481 6.50843 23.4715 8.68385H24.5736C23.9365 6.24774 22.6124 4.08609 20.8232 2.42235C20.8223 2.42235 20.8223 2.42235 20.8223 2.42235C22.828 0.901093 25.3253 0 28.0333 0C34.642 0 40 5.37336 40 11.9984Z" fill="#2154FF"/>
</svg>
