<svg width="88" height="24" viewBox="0 0 88 24" fill="none" xmlns="http://www.w3.org/2000/svg">
<path fill-rule="evenodd" clip-rule="evenodd" d="M33.207 6.9737C33.2455 6.70999 33.4798 6.48978 33.7425 6.48485C34.8376 6.48361 35.9331 6.48485 37.0281 6.48406C37.4416 6.47983 37.8304 6.79043 37.9363 7.19797C38.5736 9.38022 39.2145 11.5616 39.8515 13.7442C41.3576 11.4737 42.8662 9.2045 44.3723 6.9339C44.5572 6.63209 44.9099 6.45703 45.2561 6.48361C46.3257 6.48531 47.3955 6.48406 48.465 6.48406C48.5936 6.47983 48.7229 6.52047 48.8255 6.60182C49.0606 6.77804 49.1231 7.14909 48.9573 7.39501C45.3027 12.7935 41.6458 18.1903 37.9885 23.5868C37.8597 23.7609 37.6748 23.93 37.4529 23.9421C37.4802 23.9554 37.5348 23.9815 37.5625 23.9948C36.285 23.9993 35.0071 24.0047 33.7296 23.9927C33.6347 23.9193 33.5208 23.8662 33.4531 23.7626C33.3039 23.559 33.3006 23.2576 33.4535 23.0552C34.4119 21.6716 35.3715 20.2888 36.3287 18.9043C36.5043 18.6568 36.6697 18.4009 36.8521 18.158C36.3198 16.5181 35.7632 14.8862 35.2231 13.2483C34.5822 11.3215 33.9395 9.3956 33.2986 7.46873C33.2451 7.31034 33.1701 7.14453 33.207 6.9737ZM23.106 9.78271C22.3402 9.90345 21.6145 10.2786 21.0715 10.8446C20.5235 11.4118 20.1692 12.1616 20.0467 12.9472C19.923 13.6662 19.9984 14.4502 20.3937 15.0731C20.7315 15.6142 21.3011 15.9749 21.9084 16.1113C22.8287 16.3219 23.8277 16.1851 24.6511 15.7095C25.2872 15.3417 25.8037 14.7662 26.1154 14.0908C26.4673 13.3208 26.6141 12.421 26.3814 11.5926C26.2144 10.9702 25.802 10.4184 25.2475 10.1069C24.6008 9.7388 23.8272 9.67498 23.106 9.78271ZM20.7678 6.51442C21.8507 6.14619 23.015 6.09818 24.1409 6.24243C24.9477 6.35434 25.78 6.58201 26.4152 7.12849C26.6703 7.33958 26.8434 7.62601 27.0335 7.89473C27.0818 7.58662 27.1256 7.27772 27.1767 6.97006C27.2136 6.69612 27.4715 6.47632 27.741 6.4842C28.8369 6.48499 29.9331 6.48453 31.029 6.4842C31.2662 6.4808 31.4924 6.64872 31.5662 6.87889C31.6217 7.03147 31.5848 7.19525 31.5609 7.35078C30.9792 11.1065 30.4034 14.8629 29.8212 18.6184C29.7811 18.9621 29.5435 19.2681 29.2302 19.3941C29.0412 19.4742 28.8332 19.4646 28.6334 19.4625C27.7151 19.4609 26.7968 19.4658 25.8789 19.46C25.57 19.4505 25.3126 19.1437 25.347 18.8302C25.3835 18.5163 25.4573 18.2079 25.4784 17.8924C24.3635 19.0541 22.7876 19.7167 21.2028 19.7702C20.4369 19.7913 19.6621 19.7155 18.9296 19.4783C18.2711 19.2673 17.6537 18.9099 17.1575 18.4173C16.6332 17.9068 16.2339 17.2704 15.9635 16.5863C15.5767 15.606 15.4543 14.5284 15.5451 13.4794C15.6911 11.8288 16.3001 10.2129 17.3326 8.93011C18.2222 7.81305 19.4238 6.95227 20.7678 6.51442ZM7.04916 4.21019C6.98389 4.33081 6.9774 4.47182 6.95466 4.60538C6.72482 6.09552 6.49418 7.58533 6.26301 9.07547C7.01713 9.06843 7.77243 9.09741 8.5253 9.04608C9.19465 8.99508 9.89761 8.85829 10.4336 8.41791C10.9319 8.01692 11.1987 7.39124 11.3146 6.76809C11.4106 6.23488 11.4634 5.67011 11.3 5.14523C11.1845 4.77537 10.9266 4.45851 10.593 4.27363C10.2018 4.05387 9.75211 3.97754 9.31259 3.93861C8.72797 3.89217 8.14137 3.90792 7.55553 3.90498C7.34751 3.8988 7.14569 4.02319 7.04916 4.21019ZM3.66328 0.0091328C5.97378 -0.00915244 8.28464 0.00660355 10.5951 0.00125481C11.4327 0.00581575 12.2723 0.093303 13.0833 0.313431C13.8175 0.517098 14.5322 0.840469 15.1164 1.34669C15.7075 1.85097 16.1304 2.54792 16.3404 3.30334C16.6238 4.30558 16.5845 5.37284 16.4211 6.39321C16.1895 7.84276 15.7108 9.29024 14.7998 10.4459C14.274 11.115 13.6094 11.6698 12.8631 12.0624C11.7409 12.6599 10.4715 12.9099 9.21593 12.9656C8.29891 12.9863 7.381 12.9635 6.46349 12.9771C6.14933 12.9826 5.84526 13.1529 5.67697 13.4246C5.54363 13.624 5.52737 13.8699 5.49133 14.1012C5.25501 15.6246 5.02225 17.1487 4.78504 18.6721C4.71166 19.1154 4.30462 19.4653 3.86478 19.4624C2.77054 19.4624 1.67635 19.462 0.582078 19.4624C0.338784 19.4707 0.1081 19.2991 0.0314749 19.0652C-0.0544339 18.8214 0.0610707 18.5734 0.0765578 18.3276C0.974891 12.5115 1.87002 6.69461 2.76856 0.878615C2.8046 0.419203 3.21282 0.0207425 3.66328 0.0091328Z" fill="#2154FF"/>
<path fill-rule="evenodd" clip-rule="evenodd" d="M71.9168 9.78376C71.1425 9.90566 70.4093 10.2889 69.865 10.8664C69.3042 11.4544 68.9507 12.2363 68.8448 13.0482C68.7363 13.7638 68.8395 14.5409 69.2534 15.1429C69.6332 15.7072 70.2684 16.0472 70.9202 16.1521C71.8039 16.3009 72.7428 16.1454 73.5162 15.6778C74.1357 15.3055 74.6362 14.7332 74.9389 14.0674C75.2679 13.3334 75.4105 12.4888 75.2207 11.696C75.0789 11.0823 74.7088 10.5227 74.1847 10.1847C73.5189 9.74806 72.685 9.66854 71.9168 9.78376ZM70.1898 6.34249C71.1251 6.12315 72.099 6.1261 73.0466 6.25459C73.8122 6.37077 74.5944 6.59625 75.2033 7.10542C75.4702 7.31903 75.6469 7.61674 75.8464 7.89118C75.8936 7.58398 75.9383 7.27624 75.989 6.96983C76.0258 6.69497 76.2822 6.47439 76.5534 6.48351C77.6488 6.4843 78.7452 6.48397 79.8415 6.48351C80.0803 6.47941 80.3096 6.65102 80.3805 6.88529C80.4374 7.04699 80.3909 7.21944 80.3682 7.38372C79.8021 11.0449 79.2395 14.7069 78.6734 18.3681C78.6437 18.5323 78.634 18.7031 78.5719 18.8595C78.4319 19.2181 78.0688 19.4685 77.6909 19.4628C76.7048 19.4619 75.7196 19.4628 74.7334 19.4623C74.4666 19.4722 74.2181 19.2633 74.1691 18.997C74.135 18.8781 74.1682 18.7562 74.1858 18.6381C74.2269 18.3818 74.2636 18.1247 74.3091 17.8693C73.8804 18.3399 73.3563 18.7131 72.8033 19.0158C71.9747 19.4656 71.0455 19.7202 70.1084 19.765C69.3122 19.8006 68.5046 19.7231 67.7426 19.4789C67.0749 19.2637 66.4485 18.9013 65.9497 18.3972C65.2095 17.6678 64.724 16.6929 64.4956 15.6739C64.2392 14.5439 64.2934 13.3573 64.5577 12.2341C64.9987 10.3035 66.1387 8.53303 67.7539 7.42389C68.4906 6.91224 69.3218 6.54363 70.1898 6.34249ZM84.2201 0.00620587C85.2893 -0.00208676 86.3593 0.00371808 87.4294 0.00326199C87.7785 0.000732734 88.0664 0.363618 87.9867 0.713567C87.0847 6.55788 86.1808 12.4016 85.2814 18.2463C85.2359 18.4838 85.235 18.7385 85.116 18.9549C84.9576 19.2563 84.6357 19.4607 84.2988 19.462C83.3407 19.4624 82.3826 19.4636 81.4237 19.4612C81.0938 19.4632 80.8199 19.122 80.8777 18.7915C81.8121 12.7097 82.7483 6.62828 83.681 0.546056C83.7029 0.264563 83.9409 0.0152448 84.2201 0.00620587ZM55.8258 4.29522C55.7908 4.41003 55.7795 4.53073 55.7611 4.6489C55.5336 6.12453 55.3035 7.59987 55.0769 9.0755C56.0332 9.05933 56.9983 9.13065 57.9467 8.97023C58.5575 8.86445 59.1743 8.60037 59.5672 8.09158C60.0309 7.49783 60.1823 6.71836 60.2146 5.97576C60.2356 5.43918 60.1044 4.8512 59.694 4.48466C59.3546 4.17203 58.8969 4.04225 58.4542 3.97757C57.7621 3.881 57.0613 3.91127 56.3648 3.90588C56.1268 3.89883 55.9002 4.06505 55.8258 4.29522ZM52.3292 0.0248763C52.6319 -0.0211063 52.9399 0.0128934 53.2453 0.00207157C54.9873 0.0029423 56.7303 0.00207157 58.4723 0.00207157C59.2589 0.00547155 60.0498 -0.0170015 60.8312 0.0995099C61.903 0.244631 62.9871 0.577165 63.8446 1.27416C64.366 1.69671 64.772 2.26351 65.017 2.89578C65.402 3.88261 65.4177 4.97644 65.2891 6.01796C65.129 7.20596 64.828 8.39006 64.2619 9.44746C63.7571 10.4043 63.016 11.2353 62.1104 11.8092C61.0709 12.4759 59.8556 12.8047 58.642 12.9224C57.8992 13.0033 57.152 12.9652 56.4074 12.9739C56.0163 12.9785 55.6252 12.964 55.2349 12.9813C54.8097 12.998 54.4256 13.3437 54.3556 13.772C54.1027 15.3969 53.8542 17.0227 53.6022 18.6478C53.576 18.7974 53.5708 18.9558 53.4999 19.093C53.3931 19.3136 53.1604 19.4604 52.9207 19.4616C51.813 19.4636 50.7052 19.4616 49.5976 19.4629C49.4375 19.462 49.2668 19.4786 49.1216 19.3986C48.8933 19.2817 48.7689 19.0014 48.824 18.7477C49.7262 12.9141 50.6248 7.07987 51.5233 1.24597C51.5628 1.03202 51.5706 0.809359 51.6502 0.60536C51.7657 0.31346 52.03 0.094949 52.3292 0.0248763Z" fill="#2154FF"/>
</svg>
