<svg width="76" height="24" viewBox="0 0 76 24" fill="none" xmlns="http://www.w3.org/2000/svg">
<path fill-rule="evenodd" clip-rule="evenodd" d="M21.613 0.424561L15.5916 16.2758L14.9464 13.0543C13.6558 9.6746 10.4866 6.56975 6.92334 5.14252L11.933 23.6352L18.4441 23.6309L28.1318 0.424561H21.613Z" fill="#2154FF"/>
<path fill-rule="evenodd" clip-rule="evenodd" d="M26.7739 23.6555L30.6222 0.405273H36.774L32.9257 23.6555H26.7739Z" fill="#2154FF"/>
<path fill-rule="evenodd" clip-rule="evenodd" d="M55.2407 0.975823C54.0243 0.509076 52.1098 0 49.728 0C43.6459 0 39.3645 3.15515 39.3273 7.67373C39.2904 11.0149 42.3841 12.8796 44.7165 13.9901C47.1133 15.1292 47.9191 15.8574 47.9093 16.875C47.8929 18.4324 45.9962 19.1462 44.2272 19.1462C41.7642 19.1462 40.4556 18.7944 38.4326 17.9268L37.6408 17.5566L36.7808 22.7608C38.2155 23.4085 40.8735 23.9706 43.635 24C50.0991 24 54.2989 20.8828 54.3488 16.0587C54.3692 13.4081 52.7309 11.3997 49.1805 9.74132C47.0311 8.66261 45.7117 7.94917 45.727 6.85697C45.7284 5.89122 46.8415 4.85677 49.2509 4.85677C51.2629 4.82487 52.7187 5.27795 53.8552 5.74995L54.4077 6.01566L55.2407 0.975823Z" fill="#2154FF"/>
<path fill-rule="evenodd" clip-rule="evenodd" d="M63.4327 15.412C63.9425 14.0744 65.8837 8.91322 65.8837 8.91322C65.8479 8.97456 66.3895 7.56626 66.6998 6.69507L67.115 8.70052C67.115 8.70052 68.2952 14.2492 68.5395 15.412C67.5817 15.412 64.6344 15.412 63.4327 15.412ZM71.022 0.428589H66.2686C64.7937 0.428589 63.6886 0.840301 63.044 2.35561L53.9067 23.6636H60.3692C60.3692 23.6636 61.4234 20.7971 61.6629 20.1683C62.3677 20.1683 68.6443 20.1801 69.5418 20.1801C69.7246 20.9904 70.291 23.6636 70.291 23.6636H76.0003L71.022 0.428589Z" fill="#2154FF"/>
<path fill-rule="evenodd" clip-rule="evenodd" d="M10.0018 0.408936H0.0825291L0 0.890318C6.82513 2.56705 12.4132 6.19403 14.9469 13.0538L12.7913 2.37031C12.4198 0.896716 11.3393 0.460115 10.0018 0.408936Z" fill="#2154FF"/>
</svg>
